%TF.GenerationSoftware,KiCad,Pcbnew,8.0.5*%
%TF.CreationDate,2024-12-20T12:29:36-05:00*%
%TF.ProjectId,Placa_Kicad,506c6163-615f-44b6-9963-61642e6b6963,rev?*%
%TF.SameCoordinates,Original*%
%TF.FileFunction,Legend,Top*%
%TF.FilePolarity,Positive*%
%FSLAX46Y46*%
G04 Gerber Fmt 4.6, Leading zero omitted, Abs format (unit mm)*
G04 Created by KiCad (PCBNEW 8.0.5) date 2024-12-20 12:29:36*
%MOMM*%
%LPD*%
G01*
G04 APERTURE LIST*
%ADD10C,0.150000*%
%ADD11C,0.120000*%
G04 APERTURE END LIST*
D10*
X156424666Y-80254819D02*
X156424666Y-80969104D01*
X156424666Y-80969104D02*
X156377047Y-81111961D01*
X156377047Y-81111961D02*
X156281809Y-81207200D01*
X156281809Y-81207200D02*
X156138952Y-81254819D01*
X156138952Y-81254819D02*
X156043714Y-81254819D01*
X157329428Y-80254819D02*
X157138952Y-80254819D01*
X157138952Y-80254819D02*
X157043714Y-80302438D01*
X157043714Y-80302438D02*
X156996095Y-80350057D01*
X156996095Y-80350057D02*
X156900857Y-80492914D01*
X156900857Y-80492914D02*
X156853238Y-80683390D01*
X156853238Y-80683390D02*
X156853238Y-81064342D01*
X156853238Y-81064342D02*
X156900857Y-81159580D01*
X156900857Y-81159580D02*
X156948476Y-81207200D01*
X156948476Y-81207200D02*
X157043714Y-81254819D01*
X157043714Y-81254819D02*
X157234190Y-81254819D01*
X157234190Y-81254819D02*
X157329428Y-81207200D01*
X157329428Y-81207200D02*
X157377047Y-81159580D01*
X157377047Y-81159580D02*
X157424666Y-81064342D01*
X157424666Y-81064342D02*
X157424666Y-80826247D01*
X157424666Y-80826247D02*
X157377047Y-80731009D01*
X157377047Y-80731009D02*
X157329428Y-80683390D01*
X157329428Y-80683390D02*
X157234190Y-80635771D01*
X157234190Y-80635771D02*
X157043714Y-80635771D01*
X157043714Y-80635771D02*
X156948476Y-80683390D01*
X156948476Y-80683390D02*
X156900857Y-80731009D01*
X156900857Y-80731009D02*
X156853238Y-80826247D01*
X200418476Y-80254819D02*
X200418476Y-80969104D01*
X200418476Y-80969104D02*
X200370857Y-81111961D01*
X200370857Y-81111961D02*
X200275619Y-81207200D01*
X200275619Y-81207200D02*
X200132762Y-81254819D01*
X200132762Y-81254819D02*
X200037524Y-81254819D01*
X201418476Y-81254819D02*
X200847048Y-81254819D01*
X201132762Y-81254819D02*
X201132762Y-80254819D01*
X201132762Y-80254819D02*
X201037524Y-80397676D01*
X201037524Y-80397676D02*
X200942286Y-80492914D01*
X200942286Y-80492914D02*
X200847048Y-80540533D01*
X202275619Y-80588152D02*
X202275619Y-81254819D01*
X202037524Y-80207200D02*
X201799429Y-80921485D01*
X201799429Y-80921485D02*
X202418476Y-80921485D01*
X215090476Y-80254819D02*
X215090476Y-80969104D01*
X215090476Y-80969104D02*
X215042857Y-81111961D01*
X215042857Y-81111961D02*
X214947619Y-81207200D01*
X214947619Y-81207200D02*
X214804762Y-81254819D01*
X214804762Y-81254819D02*
X214709524Y-81254819D01*
X216090476Y-81254819D02*
X215519048Y-81254819D01*
X215804762Y-81254819D02*
X215804762Y-80254819D01*
X215804762Y-80254819D02*
X215709524Y-80397676D01*
X215709524Y-80397676D02*
X215614286Y-80492914D01*
X215614286Y-80492914D02*
X215519048Y-80540533D01*
X217042857Y-81254819D02*
X216471429Y-81254819D01*
X216757143Y-81254819D02*
X216757143Y-80254819D01*
X216757143Y-80254819D02*
X216661905Y-80397676D01*
X216661905Y-80397676D02*
X216566667Y-80492914D01*
X216566667Y-80492914D02*
X216471429Y-80540533D01*
X156571476Y-98372819D02*
X156571476Y-99087104D01*
X156571476Y-99087104D02*
X156523857Y-99229961D01*
X156523857Y-99229961D02*
X156428619Y-99325200D01*
X156428619Y-99325200D02*
X156285762Y-99372819D01*
X156285762Y-99372819D02*
X156190524Y-99372819D01*
X157571476Y-99372819D02*
X157000048Y-99372819D01*
X157285762Y-99372819D02*
X157285762Y-98372819D01*
X157285762Y-98372819D02*
X157190524Y-98515676D01*
X157190524Y-98515676D02*
X157095286Y-98610914D01*
X157095286Y-98610914D02*
X157000048Y-98658533D01*
X158476238Y-98372819D02*
X158000048Y-98372819D01*
X158000048Y-98372819D02*
X157952429Y-98849009D01*
X157952429Y-98849009D02*
X158000048Y-98801390D01*
X158000048Y-98801390D02*
X158095286Y-98753771D01*
X158095286Y-98753771D02*
X158333381Y-98753771D01*
X158333381Y-98753771D02*
X158428619Y-98801390D01*
X158428619Y-98801390D02*
X158476238Y-98849009D01*
X158476238Y-98849009D02*
X158523857Y-98944247D01*
X158523857Y-98944247D02*
X158523857Y-99182342D01*
X158523857Y-99182342D02*
X158476238Y-99277580D01*
X158476238Y-99277580D02*
X158428619Y-99325200D01*
X158428619Y-99325200D02*
X158333381Y-99372819D01*
X158333381Y-99372819D02*
X158095286Y-99372819D01*
X158095286Y-99372819D02*
X158000048Y-99325200D01*
X158000048Y-99325200D02*
X157952429Y-99277580D01*
X218404819Y-128885523D02*
X219119104Y-128885523D01*
X219119104Y-128885523D02*
X219261961Y-128933142D01*
X219261961Y-128933142D02*
X219357200Y-129028380D01*
X219357200Y-129028380D02*
X219404819Y-129171237D01*
X219404819Y-129171237D02*
X219404819Y-129266475D01*
X218500057Y-128456951D02*
X218452438Y-128409332D01*
X218452438Y-128409332D02*
X218404819Y-128314094D01*
X218404819Y-128314094D02*
X218404819Y-128075999D01*
X218404819Y-128075999D02*
X218452438Y-127980761D01*
X218452438Y-127980761D02*
X218500057Y-127933142D01*
X218500057Y-127933142D02*
X218595295Y-127885523D01*
X218595295Y-127885523D02*
X218690533Y-127885523D01*
X218690533Y-127885523D02*
X218833390Y-127933142D01*
X218833390Y-127933142D02*
X219404819Y-128504570D01*
X219404819Y-128504570D02*
X219404819Y-127885523D01*
X218738152Y-127028380D02*
X219404819Y-127028380D01*
X218357200Y-127266475D02*
X219071485Y-127504570D01*
X219071485Y-127504570D02*
X219071485Y-126885523D01*
X156991666Y-92687819D02*
X156991666Y-93402104D01*
X156991666Y-93402104D02*
X156944047Y-93544961D01*
X156944047Y-93544961D02*
X156848809Y-93640200D01*
X156848809Y-93640200D02*
X156705952Y-93687819D01*
X156705952Y-93687819D02*
X156610714Y-93687819D01*
X157515476Y-93687819D02*
X157705952Y-93687819D01*
X157705952Y-93687819D02*
X157801190Y-93640200D01*
X157801190Y-93640200D02*
X157848809Y-93592580D01*
X157848809Y-93592580D02*
X157944047Y-93449723D01*
X157944047Y-93449723D02*
X157991666Y-93259247D01*
X157991666Y-93259247D02*
X157991666Y-92878295D01*
X157991666Y-92878295D02*
X157944047Y-92783057D01*
X157944047Y-92783057D02*
X157896428Y-92735438D01*
X157896428Y-92735438D02*
X157801190Y-92687819D01*
X157801190Y-92687819D02*
X157610714Y-92687819D01*
X157610714Y-92687819D02*
X157515476Y-92735438D01*
X157515476Y-92735438D02*
X157467857Y-92783057D01*
X157467857Y-92783057D02*
X157420238Y-92878295D01*
X157420238Y-92878295D02*
X157420238Y-93116390D01*
X157420238Y-93116390D02*
X157467857Y-93211628D01*
X157467857Y-93211628D02*
X157515476Y-93259247D01*
X157515476Y-93259247D02*
X157610714Y-93306866D01*
X157610714Y-93306866D02*
X157801190Y-93306866D01*
X157801190Y-93306866D02*
X157896428Y-93259247D01*
X157896428Y-93259247D02*
X157944047Y-93211628D01*
X157944047Y-93211628D02*
X157991666Y-93116390D01*
X196929476Y-107035819D02*
X196929476Y-107750104D01*
X196929476Y-107750104D02*
X196881857Y-107892961D01*
X196881857Y-107892961D02*
X196786619Y-107988200D01*
X196786619Y-107988200D02*
X196643762Y-108035819D01*
X196643762Y-108035819D02*
X196548524Y-108035819D01*
X197929476Y-108035819D02*
X197358048Y-108035819D01*
X197643762Y-108035819D02*
X197643762Y-107035819D01*
X197643762Y-107035819D02*
X197548524Y-107178676D01*
X197548524Y-107178676D02*
X197453286Y-107273914D01*
X197453286Y-107273914D02*
X197358048Y-107321533D01*
X198405667Y-108035819D02*
X198596143Y-108035819D01*
X198596143Y-108035819D02*
X198691381Y-107988200D01*
X198691381Y-107988200D02*
X198739000Y-107940580D01*
X198739000Y-107940580D02*
X198834238Y-107797723D01*
X198834238Y-107797723D02*
X198881857Y-107607247D01*
X198881857Y-107607247D02*
X198881857Y-107226295D01*
X198881857Y-107226295D02*
X198834238Y-107131057D01*
X198834238Y-107131057D02*
X198786619Y-107083438D01*
X198786619Y-107083438D02*
X198691381Y-107035819D01*
X198691381Y-107035819D02*
X198500905Y-107035819D01*
X198500905Y-107035819D02*
X198405667Y-107083438D01*
X198405667Y-107083438D02*
X198358048Y-107131057D01*
X198358048Y-107131057D02*
X198310429Y-107226295D01*
X198310429Y-107226295D02*
X198310429Y-107464390D01*
X198310429Y-107464390D02*
X198358048Y-107559628D01*
X198358048Y-107559628D02*
X198405667Y-107607247D01*
X198405667Y-107607247D02*
X198500905Y-107654866D01*
X198500905Y-107654866D02*
X198691381Y-107654866D01*
X198691381Y-107654866D02*
X198786619Y-107607247D01*
X198786619Y-107607247D02*
X198834238Y-107559628D01*
X198834238Y-107559628D02*
X198881857Y-107464390D01*
X221329819Y-89166333D02*
X222044104Y-89166333D01*
X222044104Y-89166333D02*
X222186961Y-89213952D01*
X222186961Y-89213952D02*
X222282200Y-89309190D01*
X222282200Y-89309190D02*
X222329819Y-89452047D01*
X222329819Y-89452047D02*
X222329819Y-89547285D01*
X222329819Y-88166333D02*
X222329819Y-88737761D01*
X222329819Y-88452047D02*
X221329819Y-88452047D01*
X221329819Y-88452047D02*
X221472676Y-88547285D01*
X221472676Y-88547285D02*
X221567914Y-88642523D01*
X221567914Y-88642523D02*
X221615533Y-88737761D01*
X207315476Y-106881819D02*
X207315476Y-107596104D01*
X207315476Y-107596104D02*
X207267857Y-107738961D01*
X207267857Y-107738961D02*
X207172619Y-107834200D01*
X207172619Y-107834200D02*
X207029762Y-107881819D01*
X207029762Y-107881819D02*
X206934524Y-107881819D01*
X208315476Y-107881819D02*
X207744048Y-107881819D01*
X208029762Y-107881819D02*
X208029762Y-106881819D01*
X208029762Y-106881819D02*
X207934524Y-107024676D01*
X207934524Y-107024676D02*
X207839286Y-107119914D01*
X207839286Y-107119914D02*
X207744048Y-107167533D01*
X208696429Y-106977057D02*
X208744048Y-106929438D01*
X208744048Y-106929438D02*
X208839286Y-106881819D01*
X208839286Y-106881819D02*
X209077381Y-106881819D01*
X209077381Y-106881819D02*
X209172619Y-106929438D01*
X209172619Y-106929438D02*
X209220238Y-106977057D01*
X209220238Y-106977057D02*
X209267857Y-107072295D01*
X209267857Y-107072295D02*
X209267857Y-107167533D01*
X209267857Y-107167533D02*
X209220238Y-107310390D01*
X209220238Y-107310390D02*
X208648810Y-107881819D01*
X208648810Y-107881819D02*
X209267857Y-107881819D01*
X151346819Y-99647333D02*
X152061104Y-99647333D01*
X152061104Y-99647333D02*
X152203961Y-99694952D01*
X152203961Y-99694952D02*
X152299200Y-99790190D01*
X152299200Y-99790190D02*
X152346819Y-99933047D01*
X152346819Y-99933047D02*
X152346819Y-100028285D01*
X151680152Y-98742571D02*
X152346819Y-98742571D01*
X151299200Y-98980666D02*
X152013485Y-99218761D01*
X152013485Y-99218761D02*
X152013485Y-98599714D01*
X226524819Y-128658523D02*
X227239104Y-128658523D01*
X227239104Y-128658523D02*
X227381961Y-128706142D01*
X227381961Y-128706142D02*
X227477200Y-128801380D01*
X227477200Y-128801380D02*
X227524819Y-128944237D01*
X227524819Y-128944237D02*
X227524819Y-129039475D01*
X227524819Y-127658523D02*
X227524819Y-128229951D01*
X227524819Y-127944237D02*
X226524819Y-127944237D01*
X226524819Y-127944237D02*
X226667676Y-128039475D01*
X226667676Y-128039475D02*
X226762914Y-128134713D01*
X226762914Y-128134713D02*
X226810533Y-128229951D01*
X226524819Y-127325189D02*
X226524819Y-126658523D01*
X226524819Y-126658523D02*
X227524819Y-127087094D01*
X172358666Y-92687819D02*
X172358666Y-93402104D01*
X172358666Y-93402104D02*
X172311047Y-93544961D01*
X172311047Y-93544961D02*
X172215809Y-93640200D01*
X172215809Y-93640200D02*
X172072952Y-93687819D01*
X172072952Y-93687819D02*
X171977714Y-93687819D01*
X172977714Y-93116390D02*
X172882476Y-93068771D01*
X172882476Y-93068771D02*
X172834857Y-93021152D01*
X172834857Y-93021152D02*
X172787238Y-92925914D01*
X172787238Y-92925914D02*
X172787238Y-92878295D01*
X172787238Y-92878295D02*
X172834857Y-92783057D01*
X172834857Y-92783057D02*
X172882476Y-92735438D01*
X172882476Y-92735438D02*
X172977714Y-92687819D01*
X172977714Y-92687819D02*
X173168190Y-92687819D01*
X173168190Y-92687819D02*
X173263428Y-92735438D01*
X173263428Y-92735438D02*
X173311047Y-92783057D01*
X173311047Y-92783057D02*
X173358666Y-92878295D01*
X173358666Y-92878295D02*
X173358666Y-92925914D01*
X173358666Y-92925914D02*
X173311047Y-93021152D01*
X173311047Y-93021152D02*
X173263428Y-93068771D01*
X173263428Y-93068771D02*
X173168190Y-93116390D01*
X173168190Y-93116390D02*
X172977714Y-93116390D01*
X172977714Y-93116390D02*
X172882476Y-93164009D01*
X172882476Y-93164009D02*
X172834857Y-93211628D01*
X172834857Y-93211628D02*
X172787238Y-93306866D01*
X172787238Y-93306866D02*
X172787238Y-93497342D01*
X172787238Y-93497342D02*
X172834857Y-93592580D01*
X172834857Y-93592580D02*
X172882476Y-93640200D01*
X172882476Y-93640200D02*
X172977714Y-93687819D01*
X172977714Y-93687819D02*
X173168190Y-93687819D01*
X173168190Y-93687819D02*
X173263428Y-93640200D01*
X173263428Y-93640200D02*
X173311047Y-93592580D01*
X173311047Y-93592580D02*
X173358666Y-93497342D01*
X173358666Y-93497342D02*
X173358666Y-93306866D01*
X173358666Y-93306866D02*
X173311047Y-93211628D01*
X173311047Y-93211628D02*
X173263428Y-93164009D01*
X173263428Y-93164009D02*
X173168190Y-93116390D01*
X214979819Y-97242523D02*
X215694104Y-97242523D01*
X215694104Y-97242523D02*
X215836961Y-97290142D01*
X215836961Y-97290142D02*
X215932200Y-97385380D01*
X215932200Y-97385380D02*
X215979819Y-97528237D01*
X215979819Y-97528237D02*
X215979819Y-97623475D01*
X215979819Y-96242523D02*
X215979819Y-96813951D01*
X215979819Y-96528237D02*
X214979819Y-96528237D01*
X214979819Y-96528237D02*
X215122676Y-96623475D01*
X215122676Y-96623475D02*
X215217914Y-96718713D01*
X215217914Y-96718713D02*
X215265533Y-96813951D01*
X214979819Y-95909189D02*
X214979819Y-95290142D01*
X214979819Y-95290142D02*
X215360771Y-95623475D01*
X215360771Y-95623475D02*
X215360771Y-95480618D01*
X215360771Y-95480618D02*
X215408390Y-95385380D01*
X215408390Y-95385380D02*
X215456009Y-95337761D01*
X215456009Y-95337761D02*
X215551247Y-95290142D01*
X215551247Y-95290142D02*
X215789342Y-95290142D01*
X215789342Y-95290142D02*
X215884580Y-95337761D01*
X215884580Y-95337761D02*
X215932200Y-95385380D01*
X215932200Y-95385380D02*
X215979819Y-95480618D01*
X215979819Y-95480618D02*
X215979819Y-95766332D01*
X215979819Y-95766332D02*
X215932200Y-95861570D01*
X215932200Y-95861570D02*
X215884580Y-95909189D01*
X198178819Y-101893666D02*
X197702628Y-102226999D01*
X198178819Y-102465094D02*
X197178819Y-102465094D01*
X197178819Y-102465094D02*
X197178819Y-102084142D01*
X197178819Y-102084142D02*
X197226438Y-101988904D01*
X197226438Y-101988904D02*
X197274057Y-101941285D01*
X197274057Y-101941285D02*
X197369295Y-101893666D01*
X197369295Y-101893666D02*
X197512152Y-101893666D01*
X197512152Y-101893666D02*
X197607390Y-101941285D01*
X197607390Y-101941285D02*
X197655009Y-101988904D01*
X197655009Y-101988904D02*
X197702628Y-102084142D01*
X197702628Y-102084142D02*
X197702628Y-102465094D01*
X197274057Y-101512713D02*
X197226438Y-101465094D01*
X197226438Y-101465094D02*
X197178819Y-101369856D01*
X197178819Y-101369856D02*
X197178819Y-101131761D01*
X197178819Y-101131761D02*
X197226438Y-101036523D01*
X197226438Y-101036523D02*
X197274057Y-100988904D01*
X197274057Y-100988904D02*
X197369295Y-100941285D01*
X197369295Y-100941285D02*
X197464533Y-100941285D01*
X197464533Y-100941285D02*
X197607390Y-100988904D01*
X197607390Y-100988904D02*
X198178819Y-101560332D01*
X198178819Y-101560332D02*
X198178819Y-100941285D01*
X221329819Y-105945523D02*
X222044104Y-105945523D01*
X222044104Y-105945523D02*
X222186961Y-105993142D01*
X222186961Y-105993142D02*
X222282200Y-106088380D01*
X222282200Y-106088380D02*
X222329819Y-106231237D01*
X222329819Y-106231237D02*
X222329819Y-106326475D01*
X222329819Y-104945523D02*
X222329819Y-105516951D01*
X222329819Y-105231237D02*
X221329819Y-105231237D01*
X221329819Y-105231237D02*
X221472676Y-105326475D01*
X221472676Y-105326475D02*
X221567914Y-105421713D01*
X221567914Y-105421713D02*
X221615533Y-105516951D01*
X221329819Y-104326475D02*
X221329819Y-104231237D01*
X221329819Y-104231237D02*
X221377438Y-104135999D01*
X221377438Y-104135999D02*
X221425057Y-104088380D01*
X221425057Y-104088380D02*
X221520295Y-104040761D01*
X221520295Y-104040761D02*
X221710771Y-103993142D01*
X221710771Y-103993142D02*
X221948866Y-103993142D01*
X221948866Y-103993142D02*
X222139342Y-104040761D01*
X222139342Y-104040761D02*
X222234580Y-104088380D01*
X222234580Y-104088380D02*
X222282200Y-104135999D01*
X222282200Y-104135999D02*
X222329819Y-104231237D01*
X222329819Y-104231237D02*
X222329819Y-104326475D01*
X222329819Y-104326475D02*
X222282200Y-104421713D01*
X222282200Y-104421713D02*
X222234580Y-104469332D01*
X222234580Y-104469332D02*
X222139342Y-104516951D01*
X222139342Y-104516951D02*
X221948866Y-104564570D01*
X221948866Y-104564570D02*
X221710771Y-104564570D01*
X221710771Y-104564570D02*
X221520295Y-104516951D01*
X221520295Y-104516951D02*
X221425057Y-104469332D01*
X221425057Y-104469332D02*
X221377438Y-104421713D01*
X221377438Y-104421713D02*
X221329819Y-104326475D01*
X172105666Y-80254819D02*
X172105666Y-80969104D01*
X172105666Y-80969104D02*
X172058047Y-81111961D01*
X172058047Y-81111961D02*
X171962809Y-81207200D01*
X171962809Y-81207200D02*
X171819952Y-81254819D01*
X171819952Y-81254819D02*
X171724714Y-81254819D01*
X173058047Y-80254819D02*
X172581857Y-80254819D01*
X172581857Y-80254819D02*
X172534238Y-80731009D01*
X172534238Y-80731009D02*
X172581857Y-80683390D01*
X172581857Y-80683390D02*
X172677095Y-80635771D01*
X172677095Y-80635771D02*
X172915190Y-80635771D01*
X172915190Y-80635771D02*
X173010428Y-80683390D01*
X173010428Y-80683390D02*
X173058047Y-80731009D01*
X173058047Y-80731009D02*
X173105666Y-80826247D01*
X173105666Y-80826247D02*
X173105666Y-81064342D01*
X173105666Y-81064342D02*
X173058047Y-81159580D01*
X173058047Y-81159580D02*
X173010428Y-81207200D01*
X173010428Y-81207200D02*
X172915190Y-81254819D01*
X172915190Y-81254819D02*
X172677095Y-81254819D01*
X172677095Y-81254819D02*
X172581857Y-81207200D01*
X172581857Y-81207200D02*
X172534238Y-81159580D01*
X186536666Y-80254819D02*
X186536666Y-80969104D01*
X186536666Y-80969104D02*
X186489047Y-81111961D01*
X186489047Y-81111961D02*
X186393809Y-81207200D01*
X186393809Y-81207200D02*
X186250952Y-81254819D01*
X186250952Y-81254819D02*
X186155714Y-81254819D01*
X186965238Y-80350057D02*
X187012857Y-80302438D01*
X187012857Y-80302438D02*
X187108095Y-80254819D01*
X187108095Y-80254819D02*
X187346190Y-80254819D01*
X187346190Y-80254819D02*
X187441428Y-80302438D01*
X187441428Y-80302438D02*
X187489047Y-80350057D01*
X187489047Y-80350057D02*
X187536666Y-80445295D01*
X187536666Y-80445295D02*
X187536666Y-80540533D01*
X187536666Y-80540533D02*
X187489047Y-80683390D01*
X187489047Y-80683390D02*
X186917619Y-81254819D01*
X186917619Y-81254819D02*
X187536666Y-81254819D01*
X193317905Y-73479819D02*
X193317905Y-72479819D01*
X193317905Y-72479819D02*
X193556000Y-72479819D01*
X193556000Y-72479819D02*
X193698857Y-72527438D01*
X193698857Y-72527438D02*
X193794095Y-72622676D01*
X193794095Y-72622676D02*
X193841714Y-72717914D01*
X193841714Y-72717914D02*
X193889333Y-72908390D01*
X193889333Y-72908390D02*
X193889333Y-73051247D01*
X193889333Y-73051247D02*
X193841714Y-73241723D01*
X193841714Y-73241723D02*
X193794095Y-73336961D01*
X193794095Y-73336961D02*
X193698857Y-73432200D01*
X193698857Y-73432200D02*
X193556000Y-73479819D01*
X193556000Y-73479819D02*
X193317905Y-73479819D01*
X194508381Y-72479819D02*
X194603619Y-72479819D01*
X194603619Y-72479819D02*
X194698857Y-72527438D01*
X194698857Y-72527438D02*
X194746476Y-72575057D01*
X194746476Y-72575057D02*
X194794095Y-72670295D01*
X194794095Y-72670295D02*
X194841714Y-72860771D01*
X194841714Y-72860771D02*
X194841714Y-73098866D01*
X194841714Y-73098866D02*
X194794095Y-73289342D01*
X194794095Y-73289342D02*
X194746476Y-73384580D01*
X194746476Y-73384580D02*
X194698857Y-73432200D01*
X194698857Y-73432200D02*
X194603619Y-73479819D01*
X194603619Y-73479819D02*
X194508381Y-73479819D01*
X194508381Y-73479819D02*
X194413143Y-73432200D01*
X194413143Y-73432200D02*
X194365524Y-73384580D01*
X194365524Y-73384580D02*
X194317905Y-73289342D01*
X194317905Y-73289342D02*
X194270286Y-73098866D01*
X194270286Y-73098866D02*
X194270286Y-72860771D01*
X194270286Y-72860771D02*
X194317905Y-72670295D01*
X194317905Y-72670295D02*
X194365524Y-72575057D01*
X194365524Y-72575057D02*
X194413143Y-72527438D01*
X194413143Y-72527438D02*
X194508381Y-72479819D01*
X151092819Y-86566333D02*
X151807104Y-86566333D01*
X151807104Y-86566333D02*
X151949961Y-86613952D01*
X151949961Y-86613952D02*
X152045200Y-86709190D01*
X152045200Y-86709190D02*
X152092819Y-86852047D01*
X152092819Y-86852047D02*
X152092819Y-86947285D01*
X151092819Y-86185380D02*
X151092819Y-85566333D01*
X151092819Y-85566333D02*
X151473771Y-85899666D01*
X151473771Y-85899666D02*
X151473771Y-85756809D01*
X151473771Y-85756809D02*
X151521390Y-85661571D01*
X151521390Y-85661571D02*
X151569009Y-85613952D01*
X151569009Y-85613952D02*
X151664247Y-85566333D01*
X151664247Y-85566333D02*
X151902342Y-85566333D01*
X151902342Y-85566333D02*
X151997580Y-85613952D01*
X151997580Y-85613952D02*
X152045200Y-85661571D01*
X152045200Y-85661571D02*
X152092819Y-85756809D01*
X152092819Y-85756809D02*
X152092819Y-86042523D01*
X152092819Y-86042523D02*
X152045200Y-86137761D01*
X152045200Y-86137761D02*
X151997580Y-86185380D01*
X200854819Y-128885523D02*
X201569104Y-128885523D01*
X201569104Y-128885523D02*
X201711961Y-128933142D01*
X201711961Y-128933142D02*
X201807200Y-129028380D01*
X201807200Y-129028380D02*
X201854819Y-129171237D01*
X201854819Y-129171237D02*
X201854819Y-129266475D01*
X200950057Y-128456951D02*
X200902438Y-128409332D01*
X200902438Y-128409332D02*
X200854819Y-128314094D01*
X200854819Y-128314094D02*
X200854819Y-128075999D01*
X200854819Y-128075999D02*
X200902438Y-127980761D01*
X200902438Y-127980761D02*
X200950057Y-127933142D01*
X200950057Y-127933142D02*
X201045295Y-127885523D01*
X201045295Y-127885523D02*
X201140533Y-127885523D01*
X201140533Y-127885523D02*
X201283390Y-127933142D01*
X201283390Y-127933142D02*
X201854819Y-128504570D01*
X201854819Y-128504570D02*
X201854819Y-127885523D01*
X201854819Y-126933142D02*
X201854819Y-127504570D01*
X201854819Y-127218856D02*
X200854819Y-127218856D01*
X200854819Y-127218856D02*
X200997676Y-127314094D01*
X200997676Y-127314094D02*
X201092914Y-127409332D01*
X201092914Y-127409332D02*
X201140533Y-127504570D01*
X206704819Y-128885523D02*
X207419104Y-128885523D01*
X207419104Y-128885523D02*
X207561961Y-128933142D01*
X207561961Y-128933142D02*
X207657200Y-129028380D01*
X207657200Y-129028380D02*
X207704819Y-129171237D01*
X207704819Y-129171237D02*
X207704819Y-129266475D01*
X206800057Y-128456951D02*
X206752438Y-128409332D01*
X206752438Y-128409332D02*
X206704819Y-128314094D01*
X206704819Y-128314094D02*
X206704819Y-128075999D01*
X206704819Y-128075999D02*
X206752438Y-127980761D01*
X206752438Y-127980761D02*
X206800057Y-127933142D01*
X206800057Y-127933142D02*
X206895295Y-127885523D01*
X206895295Y-127885523D02*
X206990533Y-127885523D01*
X206990533Y-127885523D02*
X207133390Y-127933142D01*
X207133390Y-127933142D02*
X207704819Y-128504570D01*
X207704819Y-128504570D02*
X207704819Y-127885523D01*
X206800057Y-127504570D02*
X206752438Y-127456951D01*
X206752438Y-127456951D02*
X206704819Y-127361713D01*
X206704819Y-127361713D02*
X206704819Y-127123618D01*
X206704819Y-127123618D02*
X206752438Y-127028380D01*
X206752438Y-127028380D02*
X206800057Y-126980761D01*
X206800057Y-126980761D02*
X206895295Y-126933142D01*
X206895295Y-126933142D02*
X206990533Y-126933142D01*
X206990533Y-126933142D02*
X207133390Y-126980761D01*
X207133390Y-126980761D02*
X207704819Y-127552189D01*
X207704819Y-127552189D02*
X207704819Y-126933142D01*
X199255476Y-88483819D02*
X199255476Y-89198104D01*
X199255476Y-89198104D02*
X199207857Y-89340961D01*
X199207857Y-89340961D02*
X199112619Y-89436200D01*
X199112619Y-89436200D02*
X198969762Y-89483819D01*
X198969762Y-89483819D02*
X198874524Y-89483819D01*
X199684048Y-88579057D02*
X199731667Y-88531438D01*
X199731667Y-88531438D02*
X199826905Y-88483819D01*
X199826905Y-88483819D02*
X200065000Y-88483819D01*
X200065000Y-88483819D02*
X200160238Y-88531438D01*
X200160238Y-88531438D02*
X200207857Y-88579057D01*
X200207857Y-88579057D02*
X200255476Y-88674295D01*
X200255476Y-88674295D02*
X200255476Y-88769533D01*
X200255476Y-88769533D02*
X200207857Y-88912390D01*
X200207857Y-88912390D02*
X199636429Y-89483819D01*
X199636429Y-89483819D02*
X200255476Y-89483819D01*
X200874524Y-88483819D02*
X200969762Y-88483819D01*
X200969762Y-88483819D02*
X201065000Y-88531438D01*
X201065000Y-88531438D02*
X201112619Y-88579057D01*
X201112619Y-88579057D02*
X201160238Y-88674295D01*
X201160238Y-88674295D02*
X201207857Y-88864771D01*
X201207857Y-88864771D02*
X201207857Y-89102866D01*
X201207857Y-89102866D02*
X201160238Y-89293342D01*
X201160238Y-89293342D02*
X201112619Y-89388580D01*
X201112619Y-89388580D02*
X201065000Y-89436200D01*
X201065000Y-89436200D02*
X200969762Y-89483819D01*
X200969762Y-89483819D02*
X200874524Y-89483819D01*
X200874524Y-89483819D02*
X200779286Y-89436200D01*
X200779286Y-89436200D02*
X200731667Y-89388580D01*
X200731667Y-89388580D02*
X200684048Y-89293342D01*
X200684048Y-89293342D02*
X200636429Y-89102866D01*
X200636429Y-89102866D02*
X200636429Y-88864771D01*
X200636429Y-88864771D02*
X200684048Y-88674295D01*
X200684048Y-88674295D02*
X200731667Y-88579057D01*
X200731667Y-88579057D02*
X200779286Y-88531438D01*
X200779286Y-88531438D02*
X200874524Y-88483819D01*
X151219819Y-111807523D02*
X151934104Y-111807523D01*
X151934104Y-111807523D02*
X152076961Y-111855142D01*
X152076961Y-111855142D02*
X152172200Y-111950380D01*
X152172200Y-111950380D02*
X152219819Y-112093237D01*
X152219819Y-112093237D02*
X152219819Y-112188475D01*
X152219819Y-110807523D02*
X152219819Y-111378951D01*
X152219819Y-111093237D02*
X151219819Y-111093237D01*
X151219819Y-111093237D02*
X151362676Y-111188475D01*
X151362676Y-111188475D02*
X151457914Y-111283713D01*
X151457914Y-111283713D02*
X151505533Y-111378951D01*
X151219819Y-109950380D02*
X151219819Y-110140856D01*
X151219819Y-110140856D02*
X151267438Y-110236094D01*
X151267438Y-110236094D02*
X151315057Y-110283713D01*
X151315057Y-110283713D02*
X151457914Y-110378951D01*
X151457914Y-110378951D02*
X151648390Y-110426570D01*
X151648390Y-110426570D02*
X152029342Y-110426570D01*
X152029342Y-110426570D02*
X152124580Y-110378951D01*
X152124580Y-110378951D02*
X152172200Y-110331332D01*
X152172200Y-110331332D02*
X152219819Y-110236094D01*
X152219819Y-110236094D02*
X152219819Y-110045618D01*
X152219819Y-110045618D02*
X152172200Y-109950380D01*
X152172200Y-109950380D02*
X152124580Y-109902761D01*
X152124580Y-109902761D02*
X152029342Y-109855142D01*
X152029342Y-109855142D02*
X151791247Y-109855142D01*
X151791247Y-109855142D02*
X151696009Y-109902761D01*
X151696009Y-109902761D02*
X151648390Y-109950380D01*
X151648390Y-109950380D02*
X151600771Y-110045618D01*
X151600771Y-110045618D02*
X151600771Y-110236094D01*
X151600771Y-110236094D02*
X151648390Y-110331332D01*
X151648390Y-110331332D02*
X151696009Y-110378951D01*
X151696009Y-110378951D02*
X151791247Y-110426570D01*
X186130666Y-92814819D02*
X186130666Y-93529104D01*
X186130666Y-93529104D02*
X186083047Y-93671961D01*
X186083047Y-93671961D02*
X185987809Y-93767200D01*
X185987809Y-93767200D02*
X185844952Y-93814819D01*
X185844952Y-93814819D02*
X185749714Y-93814819D01*
X186511619Y-92814819D02*
X187178285Y-92814819D01*
X187178285Y-92814819D02*
X186749714Y-93814819D01*
X183848476Y-109130819D02*
X183848476Y-109845104D01*
X183848476Y-109845104D02*
X183800857Y-109987961D01*
X183800857Y-109987961D02*
X183705619Y-110083200D01*
X183705619Y-110083200D02*
X183562762Y-110130819D01*
X183562762Y-110130819D02*
X183467524Y-110130819D01*
X184848476Y-110130819D02*
X184277048Y-110130819D01*
X184562762Y-110130819D02*
X184562762Y-109130819D01*
X184562762Y-109130819D02*
X184467524Y-109273676D01*
X184467524Y-109273676D02*
X184372286Y-109368914D01*
X184372286Y-109368914D02*
X184277048Y-109416533D01*
X185419905Y-109559390D02*
X185324667Y-109511771D01*
X185324667Y-109511771D02*
X185277048Y-109464152D01*
X185277048Y-109464152D02*
X185229429Y-109368914D01*
X185229429Y-109368914D02*
X185229429Y-109321295D01*
X185229429Y-109321295D02*
X185277048Y-109226057D01*
X185277048Y-109226057D02*
X185324667Y-109178438D01*
X185324667Y-109178438D02*
X185419905Y-109130819D01*
X185419905Y-109130819D02*
X185610381Y-109130819D01*
X185610381Y-109130819D02*
X185705619Y-109178438D01*
X185705619Y-109178438D02*
X185753238Y-109226057D01*
X185753238Y-109226057D02*
X185800857Y-109321295D01*
X185800857Y-109321295D02*
X185800857Y-109368914D01*
X185800857Y-109368914D02*
X185753238Y-109464152D01*
X185753238Y-109464152D02*
X185705619Y-109511771D01*
X185705619Y-109511771D02*
X185610381Y-109559390D01*
X185610381Y-109559390D02*
X185419905Y-109559390D01*
X185419905Y-109559390D02*
X185324667Y-109607009D01*
X185324667Y-109607009D02*
X185277048Y-109654628D01*
X185277048Y-109654628D02*
X185229429Y-109749866D01*
X185229429Y-109749866D02*
X185229429Y-109940342D01*
X185229429Y-109940342D02*
X185277048Y-110035580D01*
X185277048Y-110035580D02*
X185324667Y-110083200D01*
X185324667Y-110083200D02*
X185419905Y-110130819D01*
X185419905Y-110130819D02*
X185610381Y-110130819D01*
X185610381Y-110130819D02*
X185705619Y-110083200D01*
X185705619Y-110083200D02*
X185753238Y-110035580D01*
X185753238Y-110035580D02*
X185800857Y-109940342D01*
X185800857Y-109940342D02*
X185800857Y-109749866D01*
X185800857Y-109749866D02*
X185753238Y-109654628D01*
X185753238Y-109654628D02*
X185705619Y-109607009D01*
X185705619Y-109607009D02*
X185610381Y-109559390D01*
X203639819Y-101893666D02*
X203163628Y-102226999D01*
X203639819Y-102465094D02*
X202639819Y-102465094D01*
X202639819Y-102465094D02*
X202639819Y-102084142D01*
X202639819Y-102084142D02*
X202687438Y-101988904D01*
X202687438Y-101988904D02*
X202735057Y-101941285D01*
X202735057Y-101941285D02*
X202830295Y-101893666D01*
X202830295Y-101893666D02*
X202973152Y-101893666D01*
X202973152Y-101893666D02*
X203068390Y-101941285D01*
X203068390Y-101941285D02*
X203116009Y-101988904D01*
X203116009Y-101988904D02*
X203163628Y-102084142D01*
X203163628Y-102084142D02*
X203163628Y-102465094D01*
X203639819Y-100941285D02*
X203639819Y-101512713D01*
X203639819Y-101226999D02*
X202639819Y-101226999D01*
X202639819Y-101226999D02*
X202782676Y-101322237D01*
X202782676Y-101322237D02*
X202877914Y-101417475D01*
X202877914Y-101417475D02*
X202925533Y-101512713D01*
X212554819Y-128885523D02*
X213269104Y-128885523D01*
X213269104Y-128885523D02*
X213411961Y-128933142D01*
X213411961Y-128933142D02*
X213507200Y-129028380D01*
X213507200Y-129028380D02*
X213554819Y-129171237D01*
X213554819Y-129171237D02*
X213554819Y-129266475D01*
X212650057Y-128456951D02*
X212602438Y-128409332D01*
X212602438Y-128409332D02*
X212554819Y-128314094D01*
X212554819Y-128314094D02*
X212554819Y-128075999D01*
X212554819Y-128075999D02*
X212602438Y-127980761D01*
X212602438Y-127980761D02*
X212650057Y-127933142D01*
X212650057Y-127933142D02*
X212745295Y-127885523D01*
X212745295Y-127885523D02*
X212840533Y-127885523D01*
X212840533Y-127885523D02*
X212983390Y-127933142D01*
X212983390Y-127933142D02*
X213554819Y-128504570D01*
X213554819Y-128504570D02*
X213554819Y-127885523D01*
X212554819Y-127552189D02*
X212554819Y-126933142D01*
X212554819Y-126933142D02*
X212935771Y-127266475D01*
X212935771Y-127266475D02*
X212935771Y-127123618D01*
X212935771Y-127123618D02*
X212983390Y-127028380D01*
X212983390Y-127028380D02*
X213031009Y-126980761D01*
X213031009Y-126980761D02*
X213126247Y-126933142D01*
X213126247Y-126933142D02*
X213364342Y-126933142D01*
X213364342Y-126933142D02*
X213459580Y-126980761D01*
X213459580Y-126980761D02*
X213507200Y-127028380D01*
X213507200Y-127028380D02*
X213554819Y-127123618D01*
X213554819Y-127123618D02*
X213554819Y-127409332D01*
X213554819Y-127409332D02*
X213507200Y-127504570D01*
X213507200Y-127504570D02*
X213459580Y-127552189D01*
D11*
%TO.C,J6*%
X149148000Y-75690000D02*
X149148000Y-79710000D01*
X149148000Y-77190000D02*
X150148000Y-77190000D01*
X149148000Y-79710000D02*
X164368000Y-79710000D01*
X149648000Y-78000000D02*
X149148000Y-78000000D01*
X149648000Y-79210000D02*
X149648000Y-78000000D01*
X150148000Y-77190000D02*
X150148000Y-75690000D01*
X163368000Y-77190000D02*
X163368000Y-75690000D01*
X163868000Y-78000000D02*
X163868000Y-79210000D01*
X163868000Y-79210000D02*
X149648000Y-79210000D01*
X164368000Y-75690000D02*
X149148000Y-75690000D01*
X164368000Y-77190000D02*
X163368000Y-77190000D01*
X164368000Y-78000000D02*
X163868000Y-78000000D01*
X164368000Y-79710000D02*
X164368000Y-75690000D01*
X164668000Y-75390000D02*
X162168000Y-75390000D01*
X164668000Y-77890000D02*
X164668000Y-75390000D01*
%TO.C,J14*%
X194868000Y-75690000D02*
X194868000Y-79710000D01*
X194868000Y-77190000D02*
X195868000Y-77190000D01*
X194868000Y-79710000D02*
X207588000Y-79710000D01*
X195368000Y-78000000D02*
X194868000Y-78000000D01*
X195368000Y-79210000D02*
X195368000Y-78000000D01*
X195868000Y-77190000D02*
X195868000Y-75690000D01*
X206588000Y-77190000D02*
X206588000Y-75690000D01*
X207088000Y-78000000D02*
X207088000Y-79210000D01*
X207088000Y-79210000D02*
X195368000Y-79210000D01*
X207588000Y-75690000D02*
X194868000Y-75690000D01*
X207588000Y-77190000D02*
X206588000Y-77190000D01*
X207588000Y-78000000D02*
X207088000Y-78000000D01*
X207588000Y-79710000D02*
X207588000Y-75690000D01*
X207888000Y-75390000D02*
X205388000Y-75390000D01*
X207888000Y-77890000D02*
X207888000Y-75390000D01*
%TO.C,J11*%
X210790000Y-75690000D02*
X210790000Y-79710000D01*
X210790000Y-77190000D02*
X211790000Y-77190000D01*
X210790000Y-79710000D02*
X221010000Y-79710000D01*
X211290000Y-78000000D02*
X210790000Y-78000000D01*
X211290000Y-79210000D02*
X211290000Y-78000000D01*
X211790000Y-77190000D02*
X211790000Y-75690000D01*
X220010000Y-77190000D02*
X220010000Y-75690000D01*
X220510000Y-78000000D02*
X220510000Y-79210000D01*
X220510000Y-79210000D02*
X211290000Y-79210000D01*
X221010000Y-75690000D02*
X210790000Y-75690000D01*
X221010000Y-77190000D02*
X220010000Y-77190000D01*
X221010000Y-78000000D02*
X220510000Y-78000000D01*
X221010000Y-79710000D02*
X221010000Y-75690000D01*
X221310000Y-75390000D02*
X218810000Y-75390000D01*
X221310000Y-77890000D02*
X221310000Y-75390000D01*
%TO.C,J15*%
X153231000Y-105538000D02*
X153231000Y-107278000D01*
X153231000Y-107278000D02*
X154731000Y-107278000D01*
X153471000Y-99918000D02*
X153471000Y-107038000D01*
X153471000Y-99918000D02*
X161291000Y-99918000D01*
X153471000Y-105478000D02*
X161291000Y-105478000D01*
X153471000Y-107038000D02*
X161291000Y-107038000D01*
X161291000Y-99918000D02*
X161291000Y-107038000D01*
X154198891Y-103985742D02*
G75*
G02*
X154199000Y-102770000I1432109J607742D01*
G01*
X155023258Y-101945891D02*
G75*
G02*
X156239000Y-101946000I607742J-1432109D01*
G01*
X155658011Y-104933493D02*
G75*
G02*
X155023000Y-104810000I-27013J1555481D01*
G01*
X156238587Y-104809385D02*
G75*
G02*
X155631000Y-104933000I-607587J1431385D01*
G01*
X157063109Y-102770258D02*
G75*
G02*
X157063000Y-103986000I-1432112J-607743D01*
G01*
X160686000Y-103378000D02*
G75*
G02*
X157576000Y-103378000I-1555000J0D01*
G01*
X157576000Y-103378000D02*
G75*
G02*
X160686000Y-103378000I1555000J0D01*
G01*
%TO.C,J24*%
X220040000Y-121716000D02*
X220040000Y-134436000D01*
X220040000Y-134436000D02*
X224060000Y-134436000D01*
X220540000Y-122216000D02*
X221750000Y-122216000D01*
X220540000Y-133936000D02*
X220540000Y-122216000D01*
X221750000Y-122216000D02*
X221750000Y-121716000D01*
X221750000Y-133936000D02*
X220540000Y-133936000D01*
X221750000Y-134436000D02*
X221750000Y-133936000D01*
X221860000Y-134736000D02*
X224360000Y-134736000D01*
X222560000Y-121716000D02*
X222560000Y-122716000D01*
X222560000Y-122716000D02*
X224060000Y-122716000D01*
X222560000Y-133436000D02*
X224060000Y-133436000D01*
X222560000Y-134436000D02*
X222560000Y-133436000D01*
X224060000Y-121716000D02*
X220040000Y-121716000D01*
X224060000Y-134436000D02*
X224060000Y-121716000D01*
X224360000Y-134736000D02*
X224360000Y-132236000D01*
%TO.C,J9*%
X153415000Y-92233000D02*
X153415000Y-85113000D01*
X161235000Y-85113000D02*
X153415000Y-85113000D01*
X161235000Y-86673000D02*
X153415000Y-86673000D01*
X161235000Y-92233000D02*
X153415000Y-92233000D01*
X161235000Y-92233000D02*
X161235000Y-85113000D01*
X161475000Y-84873000D02*
X159975000Y-84873000D01*
X161475000Y-86613000D02*
X161475000Y-84873000D01*
X157642891Y-89380742D02*
G75*
G02*
X157643000Y-88165000I1432112J607743D01*
G01*
X158467413Y-87341615D02*
G75*
G02*
X159075000Y-87218000I607587J-1431385D01*
G01*
X159047989Y-87217507D02*
G75*
G02*
X159683000Y-87341000I27013J-1555481D01*
G01*
X159682742Y-90205109D02*
G75*
G02*
X158467000Y-90205000I-607742J1432109D01*
G01*
X160507109Y-88165258D02*
G75*
G02*
X160507000Y-89381000I-1432109J-607742D01*
G01*
X157130000Y-88773000D02*
G75*
G02*
X154020000Y-88773000I-1555000J0D01*
G01*
X154020000Y-88773000D02*
G75*
G02*
X157130000Y-88773000I1555000J0D01*
G01*
%TO.C,J19*%
X193589000Y-114201000D02*
X193589000Y-115941000D01*
X193589000Y-115941000D02*
X195089000Y-115941000D01*
X193829000Y-108581000D02*
X193829000Y-115701000D01*
X193829000Y-108581000D02*
X201649000Y-108581000D01*
X193829000Y-114141000D02*
X201649000Y-114141000D01*
X193829000Y-115701000D02*
X201649000Y-115701000D01*
X201649000Y-108581000D02*
X201649000Y-115701000D01*
X194556891Y-112648742D02*
G75*
G02*
X194557000Y-111433000I1432109J607742D01*
G01*
X195381258Y-110608891D02*
G75*
G02*
X196597000Y-110609000I607742J-1432109D01*
G01*
X196016011Y-113596493D02*
G75*
G02*
X195381000Y-113473000I-27013J1555481D01*
G01*
X196596587Y-113472385D02*
G75*
G02*
X195989000Y-113596000I-607587J1431385D01*
G01*
X197421109Y-111433258D02*
G75*
G02*
X197421000Y-112649000I-1432112J-607743D01*
G01*
X201044000Y-112041000D02*
G75*
G02*
X197934000Y-112041000I-1555000J0D01*
G01*
X197934000Y-112041000D02*
G75*
G02*
X201044000Y-112041000I1555000J0D01*
G01*
%TO.C,J1*%
X216465000Y-82173000D02*
X216465000Y-84673000D01*
X216765000Y-82473000D02*
X216765000Y-95193000D01*
X216765000Y-95193000D02*
X220785000Y-95193000D01*
X218265000Y-82473000D02*
X218265000Y-83473000D01*
X218265000Y-83473000D02*
X216765000Y-83473000D01*
X218265000Y-94193000D02*
X216765000Y-94193000D01*
X218265000Y-95193000D02*
X218265000Y-94193000D01*
X218965000Y-82173000D02*
X216465000Y-82173000D01*
X219075000Y-82473000D02*
X219075000Y-82973000D01*
X219075000Y-82973000D02*
X220285000Y-82973000D01*
X219075000Y-94693000D02*
X219075000Y-95193000D01*
X220285000Y-82973000D02*
X220285000Y-94693000D01*
X220285000Y-94693000D02*
X219075000Y-94693000D01*
X220785000Y-82473000D02*
X216765000Y-82473000D01*
X220785000Y-95193000D02*
X220785000Y-82473000D01*
%TO.C,J12*%
X203975000Y-114047000D02*
X203975000Y-115787000D01*
X203975000Y-115787000D02*
X205475000Y-115787000D01*
X204215000Y-108427000D02*
X204215000Y-115547000D01*
X204215000Y-108427000D02*
X212035000Y-108427000D01*
X204215000Y-113987000D02*
X212035000Y-113987000D01*
X204215000Y-115547000D02*
X212035000Y-115547000D01*
X212035000Y-108427000D02*
X212035000Y-115547000D01*
X204942891Y-112494742D02*
G75*
G02*
X204943000Y-111279000I1432109J607742D01*
G01*
X205767258Y-110454891D02*
G75*
G02*
X206983000Y-110455000I607742J-1432109D01*
G01*
X206402011Y-113442493D02*
G75*
G02*
X205767000Y-113319000I-27013J1555481D01*
G01*
X206982587Y-113318385D02*
G75*
G02*
X206375000Y-113442000I-607587J1431385D01*
G01*
X207807109Y-111279258D02*
G75*
G02*
X207807000Y-112495000I-1432112J-607743D01*
G01*
X211430000Y-111887000D02*
G75*
G02*
X208320000Y-111887000I-1555000J0D01*
G01*
X208320000Y-111887000D02*
G75*
G02*
X211430000Y-111887000I1555000J0D01*
G01*
%TO.C,J4*%
X143002000Y-94234000D02*
X143002000Y-104394000D01*
X143002000Y-104394000D02*
X150622000Y-104394000D01*
X144272000Y-104394000D02*
X144272000Y-94234000D01*
X150622000Y-94234000D02*
X143002000Y-94234000D01*
X150622000Y-104394000D02*
X150622000Y-94234000D01*
%TO.C,J17*%
X228160000Y-122739000D02*
X228160000Y-132959000D01*
X228160000Y-132959000D02*
X232180000Y-132959000D01*
X228660000Y-123239000D02*
X229870000Y-123239000D01*
X228660000Y-132459000D02*
X228660000Y-123239000D01*
X229870000Y-123239000D02*
X229870000Y-122739000D01*
X229870000Y-132459000D02*
X228660000Y-132459000D01*
X229870000Y-132959000D02*
X229870000Y-132459000D01*
X229980000Y-133259000D02*
X232480000Y-133259000D01*
X230680000Y-122739000D02*
X230680000Y-123739000D01*
X230680000Y-123739000D02*
X232180000Y-123739000D01*
X230680000Y-131959000D02*
X232180000Y-131959000D01*
X230680000Y-132959000D02*
X230680000Y-131959000D01*
X232180000Y-122739000D02*
X228160000Y-122739000D01*
X232180000Y-132959000D02*
X232180000Y-122739000D01*
X232480000Y-133259000D02*
X232480000Y-130759000D01*
%TO.C,J8*%
X168782000Y-92233000D02*
X168782000Y-85113000D01*
X176602000Y-85113000D02*
X168782000Y-85113000D01*
X176602000Y-86673000D02*
X168782000Y-86673000D01*
X176602000Y-92233000D02*
X168782000Y-92233000D01*
X176602000Y-92233000D02*
X176602000Y-85113000D01*
X176842000Y-84873000D02*
X175342000Y-84873000D01*
X176842000Y-86613000D02*
X176842000Y-84873000D01*
X173009891Y-89380742D02*
G75*
G02*
X173010000Y-88165000I1432112J607743D01*
G01*
X173834413Y-87341615D02*
G75*
G02*
X174442000Y-87218000I607587J-1431385D01*
G01*
X174414989Y-87217507D02*
G75*
G02*
X175050000Y-87341000I27013J-1555481D01*
G01*
X175049742Y-90205109D02*
G75*
G02*
X173834000Y-90205000I-607742J1432109D01*
G01*
X175874109Y-88165258D02*
G75*
G02*
X175874000Y-89381000I-1432109J-607742D01*
G01*
X172497000Y-88773000D02*
G75*
G02*
X169387000Y-88773000I-1555000J0D01*
G01*
X169387000Y-88773000D02*
G75*
G02*
X172497000Y-88773000I1555000J0D01*
G01*
%TO.C,J13*%
X210115000Y-91023000D02*
X210115000Y-93523000D01*
X210415000Y-91323000D02*
X210415000Y-101543000D01*
X210415000Y-101543000D02*
X214435000Y-101543000D01*
X211915000Y-91323000D02*
X211915000Y-92323000D01*
X211915000Y-92323000D02*
X210415000Y-92323000D01*
X211915000Y-100543000D02*
X210415000Y-100543000D01*
X211915000Y-101543000D02*
X211915000Y-100543000D01*
X212615000Y-91023000D02*
X210115000Y-91023000D01*
X212725000Y-91323000D02*
X212725000Y-91823000D01*
X212725000Y-91823000D02*
X213935000Y-91823000D01*
X212725000Y-101043000D02*
X212725000Y-101543000D01*
X213935000Y-91823000D02*
X213935000Y-101043000D01*
X213935000Y-101043000D02*
X212725000Y-101043000D01*
X214435000Y-91323000D02*
X210415000Y-91323000D01*
X214435000Y-101543000D02*
X214435000Y-91323000D01*
%TO.C,R2*%
X198724000Y-99807000D02*
X198724000Y-103647000D01*
X198724000Y-103647000D02*
X200564000Y-103647000D01*
X199644000Y-98857000D02*
X199644000Y-99807000D01*
X199644000Y-104597000D02*
X199644000Y-103647000D01*
X200564000Y-99807000D02*
X198724000Y-99807000D01*
X200564000Y-103647000D02*
X200564000Y-99807000D01*
%TO.C,J10*%
X216465000Y-98476000D02*
X216465000Y-100976000D01*
X216765000Y-98776000D02*
X216765000Y-111496000D01*
X216765000Y-111496000D02*
X220785000Y-111496000D01*
X218265000Y-98776000D02*
X218265000Y-99776000D01*
X218265000Y-99776000D02*
X216765000Y-99776000D01*
X218265000Y-110496000D02*
X216765000Y-110496000D01*
X218265000Y-111496000D02*
X218265000Y-110496000D01*
X218965000Y-98476000D02*
X216465000Y-98476000D01*
X219075000Y-98776000D02*
X219075000Y-99276000D01*
X219075000Y-99276000D02*
X220285000Y-99276000D01*
X219075000Y-110996000D02*
X219075000Y-111496000D01*
X220285000Y-99276000D02*
X220285000Y-110996000D01*
X220285000Y-110996000D02*
X219075000Y-110996000D01*
X220785000Y-98776000D02*
X216765000Y-98776000D01*
X220785000Y-111496000D02*
X220785000Y-98776000D01*
%TO.C,J5*%
X166079000Y-75690000D02*
X166079000Y-79710000D01*
X166079000Y-77190000D02*
X167079000Y-77190000D01*
X166079000Y-79710000D02*
X178799000Y-79710000D01*
X166579000Y-78000000D02*
X166079000Y-78000000D01*
X166579000Y-79210000D02*
X166579000Y-78000000D01*
X167079000Y-77190000D02*
X167079000Y-75690000D01*
X177799000Y-77190000D02*
X177799000Y-75690000D01*
X178299000Y-78000000D02*
X178299000Y-79210000D01*
X178299000Y-79210000D02*
X166579000Y-79210000D01*
X178799000Y-75690000D02*
X166079000Y-75690000D01*
X178799000Y-77190000D02*
X177799000Y-77190000D01*
X178799000Y-78000000D02*
X178299000Y-78000000D01*
X178799000Y-79710000D02*
X178799000Y-75690000D01*
X179099000Y-75390000D02*
X176599000Y-75390000D01*
X179099000Y-77890000D02*
X179099000Y-75390000D01*
%TO.C,J2*%
X180510000Y-75690000D02*
X180510000Y-79710000D01*
X180510000Y-77190000D02*
X181510000Y-77190000D01*
X180510000Y-79710000D02*
X193230000Y-79710000D01*
X181010000Y-78000000D02*
X180510000Y-78000000D01*
X181010000Y-79210000D02*
X181010000Y-78000000D01*
X181510000Y-77190000D02*
X181510000Y-75690000D01*
X192230000Y-77190000D02*
X192230000Y-75690000D01*
X192730000Y-78000000D02*
X192730000Y-79210000D01*
X192730000Y-79210000D02*
X181010000Y-79210000D01*
X193230000Y-75690000D02*
X180510000Y-75690000D01*
X193230000Y-77190000D02*
X192230000Y-77190000D01*
X193230000Y-78000000D02*
X192730000Y-78000000D01*
X193230000Y-79710000D02*
X193230000Y-75690000D01*
X193530000Y-75390000D02*
X191030000Y-75390000D01*
X193530000Y-77890000D02*
X193530000Y-75390000D01*
%TO.C,J3*%
X142748000Y-81153000D02*
X142748000Y-91313000D01*
X142748000Y-91313000D02*
X150368000Y-91313000D01*
X144018000Y-91313000D02*
X144018000Y-81153000D01*
X150368000Y-81153000D02*
X142748000Y-81153000D01*
X150368000Y-91313000D02*
X150368000Y-81153000D01*
%TO.C,J21*%
X202490000Y-121716000D02*
X202490000Y-134436000D01*
X202490000Y-134436000D02*
X206510000Y-134436000D01*
X202990000Y-122216000D02*
X204200000Y-122216000D01*
X202990000Y-133936000D02*
X202990000Y-122216000D01*
X204200000Y-122216000D02*
X204200000Y-121716000D01*
X204200000Y-133936000D02*
X202990000Y-133936000D01*
X204200000Y-134436000D02*
X204200000Y-133936000D01*
X204310000Y-134736000D02*
X206810000Y-134736000D01*
X205010000Y-121716000D02*
X205010000Y-122716000D01*
X205010000Y-122716000D02*
X206510000Y-122716000D01*
X205010000Y-133436000D02*
X206510000Y-133436000D01*
X205010000Y-134436000D02*
X205010000Y-133436000D01*
X206510000Y-121716000D02*
X202490000Y-121716000D01*
X206510000Y-134436000D02*
X206510000Y-121716000D01*
X206810000Y-134736000D02*
X206810000Y-132236000D01*
%TO.C,J22*%
X208340000Y-121716000D02*
X208340000Y-134436000D01*
X208340000Y-134436000D02*
X212360000Y-134436000D01*
X208840000Y-122216000D02*
X210050000Y-122216000D01*
X208840000Y-133936000D02*
X208840000Y-122216000D01*
X210050000Y-122216000D02*
X210050000Y-121716000D01*
X210050000Y-133936000D02*
X208840000Y-133936000D01*
X210050000Y-134436000D02*
X210050000Y-133936000D01*
X210160000Y-134736000D02*
X212660000Y-134736000D01*
X210860000Y-121716000D02*
X210860000Y-122716000D01*
X210860000Y-122716000D02*
X212360000Y-122716000D01*
X210860000Y-133436000D02*
X212360000Y-133436000D01*
X210860000Y-134436000D02*
X210860000Y-133436000D01*
X212360000Y-121716000D02*
X208340000Y-121716000D01*
X212360000Y-134436000D02*
X212360000Y-121716000D01*
X212660000Y-134736000D02*
X212660000Y-132236000D01*
%TO.C,J20*%
X194655000Y-91939000D02*
X194655000Y-94439000D01*
X194655000Y-94439000D02*
X197155000Y-94439000D01*
X194955000Y-90119000D02*
X194955000Y-94139000D01*
X194955000Y-91829000D02*
X195455000Y-91829000D01*
X194955000Y-92639000D02*
X195955000Y-92639000D01*
X194955000Y-94139000D02*
X205175000Y-94139000D01*
X195455000Y-90619000D02*
X204675000Y-90619000D01*
X195455000Y-91829000D02*
X195455000Y-90619000D01*
X195955000Y-92639000D02*
X195955000Y-94139000D01*
X204175000Y-92639000D02*
X204175000Y-94139000D01*
X204675000Y-90619000D02*
X204675000Y-91829000D01*
X204675000Y-91829000D02*
X205175000Y-91829000D01*
X205175000Y-90119000D02*
X194955000Y-90119000D01*
X205175000Y-92639000D02*
X204175000Y-92639000D01*
X205175000Y-94139000D02*
X205175000Y-90119000D01*
%TO.C,J16*%
X142875000Y-105918000D02*
X142875000Y-116078000D01*
X142875000Y-116078000D02*
X150495000Y-116078000D01*
X144145000Y-116078000D02*
X144145000Y-105918000D01*
X150495000Y-105918000D02*
X142875000Y-105918000D01*
X150495000Y-116078000D02*
X150495000Y-105918000D01*
%TO.C,J7*%
X182554000Y-92360000D02*
X182554000Y-85240000D01*
X190374000Y-85240000D02*
X182554000Y-85240000D01*
X190374000Y-86800000D02*
X182554000Y-86800000D01*
X190374000Y-92360000D02*
X182554000Y-92360000D01*
X190374000Y-92360000D02*
X190374000Y-85240000D01*
X190614000Y-85000000D02*
X189114000Y-85000000D01*
X190614000Y-86740000D02*
X190614000Y-85000000D01*
X186781891Y-89507742D02*
G75*
G02*
X186782000Y-88292000I1432112J607743D01*
G01*
X187606413Y-87468615D02*
G75*
G02*
X188214000Y-87345000I607587J-1431385D01*
G01*
X188186989Y-87344507D02*
G75*
G02*
X188822000Y-87468000I27013J-1555481D01*
G01*
X188821742Y-90332109D02*
G75*
G02*
X187606000Y-90332000I-607742J1432109D01*
G01*
X189646109Y-88292258D02*
G75*
G02*
X189646000Y-89508000I-1432109J-607742D01*
G01*
X186269000Y-88900000D02*
G75*
G02*
X183159000Y-88900000I-1555000J0D01*
G01*
X183159000Y-88900000D02*
G75*
G02*
X186269000Y-88900000I1555000J0D01*
G01*
%TO.C,J18*%
X179248000Y-112586000D02*
X179248000Y-115086000D01*
X179248000Y-115086000D02*
X181748000Y-115086000D01*
X179548000Y-110766000D02*
X179548000Y-114786000D01*
X179548000Y-112476000D02*
X180048000Y-112476000D01*
X179548000Y-113286000D02*
X180548000Y-113286000D01*
X179548000Y-114786000D02*
X189768000Y-114786000D01*
X180048000Y-111266000D02*
X189268000Y-111266000D01*
X180048000Y-112476000D02*
X180048000Y-111266000D01*
X180548000Y-113286000D02*
X180548000Y-114786000D01*
X188768000Y-113286000D02*
X188768000Y-114786000D01*
X189268000Y-111266000D02*
X189268000Y-112476000D01*
X189268000Y-112476000D02*
X189768000Y-112476000D01*
X189768000Y-110766000D02*
X179548000Y-110766000D01*
X189768000Y-113286000D02*
X188768000Y-113286000D01*
X189768000Y-114786000D02*
X189768000Y-110766000D01*
%TO.C,R1*%
X204185000Y-99807000D02*
X204185000Y-103647000D01*
X204185000Y-103647000D02*
X206025000Y-103647000D01*
X205105000Y-98857000D02*
X205105000Y-99807000D01*
X205105000Y-104597000D02*
X205105000Y-103647000D01*
X206025000Y-99807000D02*
X204185000Y-99807000D01*
X206025000Y-103647000D02*
X206025000Y-99807000D01*
%TO.C,J23*%
X214190000Y-121716000D02*
X214190000Y-134436000D01*
X214190000Y-134436000D02*
X218210000Y-134436000D01*
X214690000Y-122216000D02*
X215900000Y-122216000D01*
X214690000Y-133936000D02*
X214690000Y-122216000D01*
X215900000Y-122216000D02*
X215900000Y-121716000D01*
X215900000Y-133936000D02*
X214690000Y-133936000D01*
X215900000Y-134436000D02*
X215900000Y-133936000D01*
X216010000Y-134736000D02*
X218510000Y-134736000D01*
X216710000Y-121716000D02*
X216710000Y-122716000D01*
X216710000Y-122716000D02*
X218210000Y-122716000D01*
X216710000Y-133436000D02*
X218210000Y-133436000D01*
X216710000Y-134436000D02*
X216710000Y-133436000D01*
X218210000Y-121716000D02*
X214190000Y-121716000D01*
X218210000Y-134436000D02*
X218210000Y-121716000D01*
X218510000Y-134736000D02*
X218510000Y-132236000D01*
%TD*%
M02*
