M48
; DRILL file {KiCad 8.0.5} date 2024-12-20T12:29:34-0500
; FORMAT={-:-/ absolute / inch / decimal}
; #@! TF.CreationDate,2024-12-20T12:29:34-05:00
; #@! TF.GenerationSoftware,Kicad,Pcbnew,8.0.5
; #@! TF.FileFunction,Plated,1,2,PTH
FMAT,2
INCH
; #@! TA.AperFunction,Plated,PTH,ComponentDrill
T1C0.0276
; #@! TA.AperFunction,Plated,PTH,ComponentDrill
T2C0.0374
; #@! TA.AperFunction,Plated,PTH,ComponentDrill
T3C0.0400
; #@! TA.AperFunction,Plated,PTH,ComponentDrill
T4C0.0472
; #@! TA.AperFunction,Plated,PTH,ComponentDrill
T5C0.0598
%
G90
G05
T1
X7.86Y-3.855
X7.86Y-4.155
X8.075Y-3.855
X8.075Y-4.155
T2
X5.9747Y-3.0709
X6.0731Y-3.0709
X6.1716Y-3.0709
X6.27Y-3.0709
X6.3684Y-3.0709
X6.6413Y-3.0709
X6.7397Y-3.0709
X6.8381Y-3.0709
X6.9366Y-3.0709
X7.1716Y-4.4282
X7.2094Y-3.0709
X7.27Y-4.4282
X7.3079Y-3.0709
X7.3684Y-4.4282
X7.4063Y-3.0709
X7.5047Y-3.0709
X7.7747Y-3.0709
X7.7781Y-3.6153
X7.8731Y-3.0709
X7.8766Y-3.6153
X7.9716Y-3.0709
X7.975Y-3.6153
X8.0394Y-4.8947
X8.0394Y-4.9931
X8.0394Y-5.0916
X8.0394Y-5.19
X8.07Y-3.0709
X8.2697Y-4.8947
X8.2697Y-4.9931
X8.2697Y-5.0916
X8.2697Y-5.19
X8.375Y-3.6981
X8.375Y-3.7966
X8.375Y-3.895
X8.4016Y-3.0709
X8.5Y-3.0709
X8.5Y-4.8947
X8.5Y-4.9931
X8.5Y-5.0916
X8.5Y-5.19
X8.5984Y-3.0709
X8.625Y-3.3497
X8.625Y-3.4481
X8.625Y-3.5466
X8.625Y-3.645
X8.625Y-3.9916
X8.625Y-4.09
X8.625Y-4.1884
X8.625Y-4.2869
X8.7303Y-4.8947
X8.7303Y-4.9931
X8.7303Y-5.0916
X8.7303Y-5.19
X9.05Y-4.935
X9.05Y-5.0334
X9.05Y-5.1319
T3
X5.88Y-2.8
X5.98Y-2.8
X6.08Y-2.8
X6.18Y-2.8
X6.24Y-4.7
X6.28Y-2.8
X6.34Y-4.7
X6.38Y-2.8
X6.44Y-4.7
X6.48Y-2.8
X6.54Y-4.7
X6.58Y-2.8
X6.64Y-4.7
X6.68Y-2.8
X6.74Y-4.7
X6.78Y-2.8
X6.84Y-4.7
X6.94Y-2.8
X6.94Y-4.7
X7.04Y-2.8
X7.14Y-2.8
X7.14Y-4.7
X7.24Y-2.8
X7.24Y-4.7
X7.34Y-2.8
X7.34Y-4.7
X7.44Y-2.8
X7.44Y-4.7
X7.54Y-2.8
X7.54Y-4.7
X7.64Y-2.8
X7.64Y-4.7
X7.74Y-4.7
X7.84Y-2.8
X7.84Y-4.7
X7.94Y-2.8
X8.04Y-2.8
X8.04Y-4.7
X8.14Y-2.8
X8.14Y-4.7
X8.24Y-2.8
X8.24Y-4.7
X8.34Y-2.8
X8.34Y-4.7
X8.44Y-2.8
X8.44Y-4.7
X8.54Y-2.8
X8.54Y-4.7
X8.64Y-4.7
X8.74Y-4.7
X8.84Y-2.8
X8.84Y-2.9
X8.84Y-3.0
X8.84Y-3.1
X8.84Y-3.2
X8.84Y-3.3
X8.84Y-3.4
X8.84Y-3.5
X8.84Y-3.6
X8.84Y-3.7
X8.84Y-3.8
X8.84Y-3.9
X8.84Y-4.0
X8.84Y-4.1
X8.84Y-4.2
X8.84Y-4.3
X8.84Y-4.4
X8.84Y-4.5
X8.94Y-2.8
X8.94Y-2.9
X8.94Y-3.0
X8.94Y-3.1
X8.94Y-3.2
X8.94Y-3.3
X8.94Y-3.4
X8.94Y-3.5
X8.94Y-3.6
X8.94Y-3.7
X8.94Y-3.8
X8.94Y-3.9
X8.94Y-4.0
X8.94Y-4.1
X8.94Y-4.2
X8.94Y-4.3
X8.94Y-4.4
X8.94Y-4.5
T4
X6.125Y-3.495
X6.1272Y-4.07
X6.2628Y-3.495
X6.265Y-4.07
X6.73Y-3.495
X6.8678Y-3.495
X7.2722Y-3.5
X7.41Y-3.5
X7.7161Y-4.4111
X7.8539Y-4.4111
X8.125Y-4.405
X8.2628Y-4.405
T5
X5.77Y-3.295
X5.77Y-3.495
X5.775Y-4.27
X5.775Y-4.47
X5.78Y-3.81
X5.78Y-4.01
M30
