%TF.GenerationSoftware,KiCad,Pcbnew,8.0.5*%
%TF.CreationDate,2024-12-20T12:29:36-05:00*%
%TF.ProjectId,Placa_Kicad,506c6163-615f-44b6-9963-61642e6b6963,rev?*%
%TF.SameCoordinates,Original*%
%TF.FileFunction,Legend,Bot*%
%TF.FilePolarity,Positive*%
%FSLAX46Y46*%
G04 Gerber Fmt 4.6, Leading zero omitted, Abs format (unit mm)*
G04 Created by KiCad (PCBNEW 8.0.5) date 2024-12-20 12:29:36*
%MOMM*%
%LPD*%
G01*
G04 APERTURE LIST*
%ADD10C,0.150000*%
G04 APERTURE END LIST*
D10*
X194794094Y-73479819D02*
X194794094Y-72479819D01*
X194794094Y-72479819D02*
X194555999Y-72479819D01*
X194555999Y-72479819D02*
X194413142Y-72527438D01*
X194413142Y-72527438D02*
X194317904Y-72622676D01*
X194317904Y-72622676D02*
X194270285Y-72717914D01*
X194270285Y-72717914D02*
X194222666Y-72908390D01*
X194222666Y-72908390D02*
X194222666Y-73051247D01*
X194222666Y-73051247D02*
X194270285Y-73241723D01*
X194270285Y-73241723D02*
X194317904Y-73336961D01*
X194317904Y-73336961D02*
X194413142Y-73432200D01*
X194413142Y-73432200D02*
X194555999Y-73479819D01*
X194555999Y-73479819D02*
X194794094Y-73479819D01*
X193603618Y-72479819D02*
X193508380Y-72479819D01*
X193508380Y-72479819D02*
X193413142Y-72527438D01*
X193413142Y-72527438D02*
X193365523Y-72575057D01*
X193365523Y-72575057D02*
X193317904Y-72670295D01*
X193317904Y-72670295D02*
X193270285Y-72860771D01*
X193270285Y-72860771D02*
X193270285Y-73098866D01*
X193270285Y-73098866D02*
X193317904Y-73289342D01*
X193317904Y-73289342D02*
X193365523Y-73384580D01*
X193365523Y-73384580D02*
X193413142Y-73432200D01*
X193413142Y-73432200D02*
X193508380Y-73479819D01*
X193508380Y-73479819D02*
X193603618Y-73479819D01*
X193603618Y-73479819D02*
X193698856Y-73432200D01*
X193698856Y-73432200D02*
X193746475Y-73384580D01*
X193746475Y-73384580D02*
X193794094Y-73289342D01*
X193794094Y-73289342D02*
X193841713Y-73098866D01*
X193841713Y-73098866D02*
X193841713Y-72860771D01*
X193841713Y-72860771D02*
X193794094Y-72670295D01*
X193794094Y-72670295D02*
X193746475Y-72575057D01*
X193746475Y-72575057D02*
X193698856Y-72527438D01*
X193698856Y-72527438D02*
X193603618Y-72479819D01*
M02*
