%TF.GenerationSoftware,KiCad,Pcbnew,8.0.6*%
%TF.CreationDate,2025-01-09T18:28:26-05:00*%
%TF.ProjectId,ESP32_ENCODERS,45535033-325f-4454-9e43-4f444552532e,rev?*%
%TF.SameCoordinates,Original*%
%TF.FileFunction,Legend,Top*%
%TF.FilePolarity,Positive*%
%FSLAX46Y46*%
G04 Gerber Fmt 4.6, Leading zero omitted, Abs format (unit mm)*
G04 Created by KiCad (PCBNEW 8.0.6) date 2025-01-09 18:28:26*
%MOMM*%
%LPD*%
G01*
G04 APERTURE LIST*
G04 Aperture macros list*
%AMRoundRect*
0 Rectangle with rounded corners*
0 $1 Rounding radius*
0 $2 $3 $4 $5 $6 $7 $8 $9 X,Y pos of 4 corners*
0 Add a 4 corners polygon primitive as box body*
4,1,4,$2,$3,$4,$5,$6,$7,$8,$9,$2,$3,0*
0 Add four circle primitives for the rounded corners*
1,1,$1+$1,$2,$3*
1,1,$1+$1,$4,$5*
1,1,$1+$1,$6,$7*
1,1,$1+$1,$8,$9*
0 Add four rect primitives between the rounded corners*
20,1,$1+$1,$2,$3,$4,$5,0*
20,1,$1+$1,$4,$5,$6,$7,0*
20,1,$1+$1,$6,$7,$8,$9,0*
20,1,$1+$1,$8,$9,$2,$3,0*%
G04 Aperture macros list end*
%ADD10C,0.150000*%
%ADD11C,0.120000*%
%ADD12C,0.200000*%
%ADD13C,0.127000*%
%ADD14C,3.800000*%
%ADD15O,1.700000X1.950000*%
%ADD16RoundRect,0.250000X0.600000X0.725000X-0.600000X0.725000X-0.600000X-0.725000X0.600000X-0.725000X0*%
%ADD17O,1.950000X1.700000*%
%ADD18RoundRect,0.250000X0.725000X-0.600000X0.725000X0.600000X-0.725000X0.600000X-0.725000X-0.600000X0*%
%ADD19RoundRect,0.250000X-0.725000X0.600000X-0.725000X-0.600000X0.725000X-0.600000X0.725000X0.600000X0*%
%ADD20C,2.000000*%
%ADD21R,2.000000X2.000000*%
G04 APERTURE END LIST*
D10*
X128778095Y-88444819D02*
X128778095Y-87444819D01*
X128778095Y-87921009D02*
X129349523Y-87921009D01*
X129349523Y-88444819D02*
X129349523Y-87444819D01*
X130254285Y-87778152D02*
X130254285Y-88444819D01*
X130016190Y-87397200D02*
X129778095Y-88111485D01*
X129778095Y-88111485D02*
X130397142Y-88111485D01*
X102989524Y-82481009D02*
X103322857Y-82481009D01*
X103465714Y-83004819D02*
X102989524Y-83004819D01*
X102989524Y-83004819D02*
X102989524Y-82004819D01*
X102989524Y-82004819D02*
X103465714Y-82004819D01*
X103894286Y-83004819D02*
X103894286Y-82004819D01*
X103894286Y-82004819D02*
X104465714Y-83004819D01*
X104465714Y-83004819D02*
X104465714Y-82004819D01*
X105513333Y-82909580D02*
X105465714Y-82957200D01*
X105465714Y-82957200D02*
X105322857Y-83004819D01*
X105322857Y-83004819D02*
X105227619Y-83004819D01*
X105227619Y-83004819D02*
X105084762Y-82957200D01*
X105084762Y-82957200D02*
X104989524Y-82861961D01*
X104989524Y-82861961D02*
X104941905Y-82766723D01*
X104941905Y-82766723D02*
X104894286Y-82576247D01*
X104894286Y-82576247D02*
X104894286Y-82433390D01*
X104894286Y-82433390D02*
X104941905Y-82242914D01*
X104941905Y-82242914D02*
X104989524Y-82147676D01*
X104989524Y-82147676D02*
X105084762Y-82052438D01*
X105084762Y-82052438D02*
X105227619Y-82004819D01*
X105227619Y-82004819D02*
X105322857Y-82004819D01*
X105322857Y-82004819D02*
X105465714Y-82052438D01*
X105465714Y-82052438D02*
X105513333Y-82100057D01*
X106132381Y-82004819D02*
X106322857Y-82004819D01*
X106322857Y-82004819D02*
X106418095Y-82052438D01*
X106418095Y-82052438D02*
X106513333Y-82147676D01*
X106513333Y-82147676D02*
X106560952Y-82338152D01*
X106560952Y-82338152D02*
X106560952Y-82671485D01*
X106560952Y-82671485D02*
X106513333Y-82861961D01*
X106513333Y-82861961D02*
X106418095Y-82957200D01*
X106418095Y-82957200D02*
X106322857Y-83004819D01*
X106322857Y-83004819D02*
X106132381Y-83004819D01*
X106132381Y-83004819D02*
X106037143Y-82957200D01*
X106037143Y-82957200D02*
X105941905Y-82861961D01*
X105941905Y-82861961D02*
X105894286Y-82671485D01*
X105894286Y-82671485D02*
X105894286Y-82338152D01*
X105894286Y-82338152D02*
X105941905Y-82147676D01*
X105941905Y-82147676D02*
X106037143Y-82052438D01*
X106037143Y-82052438D02*
X106132381Y-82004819D01*
X106989524Y-83004819D02*
X106989524Y-82004819D01*
X106989524Y-82004819D02*
X107227619Y-82004819D01*
X107227619Y-82004819D02*
X107370476Y-82052438D01*
X107370476Y-82052438D02*
X107465714Y-82147676D01*
X107465714Y-82147676D02*
X107513333Y-82242914D01*
X107513333Y-82242914D02*
X107560952Y-82433390D01*
X107560952Y-82433390D02*
X107560952Y-82576247D01*
X107560952Y-82576247D02*
X107513333Y-82766723D01*
X107513333Y-82766723D02*
X107465714Y-82861961D01*
X107465714Y-82861961D02*
X107370476Y-82957200D01*
X107370476Y-82957200D02*
X107227619Y-83004819D01*
X107227619Y-83004819D02*
X106989524Y-83004819D01*
X107989524Y-82481009D02*
X108322857Y-82481009D01*
X108465714Y-83004819D02*
X107989524Y-83004819D01*
X107989524Y-83004819D02*
X107989524Y-82004819D01*
X107989524Y-82004819D02*
X108465714Y-82004819D01*
X109465714Y-83004819D02*
X109132381Y-82528628D01*
X108894286Y-83004819D02*
X108894286Y-82004819D01*
X108894286Y-82004819D02*
X109275238Y-82004819D01*
X109275238Y-82004819D02*
X109370476Y-82052438D01*
X109370476Y-82052438D02*
X109418095Y-82100057D01*
X109418095Y-82100057D02*
X109465714Y-82195295D01*
X109465714Y-82195295D02*
X109465714Y-82338152D01*
X109465714Y-82338152D02*
X109418095Y-82433390D01*
X109418095Y-82433390D02*
X109370476Y-82481009D01*
X109370476Y-82481009D02*
X109275238Y-82528628D01*
X109275238Y-82528628D02*
X108894286Y-82528628D01*
X110322857Y-82338152D02*
X110322857Y-83004819D01*
X110084762Y-81957200D02*
X109846667Y-82671485D01*
X109846667Y-82671485D02*
X110465714Y-82671485D01*
X83939524Y-82481009D02*
X84272857Y-82481009D01*
X84415714Y-83004819D02*
X83939524Y-83004819D01*
X83939524Y-83004819D02*
X83939524Y-82004819D01*
X83939524Y-82004819D02*
X84415714Y-82004819D01*
X84844286Y-83004819D02*
X84844286Y-82004819D01*
X84844286Y-82004819D02*
X85415714Y-83004819D01*
X85415714Y-83004819D02*
X85415714Y-82004819D01*
X86463333Y-82909580D02*
X86415714Y-82957200D01*
X86415714Y-82957200D02*
X86272857Y-83004819D01*
X86272857Y-83004819D02*
X86177619Y-83004819D01*
X86177619Y-83004819D02*
X86034762Y-82957200D01*
X86034762Y-82957200D02*
X85939524Y-82861961D01*
X85939524Y-82861961D02*
X85891905Y-82766723D01*
X85891905Y-82766723D02*
X85844286Y-82576247D01*
X85844286Y-82576247D02*
X85844286Y-82433390D01*
X85844286Y-82433390D02*
X85891905Y-82242914D01*
X85891905Y-82242914D02*
X85939524Y-82147676D01*
X85939524Y-82147676D02*
X86034762Y-82052438D01*
X86034762Y-82052438D02*
X86177619Y-82004819D01*
X86177619Y-82004819D02*
X86272857Y-82004819D01*
X86272857Y-82004819D02*
X86415714Y-82052438D01*
X86415714Y-82052438D02*
X86463333Y-82100057D01*
X87082381Y-82004819D02*
X87272857Y-82004819D01*
X87272857Y-82004819D02*
X87368095Y-82052438D01*
X87368095Y-82052438D02*
X87463333Y-82147676D01*
X87463333Y-82147676D02*
X87510952Y-82338152D01*
X87510952Y-82338152D02*
X87510952Y-82671485D01*
X87510952Y-82671485D02*
X87463333Y-82861961D01*
X87463333Y-82861961D02*
X87368095Y-82957200D01*
X87368095Y-82957200D02*
X87272857Y-83004819D01*
X87272857Y-83004819D02*
X87082381Y-83004819D01*
X87082381Y-83004819D02*
X86987143Y-82957200D01*
X86987143Y-82957200D02*
X86891905Y-82861961D01*
X86891905Y-82861961D02*
X86844286Y-82671485D01*
X86844286Y-82671485D02*
X86844286Y-82338152D01*
X86844286Y-82338152D02*
X86891905Y-82147676D01*
X86891905Y-82147676D02*
X86987143Y-82052438D01*
X86987143Y-82052438D02*
X87082381Y-82004819D01*
X87939524Y-83004819D02*
X87939524Y-82004819D01*
X87939524Y-82004819D02*
X88177619Y-82004819D01*
X88177619Y-82004819D02*
X88320476Y-82052438D01*
X88320476Y-82052438D02*
X88415714Y-82147676D01*
X88415714Y-82147676D02*
X88463333Y-82242914D01*
X88463333Y-82242914D02*
X88510952Y-82433390D01*
X88510952Y-82433390D02*
X88510952Y-82576247D01*
X88510952Y-82576247D02*
X88463333Y-82766723D01*
X88463333Y-82766723D02*
X88415714Y-82861961D01*
X88415714Y-82861961D02*
X88320476Y-82957200D01*
X88320476Y-82957200D02*
X88177619Y-83004819D01*
X88177619Y-83004819D02*
X87939524Y-83004819D01*
X88939524Y-82481009D02*
X89272857Y-82481009D01*
X89415714Y-83004819D02*
X88939524Y-83004819D01*
X88939524Y-83004819D02*
X88939524Y-82004819D01*
X88939524Y-82004819D02*
X89415714Y-82004819D01*
X90415714Y-83004819D02*
X90082381Y-82528628D01*
X89844286Y-83004819D02*
X89844286Y-82004819D01*
X89844286Y-82004819D02*
X90225238Y-82004819D01*
X90225238Y-82004819D02*
X90320476Y-82052438D01*
X90320476Y-82052438D02*
X90368095Y-82100057D01*
X90368095Y-82100057D02*
X90415714Y-82195295D01*
X90415714Y-82195295D02*
X90415714Y-82338152D01*
X90415714Y-82338152D02*
X90368095Y-82433390D01*
X90368095Y-82433390D02*
X90320476Y-82481009D01*
X90320476Y-82481009D02*
X90225238Y-82528628D01*
X90225238Y-82528628D02*
X89844286Y-82528628D01*
X90749048Y-82004819D02*
X91368095Y-82004819D01*
X91368095Y-82004819D02*
X91034762Y-82385771D01*
X91034762Y-82385771D02*
X91177619Y-82385771D01*
X91177619Y-82385771D02*
X91272857Y-82433390D01*
X91272857Y-82433390D02*
X91320476Y-82481009D01*
X91320476Y-82481009D02*
X91368095Y-82576247D01*
X91368095Y-82576247D02*
X91368095Y-82814342D01*
X91368095Y-82814342D02*
X91320476Y-82909580D01*
X91320476Y-82909580D02*
X91272857Y-82957200D01*
X91272857Y-82957200D02*
X91177619Y-83004819D01*
X91177619Y-83004819D02*
X90891905Y-83004819D01*
X90891905Y-83004819D02*
X90796667Y-82957200D01*
X90796667Y-82957200D02*
X90749048Y-82909580D01*
X58071009Y-64630475D02*
X58071009Y-64297142D01*
X58594819Y-64154285D02*
X58594819Y-64630475D01*
X58594819Y-64630475D02*
X57594819Y-64630475D01*
X57594819Y-64630475D02*
X57594819Y-64154285D01*
X58594819Y-63725713D02*
X57594819Y-63725713D01*
X57594819Y-63725713D02*
X58594819Y-63154285D01*
X58594819Y-63154285D02*
X57594819Y-63154285D01*
X58499580Y-62106666D02*
X58547200Y-62154285D01*
X58547200Y-62154285D02*
X58594819Y-62297142D01*
X58594819Y-62297142D02*
X58594819Y-62392380D01*
X58594819Y-62392380D02*
X58547200Y-62535237D01*
X58547200Y-62535237D02*
X58451961Y-62630475D01*
X58451961Y-62630475D02*
X58356723Y-62678094D01*
X58356723Y-62678094D02*
X58166247Y-62725713D01*
X58166247Y-62725713D02*
X58023390Y-62725713D01*
X58023390Y-62725713D02*
X57832914Y-62678094D01*
X57832914Y-62678094D02*
X57737676Y-62630475D01*
X57737676Y-62630475D02*
X57642438Y-62535237D01*
X57642438Y-62535237D02*
X57594819Y-62392380D01*
X57594819Y-62392380D02*
X57594819Y-62297142D01*
X57594819Y-62297142D02*
X57642438Y-62154285D01*
X57642438Y-62154285D02*
X57690057Y-62106666D01*
X57594819Y-61487618D02*
X57594819Y-61297142D01*
X57594819Y-61297142D02*
X57642438Y-61201904D01*
X57642438Y-61201904D02*
X57737676Y-61106666D01*
X57737676Y-61106666D02*
X57928152Y-61059047D01*
X57928152Y-61059047D02*
X58261485Y-61059047D01*
X58261485Y-61059047D02*
X58451961Y-61106666D01*
X58451961Y-61106666D02*
X58547200Y-61201904D01*
X58547200Y-61201904D02*
X58594819Y-61297142D01*
X58594819Y-61297142D02*
X58594819Y-61487618D01*
X58594819Y-61487618D02*
X58547200Y-61582856D01*
X58547200Y-61582856D02*
X58451961Y-61678094D01*
X58451961Y-61678094D02*
X58261485Y-61725713D01*
X58261485Y-61725713D02*
X57928152Y-61725713D01*
X57928152Y-61725713D02*
X57737676Y-61678094D01*
X57737676Y-61678094D02*
X57642438Y-61582856D01*
X57642438Y-61582856D02*
X57594819Y-61487618D01*
X58594819Y-60630475D02*
X57594819Y-60630475D01*
X57594819Y-60630475D02*
X57594819Y-60392380D01*
X57594819Y-60392380D02*
X57642438Y-60249523D01*
X57642438Y-60249523D02*
X57737676Y-60154285D01*
X57737676Y-60154285D02*
X57832914Y-60106666D01*
X57832914Y-60106666D02*
X58023390Y-60059047D01*
X58023390Y-60059047D02*
X58166247Y-60059047D01*
X58166247Y-60059047D02*
X58356723Y-60106666D01*
X58356723Y-60106666D02*
X58451961Y-60154285D01*
X58451961Y-60154285D02*
X58547200Y-60249523D01*
X58547200Y-60249523D02*
X58594819Y-60392380D01*
X58594819Y-60392380D02*
X58594819Y-60630475D01*
X58071009Y-59630475D02*
X58071009Y-59297142D01*
X58594819Y-59154285D02*
X58594819Y-59630475D01*
X58594819Y-59630475D02*
X57594819Y-59630475D01*
X57594819Y-59630475D02*
X57594819Y-59154285D01*
X58594819Y-58154285D02*
X58118628Y-58487618D01*
X58594819Y-58725713D02*
X57594819Y-58725713D01*
X57594819Y-58725713D02*
X57594819Y-58344761D01*
X57594819Y-58344761D02*
X57642438Y-58249523D01*
X57642438Y-58249523D02*
X57690057Y-58201904D01*
X57690057Y-58201904D02*
X57785295Y-58154285D01*
X57785295Y-58154285D02*
X57928152Y-58154285D01*
X57928152Y-58154285D02*
X58023390Y-58201904D01*
X58023390Y-58201904D02*
X58071009Y-58249523D01*
X58071009Y-58249523D02*
X58118628Y-58344761D01*
X58118628Y-58344761D02*
X58118628Y-58725713D01*
X57690057Y-57773332D02*
X57642438Y-57725713D01*
X57642438Y-57725713D02*
X57594819Y-57630475D01*
X57594819Y-57630475D02*
X57594819Y-57392380D01*
X57594819Y-57392380D02*
X57642438Y-57297142D01*
X57642438Y-57297142D02*
X57690057Y-57249523D01*
X57690057Y-57249523D02*
X57785295Y-57201904D01*
X57785295Y-57201904D02*
X57880533Y-57201904D01*
X57880533Y-57201904D02*
X58023390Y-57249523D01*
X58023390Y-57249523D02*
X58594819Y-57820951D01*
X58594819Y-57820951D02*
X58594819Y-57201904D01*
X58071009Y-81100475D02*
X58071009Y-80767142D01*
X58594819Y-80624285D02*
X58594819Y-81100475D01*
X58594819Y-81100475D02*
X57594819Y-81100475D01*
X57594819Y-81100475D02*
X57594819Y-80624285D01*
X58594819Y-80195713D02*
X57594819Y-80195713D01*
X57594819Y-80195713D02*
X58594819Y-79624285D01*
X58594819Y-79624285D02*
X57594819Y-79624285D01*
X58499580Y-78576666D02*
X58547200Y-78624285D01*
X58547200Y-78624285D02*
X58594819Y-78767142D01*
X58594819Y-78767142D02*
X58594819Y-78862380D01*
X58594819Y-78862380D02*
X58547200Y-79005237D01*
X58547200Y-79005237D02*
X58451961Y-79100475D01*
X58451961Y-79100475D02*
X58356723Y-79148094D01*
X58356723Y-79148094D02*
X58166247Y-79195713D01*
X58166247Y-79195713D02*
X58023390Y-79195713D01*
X58023390Y-79195713D02*
X57832914Y-79148094D01*
X57832914Y-79148094D02*
X57737676Y-79100475D01*
X57737676Y-79100475D02*
X57642438Y-79005237D01*
X57642438Y-79005237D02*
X57594819Y-78862380D01*
X57594819Y-78862380D02*
X57594819Y-78767142D01*
X57594819Y-78767142D02*
X57642438Y-78624285D01*
X57642438Y-78624285D02*
X57690057Y-78576666D01*
X57594819Y-77957618D02*
X57594819Y-77767142D01*
X57594819Y-77767142D02*
X57642438Y-77671904D01*
X57642438Y-77671904D02*
X57737676Y-77576666D01*
X57737676Y-77576666D02*
X57928152Y-77529047D01*
X57928152Y-77529047D02*
X58261485Y-77529047D01*
X58261485Y-77529047D02*
X58451961Y-77576666D01*
X58451961Y-77576666D02*
X58547200Y-77671904D01*
X58547200Y-77671904D02*
X58594819Y-77767142D01*
X58594819Y-77767142D02*
X58594819Y-77957618D01*
X58594819Y-77957618D02*
X58547200Y-78052856D01*
X58547200Y-78052856D02*
X58451961Y-78148094D01*
X58451961Y-78148094D02*
X58261485Y-78195713D01*
X58261485Y-78195713D02*
X57928152Y-78195713D01*
X57928152Y-78195713D02*
X57737676Y-78148094D01*
X57737676Y-78148094D02*
X57642438Y-78052856D01*
X57642438Y-78052856D02*
X57594819Y-77957618D01*
X58594819Y-77100475D02*
X57594819Y-77100475D01*
X57594819Y-77100475D02*
X57594819Y-76862380D01*
X57594819Y-76862380D02*
X57642438Y-76719523D01*
X57642438Y-76719523D02*
X57737676Y-76624285D01*
X57737676Y-76624285D02*
X57832914Y-76576666D01*
X57832914Y-76576666D02*
X58023390Y-76529047D01*
X58023390Y-76529047D02*
X58166247Y-76529047D01*
X58166247Y-76529047D02*
X58356723Y-76576666D01*
X58356723Y-76576666D02*
X58451961Y-76624285D01*
X58451961Y-76624285D02*
X58547200Y-76719523D01*
X58547200Y-76719523D02*
X58594819Y-76862380D01*
X58594819Y-76862380D02*
X58594819Y-77100475D01*
X58071009Y-76100475D02*
X58071009Y-75767142D01*
X58594819Y-75624285D02*
X58594819Y-76100475D01*
X58594819Y-76100475D02*
X57594819Y-76100475D01*
X57594819Y-76100475D02*
X57594819Y-75624285D01*
X58594819Y-74624285D02*
X58118628Y-74957618D01*
X58594819Y-75195713D02*
X57594819Y-75195713D01*
X57594819Y-75195713D02*
X57594819Y-74814761D01*
X57594819Y-74814761D02*
X57642438Y-74719523D01*
X57642438Y-74719523D02*
X57690057Y-74671904D01*
X57690057Y-74671904D02*
X57785295Y-74624285D01*
X57785295Y-74624285D02*
X57928152Y-74624285D01*
X57928152Y-74624285D02*
X58023390Y-74671904D01*
X58023390Y-74671904D02*
X58071009Y-74719523D01*
X58071009Y-74719523D02*
X58118628Y-74814761D01*
X58118628Y-74814761D02*
X58118628Y-75195713D01*
X58594819Y-73671904D02*
X58594819Y-74243332D01*
X58594819Y-73957618D02*
X57594819Y-73957618D01*
X57594819Y-73957618D02*
X57737676Y-74052856D01*
X57737676Y-74052856D02*
X57832914Y-74148094D01*
X57832914Y-74148094D02*
X57880533Y-74243332D01*
X130537200Y-70027618D02*
X130584819Y-69884761D01*
X130584819Y-69884761D02*
X130584819Y-69646666D01*
X130584819Y-69646666D02*
X130537200Y-69551428D01*
X130537200Y-69551428D02*
X130489580Y-69503809D01*
X130489580Y-69503809D02*
X130394342Y-69456190D01*
X130394342Y-69456190D02*
X130299104Y-69456190D01*
X130299104Y-69456190D02*
X130203866Y-69503809D01*
X130203866Y-69503809D02*
X130156247Y-69551428D01*
X130156247Y-69551428D02*
X130108628Y-69646666D01*
X130108628Y-69646666D02*
X130061009Y-69837142D01*
X130061009Y-69837142D02*
X130013390Y-69932380D01*
X130013390Y-69932380D02*
X129965771Y-69979999D01*
X129965771Y-69979999D02*
X129870533Y-70027618D01*
X129870533Y-70027618D02*
X129775295Y-70027618D01*
X129775295Y-70027618D02*
X129680057Y-69979999D01*
X129680057Y-69979999D02*
X129632438Y-69932380D01*
X129632438Y-69932380D02*
X129584819Y-69837142D01*
X129584819Y-69837142D02*
X129584819Y-69599047D01*
X129584819Y-69599047D02*
X129632438Y-69456190D01*
X130537200Y-68646666D02*
X130584819Y-68741904D01*
X130584819Y-68741904D02*
X130584819Y-68932380D01*
X130584819Y-68932380D02*
X130537200Y-69027618D01*
X130537200Y-69027618D02*
X130441961Y-69075237D01*
X130441961Y-69075237D02*
X130061009Y-69075237D01*
X130061009Y-69075237D02*
X129965771Y-69027618D01*
X129965771Y-69027618D02*
X129918152Y-68932380D01*
X129918152Y-68932380D02*
X129918152Y-68741904D01*
X129918152Y-68741904D02*
X129965771Y-68646666D01*
X129965771Y-68646666D02*
X130061009Y-68599047D01*
X130061009Y-68599047D02*
X130156247Y-68599047D01*
X130156247Y-68599047D02*
X130251485Y-69075237D01*
X130584819Y-68170475D02*
X129918152Y-68170475D01*
X130108628Y-68170475D02*
X130013390Y-68122856D01*
X130013390Y-68122856D02*
X129965771Y-68075237D01*
X129965771Y-68075237D02*
X129918152Y-67979999D01*
X129918152Y-67979999D02*
X129918152Y-67884761D01*
X130584819Y-67551427D02*
X129918152Y-67551427D01*
X129584819Y-67551427D02*
X129632438Y-67599046D01*
X129632438Y-67599046D02*
X129680057Y-67551427D01*
X129680057Y-67551427D02*
X129632438Y-67503808D01*
X129632438Y-67503808D02*
X129584819Y-67551427D01*
X129584819Y-67551427D02*
X129680057Y-67551427D01*
X130584819Y-66646666D02*
X130061009Y-66646666D01*
X130061009Y-66646666D02*
X129965771Y-66694285D01*
X129965771Y-66694285D02*
X129918152Y-66789523D01*
X129918152Y-66789523D02*
X129918152Y-66979999D01*
X129918152Y-66979999D02*
X129965771Y-67075237D01*
X130537200Y-66646666D02*
X130584819Y-66741904D01*
X130584819Y-66741904D02*
X130584819Y-66979999D01*
X130584819Y-66979999D02*
X130537200Y-67075237D01*
X130537200Y-67075237D02*
X130441961Y-67122856D01*
X130441961Y-67122856D02*
X130346723Y-67122856D01*
X130346723Y-67122856D02*
X130251485Y-67075237D01*
X130251485Y-67075237D02*
X130203866Y-66979999D01*
X130203866Y-66979999D02*
X130203866Y-66741904D01*
X130203866Y-66741904D02*
X130156247Y-66646666D01*
X130584819Y-66027618D02*
X130537200Y-66122856D01*
X130537200Y-66122856D02*
X130441961Y-66170475D01*
X130441961Y-66170475D02*
X129584819Y-66170475D01*
X130489580Y-65075237D02*
X130537200Y-65122856D01*
X130537200Y-65122856D02*
X130584819Y-65265713D01*
X130584819Y-65265713D02*
X130584819Y-65360951D01*
X130584819Y-65360951D02*
X130537200Y-65503808D01*
X130537200Y-65503808D02*
X130441961Y-65599046D01*
X130441961Y-65599046D02*
X130346723Y-65646665D01*
X130346723Y-65646665D02*
X130156247Y-65694284D01*
X130156247Y-65694284D02*
X130013390Y-65694284D01*
X130013390Y-65694284D02*
X129822914Y-65646665D01*
X129822914Y-65646665D02*
X129727676Y-65599046D01*
X129727676Y-65599046D02*
X129632438Y-65503808D01*
X129632438Y-65503808D02*
X129584819Y-65360951D01*
X129584819Y-65360951D02*
X129584819Y-65265713D01*
X129584819Y-65265713D02*
X129632438Y-65122856D01*
X129632438Y-65122856D02*
X129680057Y-65075237D01*
X129584819Y-64456189D02*
X129584819Y-64265713D01*
X129584819Y-64265713D02*
X129632438Y-64170475D01*
X129632438Y-64170475D02*
X129727676Y-64075237D01*
X129727676Y-64075237D02*
X129918152Y-64027618D01*
X129918152Y-64027618D02*
X130251485Y-64027618D01*
X130251485Y-64027618D02*
X130441961Y-64075237D01*
X130441961Y-64075237D02*
X130537200Y-64170475D01*
X130537200Y-64170475D02*
X130584819Y-64265713D01*
X130584819Y-64265713D02*
X130584819Y-64456189D01*
X130584819Y-64456189D02*
X130537200Y-64551427D01*
X130537200Y-64551427D02*
X130441961Y-64646665D01*
X130441961Y-64646665D02*
X130251485Y-64694284D01*
X130251485Y-64694284D02*
X129918152Y-64694284D01*
X129918152Y-64694284D02*
X129727676Y-64646665D01*
X129727676Y-64646665D02*
X129632438Y-64551427D01*
X129632438Y-64551427D02*
X129584819Y-64456189D01*
X130584819Y-63599046D02*
X129584819Y-63599046D01*
X129584819Y-63599046D02*
X130299104Y-63265713D01*
X130299104Y-63265713D02*
X129584819Y-62932380D01*
X129584819Y-62932380D02*
X130584819Y-62932380D01*
X130584819Y-61932380D02*
X130584819Y-62503808D01*
X130584819Y-62218094D02*
X129584819Y-62218094D01*
X129584819Y-62218094D02*
X129727676Y-62313332D01*
X129727676Y-62313332D02*
X129822914Y-62408570D01*
X129822914Y-62408570D02*
X129870533Y-62503808D01*
X58928095Y-49074819D02*
X58928095Y-48074819D01*
X58928095Y-48551009D02*
X59499523Y-48551009D01*
X59499523Y-49074819D02*
X59499523Y-48074819D01*
X60499523Y-49074819D02*
X59928095Y-49074819D01*
X60213809Y-49074819D02*
X60213809Y-48074819D01*
X60213809Y-48074819D02*
X60118571Y-48217676D01*
X60118571Y-48217676D02*
X60023333Y-48312914D01*
X60023333Y-48312914D02*
X59928095Y-48360533D01*
X128778095Y-49074819D02*
X128778095Y-48074819D01*
X128778095Y-48551009D02*
X129349523Y-48551009D01*
X129349523Y-49074819D02*
X129349523Y-48074819D01*
X129778095Y-48170057D02*
X129825714Y-48122438D01*
X129825714Y-48122438D02*
X129920952Y-48074819D01*
X129920952Y-48074819D02*
X130159047Y-48074819D01*
X130159047Y-48074819D02*
X130254285Y-48122438D01*
X130254285Y-48122438D02*
X130301904Y-48170057D01*
X130301904Y-48170057D02*
X130349523Y-48265295D01*
X130349523Y-48265295D02*
X130349523Y-48360533D01*
X130349523Y-48360533D02*
X130301904Y-48503390D01*
X130301904Y-48503390D02*
X129730476Y-49074819D01*
X129730476Y-49074819D02*
X130349523Y-49074819D01*
X58928095Y-88444819D02*
X58928095Y-87444819D01*
X58928095Y-87921009D02*
X59499523Y-87921009D01*
X59499523Y-88444819D02*
X59499523Y-87444819D01*
X59880476Y-87444819D02*
X60499523Y-87444819D01*
X60499523Y-87444819D02*
X60166190Y-87825771D01*
X60166190Y-87825771D02*
X60309047Y-87825771D01*
X60309047Y-87825771D02*
X60404285Y-87873390D01*
X60404285Y-87873390D02*
X60451904Y-87921009D01*
X60451904Y-87921009D02*
X60499523Y-88016247D01*
X60499523Y-88016247D02*
X60499523Y-88254342D01*
X60499523Y-88254342D02*
X60451904Y-88349580D01*
X60451904Y-88349580D02*
X60404285Y-88397200D01*
X60404285Y-88397200D02*
X60309047Y-88444819D01*
X60309047Y-88444819D02*
X60023333Y-88444819D01*
X60023333Y-88444819D02*
X59928095Y-88397200D01*
X59928095Y-88397200D02*
X59880476Y-88349580D01*
D11*
%TO.C,ENCODER4*%
X100320000Y-84750000D02*
X101540000Y-84750000D01*
X100320000Y-91950000D02*
X101540000Y-91950000D01*
X100320000Y-93170000D02*
X100320000Y-84750000D01*
X101540000Y-84750000D02*
X101540000Y-86950000D01*
X101540000Y-86950000D02*
X100320000Y-86950000D01*
X101540000Y-91950000D02*
X101540000Y-86950000D01*
X102610000Y-87950000D02*
X102930000Y-87950000D01*
X102610000Y-91370000D02*
X102610000Y-87950000D01*
X102930000Y-87950000D02*
X103250000Y-87950000D01*
X102930000Y-91450000D02*
X102610000Y-91370000D01*
X103250000Y-87950000D02*
X103250000Y-91370000D01*
X103250000Y-91370000D02*
X102930000Y-91450000D01*
X104260000Y-86950000D02*
X104100000Y-86950000D01*
X105110000Y-87950000D02*
X105430000Y-87950000D01*
X105110000Y-91370000D02*
X105110000Y-87950000D01*
X105430000Y-87950000D02*
X105750000Y-87950000D01*
X105430000Y-91450000D02*
X105110000Y-91370000D01*
X105750000Y-87950000D02*
X105750000Y-91370000D01*
X105750000Y-91370000D02*
X105430000Y-91450000D01*
X106760000Y-86950000D02*
X106600000Y-86950000D01*
X107610000Y-87950000D02*
X107930000Y-87950000D01*
X107610000Y-91370000D02*
X107610000Y-87950000D01*
X107930000Y-87950000D02*
X108250000Y-87950000D01*
X107930000Y-91450000D02*
X107610000Y-91370000D01*
X108250000Y-87950000D02*
X108250000Y-91370000D01*
X108250000Y-91370000D02*
X107930000Y-91450000D01*
X109260000Y-86950000D02*
X109100000Y-86950000D01*
X110110000Y-87950000D02*
X110430000Y-87950000D01*
X110110000Y-91370000D02*
X110110000Y-87950000D01*
X110130000Y-84260000D02*
X110430000Y-84860000D01*
X110430000Y-84860000D02*
X110730000Y-84260000D01*
X110430000Y-87950000D02*
X110750000Y-87950000D01*
X110430000Y-91450000D02*
X110110000Y-91370000D01*
X110730000Y-84260000D02*
X110130000Y-84260000D01*
X110750000Y-87950000D02*
X110750000Y-91370000D01*
X110750000Y-91370000D02*
X110430000Y-91450000D01*
X111820000Y-84750000D02*
X113040000Y-84750000D01*
X111820000Y-86950000D02*
X111820000Y-84750000D01*
X111820000Y-86950000D02*
X113040000Y-86950000D01*
X111820000Y-87950000D02*
X101540000Y-87950000D01*
X111820000Y-91950000D02*
X111820000Y-86950000D01*
X113040000Y-84750000D02*
X113040000Y-93170000D01*
X113040000Y-91950000D02*
X111820000Y-91950000D01*
X113040000Y-93170000D02*
X100320000Y-93170000D01*
%TO.C,ENCODER3*%
X81210000Y-84750000D02*
X82430000Y-84750000D01*
X81210000Y-91950000D02*
X82430000Y-91950000D01*
X81210000Y-93170000D02*
X81210000Y-84750000D01*
X82430000Y-84750000D02*
X82430000Y-86950000D01*
X82430000Y-86950000D02*
X81210000Y-86950000D01*
X82430000Y-91950000D02*
X82430000Y-86950000D01*
X83500000Y-87950000D02*
X83820000Y-87950000D01*
X83500000Y-91370000D02*
X83500000Y-87950000D01*
X83820000Y-87950000D02*
X84140000Y-87950000D01*
X83820000Y-91450000D02*
X83500000Y-91370000D01*
X84140000Y-87950000D02*
X84140000Y-91370000D01*
X84140000Y-91370000D02*
X83820000Y-91450000D01*
X85150000Y-86950000D02*
X84990000Y-86950000D01*
X86000000Y-87950000D02*
X86320000Y-87950000D01*
X86000000Y-91370000D02*
X86000000Y-87950000D01*
X86320000Y-87950000D02*
X86640000Y-87950000D01*
X86320000Y-91450000D02*
X86000000Y-91370000D01*
X86640000Y-87950000D02*
X86640000Y-91370000D01*
X86640000Y-91370000D02*
X86320000Y-91450000D01*
X87650000Y-86950000D02*
X87490000Y-86950000D01*
X88500000Y-87950000D02*
X88820000Y-87950000D01*
X88500000Y-91370000D02*
X88500000Y-87950000D01*
X88820000Y-87950000D02*
X89140000Y-87950000D01*
X88820000Y-91450000D02*
X88500000Y-91370000D01*
X89140000Y-87950000D02*
X89140000Y-91370000D01*
X89140000Y-91370000D02*
X88820000Y-91450000D01*
X90150000Y-86950000D02*
X89990000Y-86950000D01*
X91000000Y-87950000D02*
X91320000Y-87950000D01*
X91000000Y-91370000D02*
X91000000Y-87950000D01*
X91020000Y-84260000D02*
X91320000Y-84860000D01*
X91320000Y-84860000D02*
X91620000Y-84260000D01*
X91320000Y-87950000D02*
X91640000Y-87950000D01*
X91320000Y-91450000D02*
X91000000Y-91370000D01*
X91620000Y-84260000D02*
X91020000Y-84260000D01*
X91640000Y-87950000D02*
X91640000Y-91370000D01*
X91640000Y-91370000D02*
X91320000Y-91450000D01*
X92710000Y-84750000D02*
X93930000Y-84750000D01*
X92710000Y-86950000D02*
X92710000Y-84750000D01*
X92710000Y-86950000D02*
X93930000Y-86950000D01*
X92710000Y-87950000D02*
X82430000Y-87950000D01*
X92710000Y-91950000D02*
X92710000Y-86950000D01*
X93930000Y-84750000D02*
X93930000Y-93170000D01*
X93930000Y-91950000D02*
X92710000Y-91950000D01*
X93930000Y-93170000D02*
X81210000Y-93170000D01*
%TO.C,ENCODER2*%
X67650000Y-54580000D02*
X67650000Y-55800000D01*
X60450000Y-54580000D02*
X60450000Y-55800000D01*
X59230000Y-54580000D02*
X67650000Y-54580000D01*
X67650000Y-55800000D02*
X65450000Y-55800000D01*
X65450000Y-55800000D02*
X65450000Y-54580000D01*
X60450000Y-55800000D02*
X65450000Y-55800000D01*
X64450000Y-56870000D02*
X64450000Y-57190000D01*
X61030000Y-56870000D02*
X64450000Y-56870000D01*
X64450000Y-57190000D02*
X64450000Y-57510000D01*
X60950000Y-57190000D02*
X61030000Y-56870000D01*
X64450000Y-57510000D02*
X61030000Y-57510000D01*
X61030000Y-57510000D02*
X60950000Y-57190000D01*
X65450000Y-58520000D02*
X65450000Y-58360000D01*
X64450000Y-59370000D02*
X64450000Y-59690000D01*
X61030000Y-59370000D02*
X64450000Y-59370000D01*
X64450000Y-59690000D02*
X64450000Y-60010000D01*
X60950000Y-59690000D02*
X61030000Y-59370000D01*
X64450000Y-60010000D02*
X61030000Y-60010000D01*
X61030000Y-60010000D02*
X60950000Y-59690000D01*
X65450000Y-61020000D02*
X65450000Y-60860000D01*
X64450000Y-61870000D02*
X64450000Y-62190000D01*
X61030000Y-61870000D02*
X64450000Y-61870000D01*
X64450000Y-62190000D02*
X64450000Y-62510000D01*
X60950000Y-62190000D02*
X61030000Y-61870000D01*
X64450000Y-62510000D02*
X61030000Y-62510000D01*
X61030000Y-62510000D02*
X60950000Y-62190000D01*
X65450000Y-63520000D02*
X65450000Y-63360000D01*
X64450000Y-64370000D02*
X64450000Y-64690000D01*
X61030000Y-64370000D02*
X64450000Y-64370000D01*
X68140000Y-64390000D02*
X67540000Y-64690000D01*
X67540000Y-64690000D02*
X68140000Y-64990000D01*
X64450000Y-64690000D02*
X64450000Y-65010000D01*
X60950000Y-64690000D02*
X61030000Y-64370000D01*
X68140000Y-64990000D02*
X68140000Y-64390000D01*
X64450000Y-65010000D02*
X61030000Y-65010000D01*
X61030000Y-65010000D02*
X60950000Y-64690000D01*
X67650000Y-66080000D02*
X67650000Y-67300000D01*
X65450000Y-66080000D02*
X67650000Y-66080000D01*
X65450000Y-66080000D02*
X65450000Y-67300000D01*
X64450000Y-66080000D02*
X64450000Y-55800000D01*
X60450000Y-66080000D02*
X65450000Y-66080000D01*
X67650000Y-67300000D02*
X59230000Y-67300000D01*
X60450000Y-67300000D02*
X60450000Y-66080000D01*
X59230000Y-67300000D02*
X59230000Y-54580000D01*
%TO.C,ENCODER1*%
X59230000Y-83770000D02*
X59230000Y-71050000D01*
X60450000Y-83770000D02*
X60450000Y-82550000D01*
X67650000Y-83770000D02*
X59230000Y-83770000D01*
X60450000Y-82550000D02*
X65450000Y-82550000D01*
X64450000Y-82550000D02*
X64450000Y-72270000D01*
X65450000Y-82550000D02*
X65450000Y-83770000D01*
X65450000Y-82550000D02*
X67650000Y-82550000D01*
X67650000Y-82550000D02*
X67650000Y-83770000D01*
X61030000Y-81480000D02*
X60950000Y-81160000D01*
X64450000Y-81480000D02*
X61030000Y-81480000D01*
X68140000Y-81460000D02*
X68140000Y-80860000D01*
X60950000Y-81160000D02*
X61030000Y-80840000D01*
X64450000Y-81160000D02*
X64450000Y-81480000D01*
X67540000Y-81160000D02*
X68140000Y-81460000D01*
X68140000Y-80860000D02*
X67540000Y-81160000D01*
X61030000Y-80840000D02*
X64450000Y-80840000D01*
X64450000Y-80840000D02*
X64450000Y-81160000D01*
X65450000Y-79990000D02*
X65450000Y-79830000D01*
X61030000Y-78980000D02*
X60950000Y-78660000D01*
X64450000Y-78980000D02*
X61030000Y-78980000D01*
X60950000Y-78660000D02*
X61030000Y-78340000D01*
X64450000Y-78660000D02*
X64450000Y-78980000D01*
X61030000Y-78340000D02*
X64450000Y-78340000D01*
X64450000Y-78340000D02*
X64450000Y-78660000D01*
X65450000Y-77490000D02*
X65450000Y-77330000D01*
X61030000Y-76480000D02*
X60950000Y-76160000D01*
X64450000Y-76480000D02*
X61030000Y-76480000D01*
X60950000Y-76160000D02*
X61030000Y-75840000D01*
X64450000Y-76160000D02*
X64450000Y-76480000D01*
X61030000Y-75840000D02*
X64450000Y-75840000D01*
X64450000Y-75840000D02*
X64450000Y-76160000D01*
X65450000Y-74990000D02*
X65450000Y-74830000D01*
X61030000Y-73980000D02*
X60950000Y-73660000D01*
X64450000Y-73980000D02*
X61030000Y-73980000D01*
X60950000Y-73660000D02*
X61030000Y-73340000D01*
X64450000Y-73660000D02*
X64450000Y-73980000D01*
X61030000Y-73340000D02*
X64450000Y-73340000D01*
X64450000Y-73340000D02*
X64450000Y-73660000D01*
X60450000Y-72270000D02*
X65450000Y-72270000D01*
X65450000Y-72270000D02*
X65450000Y-71050000D01*
X67650000Y-72270000D02*
X65450000Y-72270000D01*
X59230000Y-71050000D02*
X67650000Y-71050000D01*
X60450000Y-71050000D02*
X60450000Y-72270000D01*
X67650000Y-71050000D02*
X67650000Y-72270000D01*
%TO.C,SerialCOM1*%
X129340000Y-59320000D02*
X128090000Y-59320000D01*
X129040000Y-59620000D02*
X122420000Y-59620000D01*
X125730000Y-59620000D02*
X125730000Y-60630000D01*
X122420000Y-59620000D02*
X122420000Y-72340000D01*
X129340000Y-60570000D02*
X129340000Y-59320000D01*
X127430000Y-60630000D02*
X123130000Y-60630000D01*
X123130000Y-60630000D02*
X123130000Y-71330000D01*
X129040000Y-63280000D02*
X129040000Y-59620000D01*
X128040000Y-63280000D02*
X129040000Y-63280000D01*
X128640000Y-65180000D02*
X128040000Y-65180000D01*
X128040000Y-65180000D02*
X128040000Y-63280000D01*
X128640000Y-66780000D02*
X128640000Y-65180000D01*
X128040000Y-66780000D02*
X128640000Y-66780000D01*
X129040000Y-68680000D02*
X128040000Y-68680000D01*
X128040000Y-68680000D02*
X128040000Y-66780000D01*
X127430000Y-71330000D02*
X127430000Y-60630000D01*
X123130000Y-71330000D02*
X127430000Y-71330000D01*
X129040000Y-72340000D02*
X129040000Y-68680000D01*
X125730000Y-72340000D02*
X125730000Y-71330000D01*
X122420000Y-72340000D02*
X129040000Y-72340000D01*
D12*
%TO.C,U1*%
X110580000Y-51190000D02*
G75*
G02*
X110380000Y-51190000I-100000J0D01*
G01*
X110380000Y-51190000D02*
G75*
G02*
X110580000Y-51190000I100000J0D01*
G01*
D13*
X69490000Y-80270000D02*
X69490000Y-51760000D01*
X120440000Y-80270000D02*
X69490000Y-80270000D01*
X120440000Y-80270000D02*
X69490000Y-80270000D01*
X69490000Y-74820000D02*
X69490000Y-80270000D01*
X120440000Y-69540000D02*
X120440000Y-80270000D01*
X120440000Y-62829000D02*
X120440000Y-69540000D01*
X69490000Y-57130000D02*
X69490000Y-74820000D01*
X69490000Y-51760000D02*
X69490000Y-57130000D01*
X69490000Y-51760000D02*
X120440000Y-51760000D01*
X69490000Y-51760000D02*
X120440000Y-51760000D01*
X120440000Y-51760000D02*
X120440000Y-80270000D01*
X120440000Y-51760000D02*
X120440000Y-62829000D01*
%TD*%
%LPC*%
D14*
%TO.C,H4*%
X129540000Y-90890000D03*
%TD*%
D15*
%TO.C,ENCODER4*%
X102930000Y-86360000D03*
X105430000Y-86360000D03*
X107930000Y-86360000D03*
D16*
X110430000Y-86360000D03*
%TD*%
D15*
%TO.C,ENCODER3*%
X83820000Y-86360000D03*
X86320000Y-86360000D03*
X88820000Y-86360000D03*
D16*
X91320000Y-86360000D03*
%TD*%
D17*
%TO.C,ENCODER2*%
X66040000Y-57190000D03*
X66040000Y-59690000D03*
X66040000Y-62190000D03*
D18*
X66040000Y-64690000D03*
%TD*%
%TO.C,ENCODER1*%
X66040000Y-81160000D03*
D17*
X66040000Y-78660000D03*
X66040000Y-76160000D03*
X66040000Y-73660000D03*
%TD*%
D19*
%TO.C,SerialCOM1*%
X125730000Y-62230000D03*
D17*
X125730000Y-64730000D03*
X125730000Y-67230000D03*
X125730000Y-69730000D03*
%TD*%
D20*
%TO.C,U1*%
X74920000Y-53340000D03*
X77460000Y-53340000D03*
X80000000Y-53340000D03*
X82540000Y-53340000D03*
X85080000Y-53340000D03*
X87620000Y-53340000D03*
X90160000Y-53340000D03*
X92700000Y-53340000D03*
X95240000Y-53340000D03*
X97780000Y-53340000D03*
X100320000Y-53340000D03*
X102860000Y-53340000D03*
X105400000Y-53340000D03*
X107940000Y-53340000D03*
D21*
X110480000Y-53340000D03*
D20*
X110480000Y-78740000D03*
X107940000Y-78740000D03*
X105400000Y-78740000D03*
X102860000Y-78740000D03*
X100320000Y-78740000D03*
X97780000Y-78740000D03*
X95240000Y-78740000D03*
X92700000Y-78740000D03*
X90160000Y-78740000D03*
X87620000Y-78740000D03*
X85080000Y-78740000D03*
X82540000Y-78740000D03*
X80000000Y-78740000D03*
X77460000Y-78740000D03*
X74920000Y-78740000D03*
%TD*%
D14*
%TO.C,H1*%
X59690000Y-51520000D03*
%TD*%
%TO.C,H2*%
X129540000Y-51520000D03*
%TD*%
%TO.C,H3*%
X59690000Y-90890000D03*
%TD*%
%LPD*%
M02*
