%TF.GenerationSoftware,KiCad,Pcbnew,8.0.6*%
%TF.CreationDate,2025-01-09T18:28:26-05:00*%
%TF.ProjectId,ESP32_ENCODERS,45535033-325f-4454-9e43-4f444552532e,rev?*%
%TF.SameCoordinates,Original*%
%TF.FileFunction,Legend,Bot*%
%TF.FilePolarity,Positive*%
%FSLAX46Y46*%
G04 Gerber Fmt 4.6, Leading zero omitted, Abs format (unit mm)*
G04 Created by KiCad (PCBNEW 8.0.6) date 2025-01-09 18:28:26*
%MOMM*%
%LPD*%
G01*
G04 APERTURE LIST*
G04 Aperture macros list*
%AMRoundRect*
0 Rectangle with rounded corners*
0 $1 Rounding radius*
0 $2 $3 $4 $5 $6 $7 $8 $9 X,Y pos of 4 corners*
0 Add a 4 corners polygon primitive as box body*
4,1,4,$2,$3,$4,$5,$6,$7,$8,$9,$2,$3,0*
0 Add four circle primitives for the rounded corners*
1,1,$1+$1,$2,$3*
1,1,$1+$1,$4,$5*
1,1,$1+$1,$6,$7*
1,1,$1+$1,$8,$9*
0 Add four rect primitives between the rounded corners*
20,1,$1+$1,$2,$3,$4,$5,0*
20,1,$1+$1,$4,$5,$6,$7,0*
20,1,$1+$1,$6,$7,$8,$9,0*
20,1,$1+$1,$8,$9,$2,$3,0*%
G04 Aperture macros list end*
%ADD10C,0.000000*%
%ADD11C,3.800000*%
%ADD12O,1.700000X1.950000*%
%ADD13RoundRect,0.250000X0.600000X0.725000X-0.600000X0.725000X-0.600000X-0.725000X0.600000X-0.725000X0*%
%ADD14O,1.950000X1.700000*%
%ADD15RoundRect,0.250000X0.725000X-0.600000X0.725000X0.600000X-0.725000X0.600000X-0.725000X-0.600000X0*%
%ADD16RoundRect,0.250000X-0.725000X0.600000X-0.725000X-0.600000X0.725000X-0.600000X0.725000X0.600000X0*%
%ADD17C,2.000000*%
%ADD18R,2.000000X2.000000*%
G04 APERTURE END LIST*
D10*
%TO.C,G\u002A\u002A\u002A*%
G36*
X96027284Y-64747546D02*
G01*
X96334705Y-64747607D01*
X96609999Y-64747806D01*
X96855205Y-64748212D01*
X97072360Y-64748895D01*
X97263499Y-64749924D01*
X97430661Y-64751369D01*
X97575883Y-64753299D01*
X97701201Y-64755783D01*
X97808653Y-64758891D01*
X97900276Y-64762692D01*
X97978106Y-64767255D01*
X98044181Y-64772651D01*
X98100538Y-64778948D01*
X98149214Y-64786216D01*
X98192246Y-64794524D01*
X98231671Y-64803942D01*
X98269526Y-64814538D01*
X98307848Y-64826384D01*
X98453151Y-64883402D01*
X98597471Y-64969198D01*
X98717744Y-65077771D01*
X98815294Y-65210627D01*
X98891442Y-65369271D01*
X98947509Y-65555210D01*
X98951291Y-65571735D01*
X98962653Y-65626452D01*
X98971233Y-65680133D01*
X98977423Y-65738678D01*
X98981609Y-65807987D01*
X98984183Y-65893963D01*
X98985533Y-66002504D01*
X98986047Y-66139513D01*
X98985927Y-66221656D01*
X98983650Y-66381093D01*
X98978026Y-66513835D01*
X98968344Y-66625113D01*
X98953896Y-66720162D01*
X98933974Y-66804214D01*
X98907868Y-66882503D01*
X98874869Y-66960262D01*
X98858115Y-66993826D01*
X98773874Y-67117518D01*
X98664160Y-67225820D01*
X98535165Y-67313402D01*
X98393081Y-67374934D01*
X98390045Y-67375902D01*
X98348203Y-67389123D01*
X98309341Y-67400705D01*
X98270969Y-67410775D01*
X98230599Y-67419458D01*
X98185739Y-67426881D01*
X98133899Y-67433169D01*
X98072591Y-67438448D01*
X97999322Y-67442844D01*
X97911605Y-67446482D01*
X97806947Y-67449490D01*
X97682860Y-67451991D01*
X97536853Y-67454113D01*
X97366437Y-67455982D01*
X97169121Y-67457722D01*
X96942415Y-67459460D01*
X96683829Y-67461321D01*
X96574532Y-67462104D01*
X96335250Y-67463851D01*
X96127061Y-67465469D01*
X95947652Y-67467031D01*
X95794708Y-67468609D01*
X95665916Y-67470273D01*
X95558962Y-67472097D01*
X95471531Y-67474152D01*
X95401311Y-67476511D01*
X95345988Y-67479244D01*
X95303246Y-67482425D01*
X95270774Y-67486124D01*
X95246256Y-67490415D01*
X95227379Y-67495369D01*
X95211830Y-67501057D01*
X95197294Y-67507553D01*
X95147944Y-67533337D01*
X95097710Y-67570491D01*
X95060919Y-67616628D01*
X95035612Y-67676789D01*
X95019831Y-67756010D01*
X95011616Y-67859331D01*
X95009009Y-67991790D01*
X95009895Y-68102325D01*
X95014463Y-68192517D01*
X95024065Y-68259963D01*
X95040018Y-68310617D01*
X95063645Y-68350430D01*
X95096263Y-68385357D01*
X95108190Y-68396492D01*
X95121191Y-68408122D01*
X95135139Y-68418428D01*
X95151999Y-68427501D01*
X95173739Y-68435429D01*
X95202323Y-68442303D01*
X95239718Y-68448214D01*
X95287890Y-68453250D01*
X95348806Y-68457503D01*
X95424430Y-68461062D01*
X95516731Y-68464017D01*
X95627672Y-68466458D01*
X95759221Y-68468475D01*
X95913344Y-68470159D01*
X96092007Y-68471600D01*
X96297175Y-68472886D01*
X96530815Y-68474110D01*
X96794893Y-68475359D01*
X97091375Y-68476725D01*
X97301177Y-68477712D01*
X97571213Y-68479041D01*
X97810167Y-68480320D01*
X98019967Y-68481589D01*
X98202542Y-68482888D01*
X98359823Y-68484255D01*
X98493738Y-68485730D01*
X98606217Y-68487352D01*
X98699190Y-68489162D01*
X98774584Y-68491197D01*
X98834331Y-68493497D01*
X98880359Y-68496102D01*
X98914597Y-68499051D01*
X98938975Y-68502384D01*
X98955423Y-68506139D01*
X98965869Y-68510356D01*
X98972243Y-68515074D01*
X98973819Y-68516704D01*
X98983250Y-68530343D01*
X98990300Y-68551303D01*
X98995283Y-68584092D01*
X98998517Y-68633216D01*
X99000316Y-68703185D01*
X99000998Y-68798505D01*
X99000877Y-68923685D01*
X99000677Y-68978650D01*
X98999530Y-69100757D01*
X98996668Y-69194046D01*
X98991066Y-69262536D01*
X98981698Y-69310249D01*
X98967539Y-69341203D01*
X98947562Y-69359417D01*
X98920743Y-69368912D01*
X98886056Y-69373707D01*
X98876989Y-69374344D01*
X98829880Y-69375858D01*
X98752301Y-69377050D01*
X98647071Y-69377936D01*
X98517009Y-69378532D01*
X98364935Y-69378851D01*
X98193667Y-69378911D01*
X98006025Y-69378725D01*
X97804828Y-69378310D01*
X97592895Y-69377680D01*
X97373046Y-69376851D01*
X97148098Y-69375838D01*
X96920873Y-69374656D01*
X96694188Y-69373321D01*
X96470863Y-69371848D01*
X96253717Y-69370252D01*
X96045569Y-69368548D01*
X95849239Y-69366752D01*
X95667545Y-69364880D01*
X95503307Y-69362945D01*
X95359344Y-69360964D01*
X95238476Y-69358952D01*
X95143520Y-69356924D01*
X95077297Y-69354896D01*
X95042625Y-69352882D01*
X94903616Y-69332949D01*
X94709927Y-69286222D01*
X94543351Y-69219343D01*
X94402679Y-69131067D01*
X94286704Y-69020150D01*
X94194220Y-68885346D01*
X94124019Y-68725413D01*
X94074894Y-68539104D01*
X94045637Y-68325177D01*
X94040476Y-68234557D01*
X94038392Y-68123210D01*
X94039161Y-67998692D01*
X94042491Y-67867794D01*
X94048090Y-67737306D01*
X94055666Y-67614018D01*
X94064927Y-67504722D01*
X94075581Y-67416205D01*
X94087336Y-67355260D01*
X94133907Y-67219750D01*
X94213767Y-67071511D01*
X94318520Y-66945471D01*
X94448826Y-66841123D01*
X94605345Y-66757958D01*
X94788737Y-66695468D01*
X94999662Y-66653146D01*
X95030935Y-66649990D01*
X95102934Y-66645804D01*
X95207785Y-66641805D01*
X95344609Y-66638010D01*
X95512530Y-66634436D01*
X95710668Y-66631103D01*
X95938145Y-66628028D01*
X96194084Y-66625229D01*
X96477605Y-66622724D01*
X96702656Y-66620904D01*
X96921417Y-66619014D01*
X97110217Y-66617190D01*
X97271373Y-66615366D01*
X97407203Y-66613476D01*
X97520025Y-66611451D01*
X97612155Y-66609225D01*
X97685912Y-66606731D01*
X97743614Y-66603901D01*
X97787577Y-66600670D01*
X97820120Y-66596969D01*
X97843559Y-66592732D01*
X97860214Y-66587891D01*
X97872400Y-66582380D01*
X97907565Y-66560157D01*
X97960273Y-66508573D01*
X97997468Y-66440305D01*
X98020442Y-66351329D01*
X98030486Y-66237622D01*
X98028894Y-66095161D01*
X98025774Y-66039100D01*
X98013483Y-65928176D01*
X97992378Y-65843487D01*
X97960085Y-65779621D01*
X97914228Y-65731161D01*
X97852436Y-65692693D01*
X97766509Y-65649730D01*
X95922744Y-65641137D01*
X95761637Y-65640374D01*
X95484329Y-65638985D01*
X95238535Y-65637623D01*
X95022391Y-65636254D01*
X94834032Y-65634845D01*
X94671593Y-65633359D01*
X94533211Y-65631764D01*
X94417021Y-65630024D01*
X94321159Y-65628105D01*
X94243759Y-65625973D01*
X94182959Y-65623592D01*
X94136894Y-65620929D01*
X94103698Y-65617950D01*
X94081509Y-65614619D01*
X94068460Y-65610903D01*
X94062689Y-65606766D01*
X94056876Y-65597853D01*
X94052301Y-65588867D01*
X94048963Y-65575758D01*
X94046692Y-65554205D01*
X94045316Y-65519887D01*
X94044664Y-65468482D01*
X94044566Y-65395670D01*
X94044850Y-65297129D01*
X94045346Y-65168539D01*
X94045642Y-65099590D01*
X94046466Y-64995713D01*
X94048027Y-64918966D01*
X94050773Y-64864646D01*
X94055152Y-64828050D01*
X94061611Y-64804474D01*
X94070598Y-64789216D01*
X94082561Y-64777571D01*
X94089231Y-64773093D01*
X94099783Y-64768857D01*
X94115813Y-64765114D01*
X94139246Y-64761834D01*
X94172008Y-64758987D01*
X94216027Y-64756542D01*
X94273227Y-64754469D01*
X94345536Y-64752738D01*
X94434880Y-64751318D01*
X94543184Y-64750180D01*
X94672375Y-64749292D01*
X94824380Y-64748626D01*
X95001124Y-64748150D01*
X95204534Y-64747834D01*
X95436536Y-64747648D01*
X95699057Y-64747562D01*
X95994021Y-64747545D01*
X96027284Y-64747546D01*
G37*
G36*
X100595889Y-64750127D02*
G01*
X100827318Y-64750646D01*
X101089416Y-64751428D01*
X101384032Y-64752456D01*
X101392167Y-64752486D01*
X101721091Y-64753848D01*
X102016609Y-64755387D01*
X102279665Y-64757117D01*
X102511201Y-64759049D01*
X102712160Y-64761198D01*
X102883485Y-64763576D01*
X103026118Y-64766196D01*
X103141003Y-64769071D01*
X103229082Y-64772214D01*
X103291298Y-64775639D01*
X103328594Y-64779358D01*
X103419489Y-64794604D01*
X103600799Y-64834924D01*
X103756074Y-64885719D01*
X103890552Y-64949273D01*
X104009471Y-65027872D01*
X104118068Y-65123801D01*
X104156278Y-65163810D01*
X104252893Y-65286214D01*
X104329540Y-65421467D01*
X104388215Y-65574409D01*
X104430911Y-65749882D01*
X104459624Y-65952726D01*
X104461341Y-65972851D01*
X104465085Y-66043541D01*
X104468318Y-66142705D01*
X104471039Y-66266185D01*
X104473248Y-66409825D01*
X104474945Y-66569470D01*
X104476130Y-66740963D01*
X104476802Y-66920147D01*
X104476961Y-67102867D01*
X104476608Y-67284967D01*
X104475741Y-67462290D01*
X104474360Y-67630679D01*
X104472466Y-67785980D01*
X104470057Y-67924035D01*
X104467135Y-68040689D01*
X104463698Y-68131785D01*
X104459747Y-68193167D01*
X104438921Y-68354817D01*
X104395158Y-68545937D01*
X104331938Y-68712666D01*
X104248051Y-68858021D01*
X104142287Y-68985019D01*
X104140497Y-68986831D01*
X104029231Y-69083982D01*
X103902154Y-69165389D01*
X103756440Y-69231943D01*
X103589264Y-69284536D01*
X103397802Y-69324060D01*
X103179228Y-69351407D01*
X102930717Y-69367467D01*
X102902679Y-69368404D01*
X102827223Y-69370027D01*
X102725173Y-69371447D01*
X102599431Y-69372669D01*
X102452902Y-69373695D01*
X102288489Y-69374530D01*
X102109093Y-69375178D01*
X101917619Y-69375641D01*
X101716970Y-69375925D01*
X101510048Y-69376032D01*
X101299757Y-69375967D01*
X101088999Y-69375734D01*
X100880678Y-69375335D01*
X100677697Y-69374775D01*
X100482959Y-69374058D01*
X100299366Y-69373187D01*
X100129823Y-69372166D01*
X99977232Y-69370999D01*
X99844496Y-69369690D01*
X99734519Y-69368243D01*
X99650202Y-69366660D01*
X99594450Y-69364946D01*
X99570166Y-69363106D01*
X99543391Y-69349023D01*
X99517993Y-69314473D01*
X99516367Y-69306839D01*
X99512595Y-69265504D01*
X99509661Y-69198929D01*
X99507570Y-69113738D01*
X99506332Y-69016551D01*
X99505952Y-68913992D01*
X99506437Y-68812682D01*
X99507796Y-68719243D01*
X99510034Y-68640297D01*
X99513159Y-68582466D01*
X99517178Y-68552371D01*
X99535311Y-68523970D01*
X99572113Y-68496519D01*
X99580026Y-68494432D01*
X99609631Y-68491106D01*
X99660449Y-68488169D01*
X99733795Y-68485606D01*
X99830985Y-68483400D01*
X99953336Y-68481539D01*
X100102161Y-68480005D01*
X100278779Y-68478784D01*
X100484503Y-68477861D01*
X100720650Y-68477220D01*
X100988536Y-68476847D01*
X101289475Y-68476725D01*
X101519183Y-68476701D01*
X101780312Y-68476561D01*
X102010825Y-68476234D01*
X102212818Y-68475649D01*
X102388387Y-68474737D01*
X102539628Y-68473426D01*
X102668637Y-68471646D01*
X102777510Y-68469326D01*
X102868343Y-68466396D01*
X102943232Y-68462786D01*
X103004273Y-68458424D01*
X103053562Y-68453240D01*
X103093195Y-68447164D01*
X103125269Y-68440125D01*
X103151879Y-68432052D01*
X103175120Y-68422876D01*
X103197091Y-68412525D01*
X103253523Y-68377420D01*
X103322839Y-68314748D01*
X103372412Y-68246133D01*
X103393295Y-68192331D01*
X103414430Y-68103009D01*
X103430865Y-67992214D01*
X103441611Y-67866858D01*
X103445679Y-67733854D01*
X103445731Y-67663531D01*
X103444599Y-67599878D01*
X103440972Y-67558719D01*
X103433612Y-67533413D01*
X103421277Y-67517316D01*
X103402728Y-67503786D01*
X103391649Y-67497941D01*
X103375438Y-67492851D01*
X103351724Y-67488672D01*
X103317820Y-67485351D01*
X103271040Y-67482836D01*
X103208696Y-67481073D01*
X103128103Y-67480012D01*
X103026574Y-67479598D01*
X102901423Y-67479781D01*
X102749963Y-67480506D01*
X102569506Y-67481723D01*
X102357368Y-67483378D01*
X102221870Y-67484344D01*
X102040633Y-67485195D01*
X101872772Y-67485475D01*
X101721285Y-67485203D01*
X101589171Y-67484401D01*
X101479430Y-67483088D01*
X101395059Y-67481285D01*
X101339059Y-67479013D01*
X101314429Y-67476291D01*
X101285547Y-67462054D01*
X101260187Y-67440450D01*
X101259227Y-67437999D01*
X101255346Y-67407971D01*
X101251969Y-67350332D01*
X101249290Y-67270558D01*
X101247506Y-67174126D01*
X101246812Y-67066512D01*
X101247088Y-66957048D01*
X101248494Y-66856834D01*
X101251320Y-66783204D01*
X101255827Y-66731960D01*
X101262276Y-66698905D01*
X101270930Y-66679841D01*
X101271019Y-66679720D01*
X101277138Y-66672839D01*
X101286363Y-66666944D01*
X101301298Y-66661933D01*
X101324549Y-66657703D01*
X101358722Y-66654152D01*
X101406422Y-66651178D01*
X101470254Y-66648677D01*
X101552824Y-66646548D01*
X101656736Y-66644688D01*
X101784598Y-66642994D01*
X101939012Y-66641365D01*
X102122586Y-66639697D01*
X102337925Y-66637889D01*
X103380539Y-66629297D01*
X103422002Y-66581078D01*
X103442004Y-66553727D01*
X103458818Y-66507921D01*
X103463363Y-66443595D01*
X103462327Y-66407463D01*
X103454691Y-66316749D01*
X103441193Y-66213144D01*
X103423702Y-66108454D01*
X103404082Y-66014484D01*
X103384203Y-65943041D01*
X103367165Y-65902371D01*
X103305354Y-65811266D01*
X103220346Y-65735936D01*
X103119756Y-65683848D01*
X103106521Y-65679306D01*
X103089179Y-65674294D01*
X103068703Y-65669870D01*
X103043011Y-65665989D01*
X103010020Y-65662609D01*
X102967647Y-65659684D01*
X102913812Y-65657170D01*
X102846429Y-65655023D01*
X102763419Y-65653199D01*
X102662697Y-65651653D01*
X102542182Y-65650342D01*
X102399790Y-65649220D01*
X102233441Y-65648245D01*
X102041050Y-65647371D01*
X101820536Y-65646554D01*
X101569816Y-65645751D01*
X101286808Y-65644916D01*
X101258742Y-65644835D01*
X100975986Y-65643963D01*
X100725492Y-65643069D01*
X100505329Y-65642120D01*
X100313568Y-65641080D01*
X100148281Y-65639917D01*
X100007536Y-65638596D01*
X99889405Y-65637083D01*
X99791959Y-65635346D01*
X99713267Y-65633349D01*
X99651400Y-65631059D01*
X99604428Y-65628442D01*
X99570423Y-65625465D01*
X99547454Y-65622093D01*
X99533592Y-65618292D01*
X99526907Y-65614029D01*
X99522049Y-65604257D01*
X99515664Y-65572421D01*
X99510961Y-65518166D01*
X99507789Y-65438508D01*
X99505997Y-65330463D01*
X99505434Y-65191048D01*
X99505516Y-65094225D01*
X99506059Y-64989410D01*
X99507411Y-64911374D01*
X99509912Y-64855746D01*
X99513901Y-64818153D01*
X99519719Y-64794224D01*
X99527707Y-64779586D01*
X99538204Y-64769867D01*
X99544929Y-64766769D01*
X99561164Y-64763243D01*
X99587708Y-64760171D01*
X99626411Y-64757538D01*
X99679125Y-64755324D01*
X99747700Y-64753513D01*
X99833988Y-64752087D01*
X99939839Y-64751029D01*
X100067103Y-64750322D01*
X100217633Y-64749947D01*
X100393278Y-64749888D01*
X100595889Y-64750127D01*
G37*
G36*
X83355754Y-64749553D02*
G01*
X83554638Y-64749890D01*
X83782051Y-64750487D01*
X84039941Y-64751322D01*
X84330255Y-64752374D01*
X84636378Y-64753651D01*
X84935298Y-64755206D01*
X85201622Y-64756955D01*
X85436274Y-64758908D01*
X85640176Y-64761081D01*
X85814250Y-64763485D01*
X85959418Y-64766134D01*
X86076603Y-64769039D01*
X86166728Y-64772215D01*
X86230715Y-64775674D01*
X86269486Y-64779429D01*
X86473904Y-64818318D01*
X86676351Y-64879384D01*
X86851387Y-64960068D01*
X87000234Y-65061615D01*
X87124113Y-65185269D01*
X87224247Y-65332275D01*
X87301856Y-65503880D01*
X87358164Y-65701327D01*
X87394390Y-65925862D01*
X87400317Y-65984828D01*
X87411098Y-66127352D01*
X87420080Y-66295456D01*
X87427136Y-66483276D01*
X87432137Y-66684946D01*
X87434957Y-66894602D01*
X87435466Y-67106378D01*
X87433537Y-67314409D01*
X87429041Y-67512830D01*
X87424668Y-67653647D01*
X87419953Y-67793730D01*
X87415469Y-67908620D01*
X87410897Y-68003296D01*
X87405918Y-68082741D01*
X87400212Y-68151936D01*
X87393461Y-68215863D01*
X87385345Y-68279502D01*
X87375545Y-68347835D01*
X87367962Y-68395030D01*
X87325568Y-68578509D01*
X87264853Y-68739945D01*
X87184284Y-68880422D01*
X87082330Y-69001026D01*
X86957462Y-69102840D01*
X86808146Y-69186951D01*
X86632853Y-69254443D01*
X86430051Y-69306401D01*
X86198208Y-69343910D01*
X85935794Y-69368056D01*
X85930381Y-69368365D01*
X85880886Y-69369978D01*
X85800238Y-69371426D01*
X85691162Y-69372698D01*
X85556384Y-69373784D01*
X85398627Y-69374672D01*
X85220617Y-69375353D01*
X85025079Y-69375814D01*
X84814737Y-69376045D01*
X84592317Y-69376036D01*
X84360543Y-69375775D01*
X84122141Y-69375252D01*
X83894638Y-69374576D01*
X83635611Y-69373633D01*
X83407856Y-69372566D01*
X83209640Y-69371348D01*
X83039231Y-69369953D01*
X82894894Y-69368353D01*
X82774900Y-69366520D01*
X82677513Y-69364426D01*
X82601002Y-69362045D01*
X82543635Y-69359350D01*
X82503679Y-69356311D01*
X82479400Y-69352903D01*
X82469067Y-69349098D01*
X82465535Y-69343419D01*
X82458537Y-69314801D01*
X82453005Y-69262386D01*
X82448774Y-69183531D01*
X82445682Y-69075597D01*
X82443566Y-68935943D01*
X82443105Y-68891212D01*
X82442251Y-68774104D01*
X82442466Y-68685496D01*
X82444019Y-68620957D01*
X82447174Y-68576058D01*
X82452200Y-68546369D01*
X82459363Y-68527460D01*
X82468930Y-68514901D01*
X82470060Y-68513838D01*
X82477339Y-68509141D01*
X82489280Y-68504959D01*
X82507864Y-68501249D01*
X82535071Y-68497969D01*
X82572882Y-68495076D01*
X82623278Y-68492528D01*
X82688239Y-68490283D01*
X82769746Y-68488298D01*
X82869778Y-68486531D01*
X82990317Y-68484939D01*
X83133344Y-68483481D01*
X83300838Y-68482113D01*
X83494781Y-68480794D01*
X83717153Y-68479482D01*
X83969934Y-68478133D01*
X84255105Y-68476705D01*
X84545396Y-68475317D01*
X84804914Y-68474072D01*
X85034093Y-68472850D01*
X85234953Y-68471522D01*
X85409517Y-68469958D01*
X85559802Y-68468032D01*
X85687832Y-68465613D01*
X85795625Y-68462574D01*
X85885203Y-68458786D01*
X85958587Y-68454120D01*
X86017796Y-68448447D01*
X86064851Y-68441639D01*
X86101774Y-68433568D01*
X86130584Y-68424105D01*
X86153302Y-68413120D01*
X86171949Y-68400486D01*
X86188545Y-68386074D01*
X86205111Y-68369755D01*
X86223668Y-68351401D01*
X86232540Y-68342677D01*
X86282674Y-68282368D01*
X86321022Y-68212008D01*
X86348798Y-68126828D01*
X86367218Y-68022059D01*
X86377497Y-67892935D01*
X86380850Y-67734685D01*
X86380577Y-67668083D01*
X86378426Y-67598579D01*
X86373484Y-67552474D01*
X86364943Y-67523350D01*
X86351998Y-67504792D01*
X86349461Y-67502481D01*
X86340001Y-67496769D01*
X86324858Y-67491972D01*
X86301424Y-67488034D01*
X86267092Y-67484900D01*
X86219254Y-67482514D01*
X86155301Y-67480820D01*
X86072626Y-67479763D01*
X85968621Y-67479287D01*
X85840678Y-67479337D01*
X85686189Y-67479856D01*
X85502546Y-67480790D01*
X85287142Y-67482083D01*
X85146038Y-67482949D01*
X84951643Y-67484038D01*
X84787318Y-67484747D01*
X84650440Y-67485018D01*
X84538385Y-67484790D01*
X84448531Y-67484004D01*
X84378252Y-67482601D01*
X84324926Y-67480521D01*
X84285930Y-67477704D01*
X84258639Y-67474091D01*
X84240431Y-67469623D01*
X84228681Y-67464240D01*
X84220766Y-67457881D01*
X84211326Y-67446030D01*
X84203178Y-67426809D01*
X84197267Y-67396817D01*
X84193190Y-67351336D01*
X84190541Y-67285645D01*
X84188916Y-67195024D01*
X84187910Y-67074752D01*
X84187458Y-66964705D01*
X84187866Y-66871176D01*
X84189573Y-66802816D01*
X84192932Y-66754791D01*
X84198296Y-66722268D01*
X84206019Y-66700414D01*
X84216454Y-66684395D01*
X84247141Y-66646482D01*
X85269962Y-66637889D01*
X85286969Y-66637746D01*
X85497584Y-66635944D01*
X85676725Y-66634284D01*
X85827085Y-66632657D01*
X85951359Y-66630950D01*
X86052241Y-66629053D01*
X86132426Y-66626853D01*
X86194608Y-66624240D01*
X86241481Y-66621101D01*
X86275741Y-66617327D01*
X86300080Y-66612804D01*
X86317194Y-66607423D01*
X86329777Y-66601071D01*
X86340524Y-66593637D01*
X86358258Y-66578866D01*
X86385228Y-66544484D01*
X86401125Y-66499247D01*
X86406749Y-66437506D01*
X86402901Y-66353608D01*
X86390383Y-66241903D01*
X86385574Y-66206258D01*
X86364127Y-66077842D01*
X86338726Y-65976818D01*
X86307268Y-65897583D01*
X86267649Y-65834533D01*
X86217766Y-65782066D01*
X86217543Y-65781870D01*
X86194599Y-65761156D01*
X86174156Y-65742741D01*
X86154166Y-65726481D01*
X86132580Y-65712231D01*
X86107351Y-65699847D01*
X86076428Y-65689183D01*
X86037765Y-65680096D01*
X85989313Y-65672441D01*
X85929023Y-65666073D01*
X85854848Y-65660848D01*
X85764738Y-65656621D01*
X85656645Y-65653248D01*
X85528522Y-65650584D01*
X85378320Y-65648485D01*
X85203989Y-65646806D01*
X85003483Y-65645402D01*
X84774753Y-65644129D01*
X84515749Y-65642843D01*
X84224425Y-65641398D01*
X84063806Y-65640520D01*
X83828264Y-65639013D01*
X83603819Y-65637320D01*
X83392800Y-65635470D01*
X83197533Y-65633493D01*
X83020345Y-65631420D01*
X82863564Y-65629280D01*
X82729518Y-65627104D01*
X82620533Y-65624922D01*
X82538937Y-65622764D01*
X82487056Y-65620660D01*
X82467219Y-65618641D01*
X82460476Y-65606771D01*
X82454739Y-65575802D01*
X82450559Y-65523001D01*
X82447772Y-65445237D01*
X82446219Y-65339378D01*
X82445737Y-65202291D01*
X82445737Y-64799845D01*
X82487123Y-64772729D01*
X82494254Y-64769130D01*
X82507791Y-64765192D01*
X82528444Y-64761750D01*
X82558160Y-64758783D01*
X82598885Y-64756269D01*
X82652567Y-64754187D01*
X82721151Y-64752514D01*
X82806586Y-64751231D01*
X82910816Y-64750315D01*
X83035790Y-64749744D01*
X83183454Y-64749497D01*
X83355754Y-64749553D01*
G37*
G36*
X93422437Y-66719520D02*
G01*
X93423093Y-67043085D01*
X93423185Y-67089045D01*
X93423857Y-67413717D01*
X93424452Y-67705958D01*
X93424907Y-67967481D01*
X93425159Y-68199997D01*
X93425146Y-68405218D01*
X93424803Y-68584856D01*
X93424068Y-68740622D01*
X93422879Y-68874229D01*
X93421172Y-68987387D01*
X93418885Y-69081810D01*
X93415954Y-69159207D01*
X93412316Y-69221292D01*
X93407909Y-69269776D01*
X93402670Y-69306370D01*
X93396535Y-69332786D01*
X93389442Y-69350737D01*
X93381328Y-69361933D01*
X93372129Y-69368087D01*
X93361783Y-69370910D01*
X93350228Y-69372114D01*
X93337399Y-69373411D01*
X93320101Y-69374491D01*
X93270512Y-69375631D01*
X93195573Y-69376373D01*
X93100474Y-69376689D01*
X92990405Y-69376551D01*
X92870556Y-69375930D01*
X92828931Y-69375617D01*
X92702968Y-69374297D01*
X92606115Y-69372430D01*
X92534277Y-69369739D01*
X92483358Y-69365948D01*
X92449260Y-69360781D01*
X92427887Y-69353960D01*
X92415143Y-69345211D01*
X92408698Y-69336463D01*
X92402471Y-69319757D01*
X92397573Y-69292847D01*
X92393850Y-69252279D01*
X92391148Y-69194604D01*
X92389314Y-69116367D01*
X92388194Y-69014116D01*
X92387635Y-68884401D01*
X92387483Y-68723768D01*
X92387483Y-68130015D01*
X92348500Y-68098431D01*
X92344296Y-68095312D01*
X92334772Y-68090230D01*
X92320876Y-68085763D01*
X92300466Y-68081858D01*
X92271399Y-68078463D01*
X92231531Y-68075525D01*
X92178721Y-68072993D01*
X92110825Y-68070815D01*
X92025701Y-68068936D01*
X91921206Y-68067307D01*
X91795196Y-68065873D01*
X91645531Y-68064583D01*
X91470065Y-68063384D01*
X91266657Y-68062225D01*
X91033165Y-68061052D01*
X90767444Y-68059813D01*
X90579645Y-68058944D01*
X90324880Y-68057671D01*
X90100439Y-68056336D01*
X89903894Y-68054828D01*
X89732816Y-68053036D01*
X89584776Y-68050849D01*
X89457348Y-68048154D01*
X89348101Y-68044842D01*
X89254608Y-68040800D01*
X89174440Y-68035917D01*
X89105169Y-68030083D01*
X89044366Y-68023186D01*
X88989604Y-68015114D01*
X88938453Y-68005756D01*
X88888485Y-67995001D01*
X88837273Y-67982739D01*
X88782387Y-67968856D01*
X88774770Y-67966880D01*
X88598583Y-67905200D01*
X88443268Y-67819280D01*
X88310935Y-67711188D01*
X88203699Y-67582991D01*
X88123671Y-67436756D01*
X88072965Y-67274552D01*
X88054341Y-67176266D01*
X88021413Y-66932890D01*
X88002318Y-66673075D01*
X87998538Y-66479780D01*
X89038775Y-66479780D01*
X89041288Y-66601863D01*
X89047300Y-66713446D01*
X89056810Y-66806632D01*
X89069818Y-66873522D01*
X89102550Y-66959969D01*
X89163155Y-67051259D01*
X89246684Y-67121011D01*
X89355727Y-67171248D01*
X89492873Y-67203991D01*
X89493763Y-67204132D01*
X89535277Y-67207717D01*
X89609942Y-67210937D01*
X89716582Y-67213779D01*
X89854022Y-67216227D01*
X90021088Y-67218267D01*
X90216604Y-67219886D01*
X90439396Y-67221067D01*
X90688289Y-67221798D01*
X90962108Y-67222063D01*
X91151375Y-67222040D01*
X91380741Y-67221858D01*
X91579464Y-67221466D01*
X91749693Y-67220828D01*
X91893577Y-67219905D01*
X92013266Y-67218661D01*
X92110908Y-67217058D01*
X92188652Y-67215058D01*
X92248648Y-67212624D01*
X92293044Y-67209719D01*
X92323989Y-67206304D01*
X92343633Y-67202344D01*
X92354124Y-67197800D01*
X92361772Y-67191173D01*
X92368490Y-67181006D01*
X92373925Y-67164537D01*
X92378211Y-67138647D01*
X92381486Y-67100218D01*
X92383884Y-67046131D01*
X92385542Y-66973267D01*
X92386595Y-66878507D01*
X92387179Y-66758732D01*
X92387430Y-66610824D01*
X92387483Y-66431665D01*
X92387436Y-66261585D01*
X92387200Y-66112027D01*
X92386638Y-65990776D01*
X92385615Y-65894711D01*
X92383994Y-65820715D01*
X92381641Y-65765669D01*
X92378418Y-65726454D01*
X92374191Y-65699951D01*
X92368823Y-65683042D01*
X92362180Y-65672608D01*
X92354124Y-65665530D01*
X92347221Y-65662133D01*
X92330216Y-65658021D01*
X92302479Y-65654465D01*
X92261862Y-65651429D01*
X92206216Y-65648873D01*
X92133391Y-65646762D01*
X92041239Y-65645057D01*
X91927611Y-65643721D01*
X91790357Y-65642717D01*
X91627329Y-65642007D01*
X91436377Y-65641554D01*
X91215353Y-65641319D01*
X90962108Y-65641267D01*
X90867392Y-65641305D01*
X90616913Y-65641718D01*
X90386739Y-65642563D01*
X90178628Y-65643818D01*
X89994338Y-65645464D01*
X89835629Y-65647478D01*
X89704256Y-65649840D01*
X89601980Y-65652530D01*
X89530557Y-65655525D01*
X89491746Y-65658806D01*
X89382739Y-65683131D01*
X89268089Y-65732241D01*
X89178901Y-65803050D01*
X89113406Y-65897057D01*
X89069831Y-66015762D01*
X89063698Y-66044393D01*
X89052221Y-66129504D01*
X89044241Y-66235703D01*
X89039759Y-66355094D01*
X89038775Y-66479780D01*
X87998538Y-66479780D01*
X87997103Y-66406383D01*
X88005814Y-66142373D01*
X88028497Y-65890604D01*
X88065197Y-65660637D01*
X88083874Y-65580412D01*
X88143810Y-65408026D01*
X88227135Y-65257211D01*
X88334809Y-65127257D01*
X88467790Y-65017451D01*
X88627037Y-64927084D01*
X88813507Y-64855443D01*
X89028160Y-64801818D01*
X89271954Y-64765498D01*
X89305136Y-64763102D01*
X89377763Y-64760242D01*
X89483138Y-64757649D01*
X89620346Y-64755333D01*
X89788474Y-64753301D01*
X89986607Y-64751559D01*
X90213831Y-64750118D01*
X90469232Y-64748983D01*
X90751897Y-64748162D01*
X91060912Y-64747664D01*
X91395361Y-64747497D01*
X91530757Y-64747506D01*
X91822966Y-64747602D01*
X92083354Y-64747821D01*
X92313709Y-64748187D01*
X92515814Y-64748719D01*
X92691457Y-64749441D01*
X92842422Y-64750375D01*
X92970495Y-64751541D01*
X93077462Y-64752962D01*
X93165109Y-64754660D01*
X93235220Y-64756657D01*
X93289582Y-64758974D01*
X93329980Y-64761634D01*
X93358200Y-64764659D01*
X93376027Y-64768069D01*
X93385247Y-64771888D01*
X93387226Y-64773410D01*
X93391836Y-64778202D01*
X93395978Y-64785796D01*
X93399681Y-64797946D01*
X93402975Y-64816406D01*
X93405888Y-64842930D01*
X93408450Y-64879271D01*
X93410690Y-64927184D01*
X93412637Y-64988422D01*
X93414320Y-65064739D01*
X93415770Y-65157888D01*
X93417014Y-65269624D01*
X93418083Y-65401701D01*
X93419004Y-65555872D01*
X93419809Y-65733890D01*
X93420525Y-65937510D01*
X93421182Y-66168486D01*
X93421810Y-66428572D01*
X93421817Y-66431665D01*
X93422437Y-66719520D01*
G37*
%TD*%
%LPC*%
D11*
%TO.C,H4*%
X129540000Y-90890000D03*
%TD*%
D12*
%TO.C,ENCODER4*%
X102930000Y-86360000D03*
X105430000Y-86360000D03*
X107930000Y-86360000D03*
D13*
X110430000Y-86360000D03*
%TD*%
D12*
%TO.C,ENCODER3*%
X83820000Y-86360000D03*
X86320000Y-86360000D03*
X88820000Y-86360000D03*
D13*
X91320000Y-86360000D03*
%TD*%
D14*
%TO.C,ENCODER2*%
X66040000Y-57190000D03*
X66040000Y-59690000D03*
X66040000Y-62190000D03*
D15*
X66040000Y-64690000D03*
%TD*%
%TO.C,ENCODER1*%
X66040000Y-81160000D03*
D14*
X66040000Y-78660000D03*
X66040000Y-76160000D03*
X66040000Y-73660000D03*
%TD*%
D16*
%TO.C,SerialCOM1*%
X125730000Y-62230000D03*
D14*
X125730000Y-64730000D03*
X125730000Y-67230000D03*
X125730000Y-69730000D03*
%TD*%
D17*
%TO.C,U1*%
X74920000Y-53340000D03*
X77460000Y-53340000D03*
X80000000Y-53340000D03*
X82540000Y-53340000D03*
X85080000Y-53340000D03*
X87620000Y-53340000D03*
X90160000Y-53340000D03*
X92700000Y-53340000D03*
X95240000Y-53340000D03*
X97780000Y-53340000D03*
X100320000Y-53340000D03*
X102860000Y-53340000D03*
X105400000Y-53340000D03*
X107940000Y-53340000D03*
D18*
X110480000Y-53340000D03*
D17*
X110480000Y-78740000D03*
X107940000Y-78740000D03*
X105400000Y-78740000D03*
X102860000Y-78740000D03*
X100320000Y-78740000D03*
X97780000Y-78740000D03*
X95240000Y-78740000D03*
X92700000Y-78740000D03*
X90160000Y-78740000D03*
X87620000Y-78740000D03*
X85080000Y-78740000D03*
X82540000Y-78740000D03*
X80000000Y-78740000D03*
X77460000Y-78740000D03*
X74920000Y-78740000D03*
%TD*%
D11*
%TO.C,H1*%
X59690000Y-51520000D03*
%TD*%
%TO.C,H2*%
X129540000Y-51520000D03*
%TD*%
%TO.C,H3*%
X59690000Y-90890000D03*
%TD*%
%LPD*%
M02*
