%TF.GenerationSoftware,KiCad,Pcbnew,8.0.6*%
%TF.CreationDate,2025-01-09T18:28:26-05:00*%
%TF.ProjectId,ESP32_ENCODERS,45535033-325f-4454-9e43-4f444552532e,rev?*%
%TF.SameCoordinates,Original*%
%TF.FileFunction,Copper,L2,Bot*%
%TF.FilePolarity,Positive*%
%FSLAX46Y46*%
G04 Gerber Fmt 4.6, Leading zero omitted, Abs format (unit mm)*
G04 Created by KiCad (PCBNEW 8.0.6) date 2025-01-09 18:28:26*
%MOMM*%
%LPD*%
G01*
G04 APERTURE LIST*
G04 Aperture macros list*
%AMRoundRect*
0 Rectangle with rounded corners*
0 $1 Rounding radius*
0 $2 $3 $4 $5 $6 $7 $8 $9 X,Y pos of 4 corners*
0 Add a 4 corners polygon primitive as box body*
4,1,4,$2,$3,$4,$5,$6,$7,$8,$9,$2,$3,0*
0 Add four circle primitives for the rounded corners*
1,1,$1+$1,$2,$3*
1,1,$1+$1,$4,$5*
1,1,$1+$1,$6,$7*
1,1,$1+$1,$8,$9*
0 Add four rect primitives between the rounded corners*
20,1,$1+$1,$2,$3,$4,$5,0*
20,1,$1+$1,$4,$5,$6,$7,0*
20,1,$1+$1,$6,$7,$8,$9,0*
20,1,$1+$1,$8,$9,$2,$3,0*%
G04 Aperture macros list end*
%TA.AperFunction,ComponentPad*%
%ADD10C,3.800000*%
%TD*%
%TA.AperFunction,ComponentPad*%
%ADD11O,1.700000X1.950000*%
%TD*%
%TA.AperFunction,ComponentPad*%
%ADD12RoundRect,0.250000X0.600000X0.725000X-0.600000X0.725000X-0.600000X-0.725000X0.600000X-0.725000X0*%
%TD*%
%TA.AperFunction,ComponentPad*%
%ADD13O,1.950000X1.700000*%
%TD*%
%TA.AperFunction,ComponentPad*%
%ADD14RoundRect,0.250000X0.725000X-0.600000X0.725000X0.600000X-0.725000X0.600000X-0.725000X-0.600000X0*%
%TD*%
%TA.AperFunction,ComponentPad*%
%ADD15RoundRect,0.250000X-0.725000X0.600000X-0.725000X-0.600000X0.725000X-0.600000X0.725000X0.600000X0*%
%TD*%
%TA.AperFunction,ComponentPad*%
%ADD16C,2.000000*%
%TD*%
%TA.AperFunction,ComponentPad*%
%ADD17R,2.000000X2.000000*%
%TD*%
%TA.AperFunction,Conductor*%
%ADD18C,1.000000*%
%TD*%
%TA.AperFunction,Conductor*%
%ADD19C,1.500000*%
%TD*%
G04 APERTURE END LIST*
D10*
%TO.P,H4,1*%
%TO.N,N/C*%
X129540000Y-90890000D03*
%TD*%
D11*
%TO.P,ENCODER4,4,Pin_4*%
%TO.N,+5V*%
X102930000Y-86360000D03*
%TO.P,ENCODER4,3,Pin_3*%
%TO.N,/ENCODER_D1*%
X105430000Y-86360000D03*
%TO.P,ENCODER4,2,Pin_2*%
%TO.N,/ENCODER_D2*%
X107930000Y-86360000D03*
D12*
%TO.P,ENCODER4,1,Pin_1*%
%TO.N,GND*%
X110430000Y-86360000D03*
%TD*%
D11*
%TO.P,ENCODER3,4,Pin_4*%
%TO.N,+5V*%
X83820000Y-86360000D03*
%TO.P,ENCODER3,3,Pin_3*%
%TO.N,/ENCODER_C1*%
X86320000Y-86360000D03*
%TO.P,ENCODER3,2,Pin_2*%
%TO.N,/ENCODER_C2*%
X88820000Y-86360000D03*
D12*
%TO.P,ENCODER3,1,Pin_1*%
%TO.N,GND*%
X91320000Y-86360000D03*
%TD*%
D13*
%TO.P,ENCODER2,4,Pin_4*%
%TO.N,+5V*%
X66040000Y-57190000D03*
%TO.P,ENCODER2,3,Pin_3*%
%TO.N,/ENCODER_B2*%
X66040000Y-59690000D03*
%TO.P,ENCODER2,2,Pin_2*%
%TO.N,/ENCODER_B1*%
X66040000Y-62190000D03*
D14*
%TO.P,ENCODER2,1,Pin_1*%
%TO.N,GND*%
X66040000Y-64690000D03*
%TD*%
%TO.P,ENCODER1,1,Pin_1*%
%TO.N,GND*%
X66040000Y-81160000D03*
D13*
%TO.P,ENCODER1,2,Pin_2*%
%TO.N,/ENCODER_A1*%
X66040000Y-78660000D03*
%TO.P,ENCODER1,3,Pin_3*%
%TO.N,/ENCODER_A2*%
X66040000Y-76160000D03*
%TO.P,ENCODER1,4,Pin_4*%
%TO.N,+5V*%
X66040000Y-73660000D03*
%TD*%
D15*
%TO.P,SerialCOM1,1,Pin_1*%
%TO.N,GND*%
X125730000Y-62230000D03*
D13*
%TO.P,SerialCOM1,2,Pin_2*%
%TO.N,/RX_COM*%
X125730000Y-64730000D03*
%TO.P,SerialCOM1,3,Pin_3*%
%TO.N,/TX_COM*%
X125730000Y-67230000D03*
%TO.P,SerialCOM1,4,Pin_4*%
%TO.N,+5V*%
X125730000Y-69730000D03*
%TD*%
D16*
%TO.P,U1,30,IO23_MOSI*%
%TO.N,unconnected-(U1-IO23_MOSI-Pad30)*%
X74920000Y-53340000D03*
%TO.P,U1,29,IO22_I2C_SCL*%
%TO.N,unconnected-(U1-IO22_I2C_SCL-Pad29)*%
X77460000Y-53340000D03*
%TO.P,U1,28,TXD0/IO1*%
%TO.N,unconnected-(U1-TXD0{slash}IO1-Pad28)*%
X80000000Y-53340000D03*
%TO.P,U1,27,RXD0/IO3*%
%TO.N,unconnected-(U1-RXD0{slash}IO3-Pad27)*%
X82540000Y-53340000D03*
%TO.P,U1,26,IO21_I2C_SDA*%
%TO.N,unconnected-(U1-IO21_I2C_SDA-Pad26)*%
X85080000Y-53340000D03*
%TO.P,U1,25,IO19_MISO*%
%TO.N,unconnected-(U1-IO19_MISO-Pad25)*%
X87620000Y-53340000D03*
%TO.P,U1,24,IO18_SCK*%
%TO.N,unconnected-(U1-IO18_SCK-Pad24)*%
X90160000Y-53340000D03*
%TO.P,U1,23,IO5_CSO*%
%TO.N,unconnected-(U1-IO5_CSO-Pad23)*%
X92700000Y-53340000D03*
%TO.P,U1,22,IO17_TX2*%
%TO.N,/TX_COM*%
X95240000Y-53340000D03*
%TO.P,U1,21,IO16_RX2*%
%TO.N,/RX_COM*%
X97780000Y-53340000D03*
%TO.P,U1,20,IO4_AD10_TH0*%
%TO.N,unconnected-(U1-IO4_AD10_TH0-Pad20)*%
X100320000Y-53340000D03*
%TO.P,U1,19,IO2_AD12_TH2*%
%TO.N,unconnected-(U1-IO2_AD12_TH2-Pad19)*%
X102860000Y-53340000D03*
%TO.P,U1,18,IO15_AD13_TH3*%
%TO.N,unconnected-(U1-IO15_AD13_TH3-Pad18)*%
X105400000Y-53340000D03*
%TO.P,U1,17,GND*%
%TO.N,GND*%
X107940000Y-53340000D03*
D17*
%TO.P,U1,16,3V3*%
%TO.N,+3V3*%
X110480000Y-53340000D03*
D16*
%TO.P,U1,15,VIN*%
%TO.N,+5V*%
X110480000Y-78740000D03*
%TO.P,U1,14,GND*%
%TO.N,GND*%
X107940000Y-78740000D03*
%TO.P,U1,13,IO13_AD14_TH4*%
%TO.N,unconnected-(U1-IO13_AD14_TH4-Pad13)*%
X105400000Y-78740000D03*
%TO.P,U1,12,IO12_AD15_TH5*%
%TO.N,unconnected-(U1-IO12_AD15_TH5-Pad12)*%
X102860000Y-78740000D03*
%TO.P,U1,11,IO14_AD16_TH6*%
%TO.N,unconnected-(U1-IO14_AD16_TH6-Pad11)*%
X100320000Y-78740000D03*
%TO.P,U1,10,IO27_AD17_TH7*%
%TO.N,/ENCODER_D2*%
X97780000Y-78740000D03*
%TO.P,U1,9,IO26_AD19_DAC2*%
%TO.N,/ENCODER_D1*%
X95240000Y-78740000D03*
%TO.P,U1,8,IO25_AD18_DAC1*%
%TO.N,/ENCODER_C2*%
X92700000Y-78740000D03*
%TO.P,U1,7,IO33_AD5_TH8*%
%TO.N,/ENCODER_C1*%
X90160000Y-78740000D03*
%TO.P,U1,6,IO32_AD4_TH9*%
%TO.N,/ENCODER_B2*%
X87620000Y-78740000D03*
%TO.P,U1,5,I35_AD7*%
%TO.N,/ENCODER_B1*%
X85080000Y-78740000D03*
%TO.P,U1,4,I34_AD6*%
%TO.N,/ENCODER_A2*%
X82540000Y-78740000D03*
%TO.P,U1,3,I39_S_VN_AD3*%
%TO.N,/ENCODER_A1*%
X80000000Y-78740000D03*
%TO.P,U1,2,I36_S_VP_AD0*%
%TO.N,unconnected-(U1-I36_S_VP_AD0-Pad2)*%
X77460000Y-78740000D03*
%TO.P,U1,1,EN*%
%TO.N,unconnected-(U1-EN-Pad1)*%
X74920000Y-78740000D03*
%TD*%
D10*
%TO.P,H1,1*%
%TO.N,N/C*%
X59690000Y-51520000D03*
%TD*%
%TO.P,H2,1*%
%TO.N,N/C*%
X129540000Y-51520000D03*
%TD*%
%TO.P,H3,1*%
%TO.N,N/C*%
X59690000Y-90890000D03*
%TD*%
D18*
%TO.N,/ENCODER_D1*%
X104140000Y-83820000D02*
X105430000Y-85110000D01*
X105430000Y-85110000D02*
X105430000Y-86360000D01*
X99060000Y-83820000D02*
X104140000Y-83820000D01*
X95240000Y-78740000D02*
X95240000Y-80000000D01*
X95240000Y-80000000D02*
X99060000Y-83820000D01*
D19*
%TO.N,+5V*%
X99120000Y-90170000D02*
X104140000Y-90170000D01*
X102930000Y-86360000D02*
X99120000Y-90170000D01*
D18*
X66040000Y-73660000D02*
X62230000Y-69850000D01*
D19*
X62230000Y-69850000D02*
X62230000Y-59690000D01*
X62230000Y-83820000D02*
X62230000Y-69850000D01*
X116840000Y-90170000D02*
X104140000Y-90170000D01*
X125730000Y-81280000D02*
X116840000Y-90170000D01*
X125730000Y-69730000D02*
X125730000Y-81280000D01*
D18*
%TO.N,/TX_COM*%
X104220000Y-67230000D02*
X125730000Y-67230000D01*
X104140000Y-67310000D02*
X104220000Y-67230000D01*
X95240000Y-58410000D02*
X104140000Y-67310000D01*
X95240000Y-53340000D02*
X95240000Y-58410000D01*
%TO.N,/RX_COM*%
X97780000Y-57140000D02*
X97780000Y-53340000D01*
X105370000Y-64730000D02*
X97780000Y-57140000D01*
X125730000Y-64730000D02*
X105370000Y-64730000D01*
D19*
%TO.N,+5V*%
X64730000Y-57190000D02*
X66040000Y-57190000D01*
X62230000Y-59690000D02*
X64730000Y-57190000D01*
X68580000Y-90170000D02*
X62230000Y-83820000D01*
X86360000Y-90170000D02*
X68580000Y-90170000D01*
X119490000Y-69730000D02*
X125730000Y-69730000D01*
X110480000Y-78740000D02*
X119490000Y-69730000D01*
D18*
%TO.N,/ENCODER_A1*%
X80000000Y-80020000D02*
X80000000Y-78740000D01*
X77470000Y-82550000D02*
X80000000Y-80020000D01*
X69770000Y-78660000D02*
X73660000Y-82550000D01*
X66040000Y-78660000D02*
X69770000Y-78660000D01*
X73660000Y-82550000D02*
X77470000Y-82550000D01*
%TO.N,/ENCODER_A2*%
X82540000Y-77480000D02*
X82540000Y-78740000D01*
X82550000Y-77470000D02*
X82540000Y-77480000D01*
X66040000Y-76160000D02*
X81240000Y-76160000D01*
X81240000Y-76160000D02*
X82550000Y-77470000D01*
%TO.N,/ENCODER_B1*%
X85080000Y-74940000D02*
X85080000Y-78740000D01*
X85090000Y-74930000D02*
X85080000Y-74940000D01*
X85090000Y-73660000D02*
X85090000Y-74930000D01*
X73620000Y-62190000D02*
X85090000Y-73660000D01*
X66040000Y-62190000D02*
X73620000Y-62190000D01*
%TO.N,/ENCODER_B2*%
X87630000Y-72390000D02*
X87620000Y-72400000D01*
X87630000Y-71120000D02*
X87630000Y-72390000D01*
X76200000Y-59690000D02*
X87630000Y-71120000D01*
X66040000Y-59690000D02*
X76200000Y-59690000D01*
X87620000Y-72400000D02*
X87620000Y-78740000D01*
%TO.N,/ENCODER_C2*%
X88820000Y-85537500D02*
X92700000Y-81657500D01*
X88820000Y-86360000D02*
X88820000Y-85537500D01*
X92700000Y-81657500D02*
X92700000Y-78740000D01*
%TO.N,/ENCODER_C1*%
X90170000Y-80010000D02*
X90160000Y-80000000D01*
X90170000Y-81280000D02*
X90170000Y-80010000D01*
X90160000Y-80000000D02*
X90160000Y-78740000D01*
X86320000Y-85130000D02*
X90170000Y-81280000D01*
X86320000Y-86360000D02*
X86320000Y-85130000D01*
D19*
%TO.N,+5V*%
X83820000Y-86360000D02*
X83820000Y-87630000D01*
X88900000Y-90170000D02*
X86360000Y-90170000D01*
X83820000Y-87630000D02*
X86360000Y-90170000D01*
X104140000Y-90170000D02*
X88900000Y-90170000D01*
%TD*%
%TA.AperFunction,Conductor*%
%TO.N,GND*%
G36*
X63693703Y-72740383D02*
G01*
X63700181Y-72746415D01*
X64520181Y-73566415D01*
X64553666Y-73627738D01*
X64556500Y-73654096D01*
X64556500Y-73766915D01*
X64589951Y-73978117D01*
X64656026Y-74181480D01*
X64656027Y-74181483D01*
X64753106Y-74372009D01*
X64878794Y-74545004D01*
X65029996Y-74696206D01*
X65132344Y-74770566D01*
X65186182Y-74809682D01*
X65228847Y-74865012D01*
X65234826Y-74934626D01*
X65202220Y-74996421D01*
X65186182Y-75010318D01*
X65117297Y-75060365D01*
X65029996Y-75123794D01*
X65029994Y-75123796D01*
X65029993Y-75123796D01*
X64878796Y-75274993D01*
X64753106Y-75447990D01*
X64656027Y-75638516D01*
X64656026Y-75638519D01*
X64589951Y-75841882D01*
X64556500Y-76053084D01*
X64556500Y-76266915D01*
X64589951Y-76478117D01*
X64656026Y-76681480D01*
X64656027Y-76681483D01*
X64730231Y-76827115D01*
X64753106Y-76872009D01*
X64878794Y-77045004D01*
X65029996Y-77196206D01*
X65118902Y-77260800D01*
X65186182Y-77309682D01*
X65228847Y-77365012D01*
X65234826Y-77434626D01*
X65202220Y-77496421D01*
X65186182Y-77510318D01*
X65177825Y-77516390D01*
X65029996Y-77623794D01*
X65029994Y-77623796D01*
X65029993Y-77623796D01*
X64878796Y-77774993D01*
X64753106Y-77947990D01*
X64656027Y-78138516D01*
X64656026Y-78138519D01*
X64589951Y-78341882D01*
X64556500Y-78553084D01*
X64556500Y-78766915D01*
X64589951Y-78978117D01*
X64656026Y-79181480D01*
X64656027Y-79181483D01*
X64690939Y-79250000D01*
X64753106Y-79372009D01*
X64878794Y-79545004D01*
X64878796Y-79545006D01*
X65017070Y-79683280D01*
X65050555Y-79744603D01*
X65045571Y-79814295D01*
X65003699Y-79870228D01*
X64994486Y-79876499D01*
X64846659Y-79967680D01*
X64846655Y-79967683D01*
X64722684Y-80091654D01*
X64630643Y-80240875D01*
X64630641Y-80240880D01*
X64575494Y-80407302D01*
X64575493Y-80407309D01*
X64565000Y-80510013D01*
X64565000Y-80910000D01*
X65635854Y-80910000D01*
X65597370Y-80976657D01*
X65565000Y-81097465D01*
X65565000Y-81222535D01*
X65597370Y-81343343D01*
X65635854Y-81410000D01*
X64565001Y-81410000D01*
X64565001Y-81809986D01*
X64575494Y-81912697D01*
X64630641Y-82079119D01*
X64630643Y-82079124D01*
X64722684Y-82228345D01*
X64846654Y-82352315D01*
X64995875Y-82444356D01*
X64995880Y-82444358D01*
X65162302Y-82499505D01*
X65162309Y-82499506D01*
X65265019Y-82509999D01*
X65789999Y-82509999D01*
X65790000Y-82509998D01*
X65790000Y-81564145D01*
X65856657Y-81602630D01*
X65977465Y-81635000D01*
X66102535Y-81635000D01*
X66223343Y-81602630D01*
X66290000Y-81564145D01*
X66290000Y-82509999D01*
X66814972Y-82509999D01*
X66814986Y-82509998D01*
X66917697Y-82499505D01*
X67084119Y-82444358D01*
X67084124Y-82444356D01*
X67233345Y-82352315D01*
X67357315Y-82228345D01*
X67449356Y-82079124D01*
X67449358Y-82079119D01*
X67504505Y-81912697D01*
X67504506Y-81912690D01*
X67514999Y-81809986D01*
X67515000Y-81809973D01*
X67515000Y-81410000D01*
X66444146Y-81410000D01*
X66482630Y-81343343D01*
X66515000Y-81222535D01*
X66515000Y-81097465D01*
X66482630Y-80976657D01*
X66444146Y-80910000D01*
X67514999Y-80910000D01*
X67514999Y-80510028D01*
X67514998Y-80510013D01*
X67504505Y-80407302D01*
X67449358Y-80240880D01*
X67449356Y-80240875D01*
X67357315Y-80091654D01*
X67233345Y-79967684D01*
X67120432Y-79898039D01*
X67073708Y-79846091D01*
X67062485Y-79777128D01*
X67090329Y-79713046D01*
X67148397Y-79674190D01*
X67185529Y-79668500D01*
X69300904Y-79668500D01*
X69367943Y-79688185D01*
X69388585Y-79704819D01*
X73017115Y-83333351D01*
X73017123Y-83333357D01*
X73182286Y-83443715D01*
X73182289Y-83443716D01*
X73182297Y-83443722D01*
X73289809Y-83488254D01*
X73365831Y-83519744D01*
X73560666Y-83558499D01*
X73560670Y-83558500D01*
X73560671Y-83558500D01*
X77569330Y-83558500D01*
X77569331Y-83558499D01*
X77764169Y-83519744D01*
X77947704Y-83443721D01*
X78112881Y-83333353D01*
X78253353Y-83192881D01*
X80783353Y-80662881D01*
X80893721Y-80497704D01*
X80969744Y-80314169D01*
X81008500Y-80119329D01*
X81008500Y-79920672D01*
X81008500Y-79919633D01*
X81028185Y-79852594D01*
X81051971Y-79825341D01*
X81069959Y-79809978D01*
X81069962Y-79809975D01*
X81069969Y-79809969D01*
X81175711Y-79686160D01*
X81234216Y-79647968D01*
X81304084Y-79647469D01*
X81363131Y-79684823D01*
X81364200Y-79686057D01*
X81441982Y-79777128D01*
X81470031Y-79809969D01*
X81650586Y-79964178D01*
X81650588Y-79964178D01*
X81709133Y-80000055D01*
X81853037Y-80088240D01*
X81853040Y-80088242D01*
X82072403Y-80179104D01*
X82072404Y-80179104D01*
X82072406Y-80179105D01*
X82303289Y-80234535D01*
X82540000Y-80253165D01*
X82776711Y-80234535D01*
X83007594Y-80179105D01*
X83007596Y-80179104D01*
X83007597Y-80179104D01*
X83226959Y-80088242D01*
X83226960Y-80088241D01*
X83226963Y-80088240D01*
X83429416Y-79964176D01*
X83609969Y-79809969D01*
X83715711Y-79686160D01*
X83774216Y-79647968D01*
X83844084Y-79647469D01*
X83903131Y-79684823D01*
X83904200Y-79686057D01*
X83981982Y-79777128D01*
X84010031Y-79809969D01*
X84190586Y-79964178D01*
X84190588Y-79964178D01*
X84249133Y-80000055D01*
X84393037Y-80088240D01*
X84393040Y-80088242D01*
X84612403Y-80179104D01*
X84612404Y-80179104D01*
X84612406Y-80179105D01*
X84843289Y-80234535D01*
X85080000Y-80253165D01*
X85316711Y-80234535D01*
X85547594Y-80179105D01*
X85547596Y-80179104D01*
X85547597Y-80179104D01*
X85766959Y-80088242D01*
X85766960Y-80088241D01*
X85766963Y-80088240D01*
X85969416Y-79964176D01*
X86149969Y-79809969D01*
X86255711Y-79686160D01*
X86314216Y-79647968D01*
X86384084Y-79647469D01*
X86443131Y-79684823D01*
X86444200Y-79686057D01*
X86521982Y-79777128D01*
X86550031Y-79809969D01*
X86730586Y-79964178D01*
X86730588Y-79964178D01*
X86789133Y-80000055D01*
X86933037Y-80088240D01*
X86933040Y-80088242D01*
X87152403Y-80179104D01*
X87152404Y-80179104D01*
X87152406Y-80179105D01*
X87383289Y-80234535D01*
X87620000Y-80253165D01*
X87856711Y-80234535D01*
X88087594Y-80179105D01*
X88087596Y-80179104D01*
X88087597Y-80179104D01*
X88306959Y-80088242D01*
X88306960Y-80088241D01*
X88306963Y-80088240D01*
X88509416Y-79964176D01*
X88689969Y-79809969D01*
X88795711Y-79686160D01*
X88854216Y-79647968D01*
X88924084Y-79647469D01*
X88983131Y-79684823D01*
X88984200Y-79686057D01*
X89090031Y-79809969D01*
X89090035Y-79809972D01*
X89090040Y-79809978D01*
X89108029Y-79825341D01*
X89146224Y-79883847D01*
X89151500Y-79919633D01*
X89151500Y-80099330D01*
X89154087Y-80112335D01*
X89155478Y-80119330D01*
X89159117Y-80137620D01*
X89161500Y-80161813D01*
X89161500Y-80810904D01*
X89141815Y-80877943D01*
X89125181Y-80898585D01*
X85677119Y-84346647D01*
X85606882Y-84416884D01*
X85536645Y-84487120D01*
X85426282Y-84652289D01*
X85426277Y-84652298D01*
X85350256Y-84835830D01*
X85350254Y-84835838D01*
X85311500Y-85030666D01*
X85311500Y-85271810D01*
X85291815Y-85338849D01*
X85286531Y-85345962D01*
X85286658Y-85346055D01*
X85283796Y-85349993D01*
X85283794Y-85349996D01*
X85220660Y-85436893D01*
X85170318Y-85506182D01*
X85114988Y-85548847D01*
X85045374Y-85554826D01*
X84983579Y-85522220D01*
X84969682Y-85506182D01*
X84944930Y-85472115D01*
X84856206Y-85349996D01*
X84705004Y-85198794D01*
X84532009Y-85073106D01*
X84341483Y-84976027D01*
X84341480Y-84976026D01*
X84138117Y-84909951D01*
X84032516Y-84893225D01*
X83926916Y-84876500D01*
X83713084Y-84876500D01*
X83659411Y-84885001D01*
X83501882Y-84909951D01*
X83298519Y-84976026D01*
X83298516Y-84976027D01*
X83107990Y-85073106D01*
X82934993Y-85198796D01*
X82783796Y-85349993D01*
X82658106Y-85522990D01*
X82561027Y-85713516D01*
X82561026Y-85713519D01*
X82494951Y-85916882D01*
X82461500Y-86128084D01*
X82461500Y-86591915D01*
X82494951Y-86803117D01*
X82555431Y-86989256D01*
X82561500Y-87027574D01*
X82561500Y-87729051D01*
X82592487Y-87924700D01*
X82653703Y-88113101D01*
X82743634Y-88289598D01*
X82860070Y-88449858D01*
X82860072Y-88449860D01*
X83110031Y-88699819D01*
X83143516Y-88761142D01*
X83138532Y-88830834D01*
X83096660Y-88886767D01*
X83031196Y-88911184D01*
X83022350Y-88911500D01*
X69152650Y-88911500D01*
X69085611Y-88891815D01*
X69064969Y-88875181D01*
X63524819Y-83335031D01*
X63491334Y-83273708D01*
X63488500Y-83247350D01*
X63488500Y-72834096D01*
X63508185Y-72767057D01*
X63560989Y-72721302D01*
X63630147Y-72711358D01*
X63693703Y-72740383D01*
G37*
%TD.AperFunction*%
%TA.AperFunction,Conductor*%
G36*
X94063131Y-79684823D02*
G01*
X94064200Y-79686057D01*
X94170031Y-79809969D01*
X94170035Y-79809972D01*
X94170040Y-79809978D01*
X94188029Y-79825341D01*
X94226224Y-79883847D01*
X94231500Y-79919633D01*
X94231500Y-80099333D01*
X94270254Y-80294161D01*
X94270256Y-80294169D01*
X94339005Y-80460142D01*
X94339006Y-80460146D01*
X94346275Y-80477696D01*
X94346279Y-80477704D01*
X94456646Y-80642880D01*
X94456649Y-80642884D01*
X98417115Y-84603351D01*
X98417119Y-84603354D01*
X98582289Y-84713718D01*
X98582291Y-84713719D01*
X98582296Y-84713722D01*
X98712075Y-84767477D01*
X98765831Y-84789744D01*
X98897015Y-84815838D01*
X98960666Y-84828499D01*
X98960670Y-84828500D01*
X98960671Y-84828500D01*
X99159329Y-84828500D01*
X102181560Y-84828500D01*
X102248599Y-84848185D01*
X102294354Y-84900989D01*
X102304298Y-84970147D01*
X102275273Y-85033703D01*
X102237855Y-85062985D01*
X102217990Y-85073106D01*
X102044993Y-85198796D01*
X101893796Y-85349993D01*
X101768106Y-85522990D01*
X101671027Y-85713516D01*
X101671026Y-85713519D01*
X101619744Y-85871354D01*
X101589493Y-85920717D01*
X100104699Y-87405513D01*
X98635031Y-88875181D01*
X98573708Y-88908666D01*
X98547350Y-88911500D01*
X86932650Y-88911500D01*
X86865611Y-88891815D01*
X86844969Y-88875181D01*
X86007904Y-88038116D01*
X85974419Y-87976793D01*
X85979403Y-87907101D01*
X86021275Y-87851168D01*
X86086739Y-87826751D01*
X86114980Y-87827961D01*
X86213084Y-87843500D01*
X86213085Y-87843500D01*
X86426915Y-87843500D01*
X86426916Y-87843500D01*
X86638116Y-87810049D01*
X86841483Y-87743972D01*
X87032009Y-87646894D01*
X87205004Y-87521206D01*
X87356206Y-87370004D01*
X87433076Y-87264200D01*
X87469682Y-87213818D01*
X87525012Y-87171152D01*
X87594625Y-87165173D01*
X87656420Y-87197779D01*
X87670318Y-87213818D01*
X87768856Y-87349444D01*
X87783794Y-87370004D01*
X87934996Y-87521206D01*
X88107991Y-87646894D01*
X88201438Y-87694507D01*
X88298516Y-87743972D01*
X88298519Y-87743973D01*
X88376642Y-87769356D01*
X88501884Y-87810049D01*
X88713084Y-87843500D01*
X88713085Y-87843500D01*
X88926915Y-87843500D01*
X88926916Y-87843500D01*
X89138116Y-87810049D01*
X89341483Y-87743972D01*
X89532009Y-87646894D01*
X89705004Y-87521206D01*
X89843283Y-87382926D01*
X89904602Y-87349444D01*
X89974294Y-87354428D01*
X90030228Y-87396299D01*
X90036499Y-87405513D01*
X90127680Y-87553340D01*
X90127683Y-87553344D01*
X90251654Y-87677315D01*
X90400875Y-87769356D01*
X90400880Y-87769358D01*
X90567302Y-87824505D01*
X90567309Y-87824506D01*
X90670019Y-87834999D01*
X91069999Y-87834999D01*
X91070000Y-87834998D01*
X91070000Y-86764145D01*
X91136657Y-86802630D01*
X91257465Y-86835000D01*
X91382535Y-86835000D01*
X91503343Y-86802630D01*
X91570000Y-86764145D01*
X91570000Y-87834999D01*
X91969972Y-87834999D01*
X91969986Y-87834998D01*
X92072697Y-87824505D01*
X92239119Y-87769358D01*
X92239124Y-87769356D01*
X92388345Y-87677315D01*
X92512315Y-87553345D01*
X92604356Y-87404124D01*
X92604358Y-87404119D01*
X92659505Y-87237697D01*
X92659506Y-87237690D01*
X92669999Y-87134986D01*
X92670000Y-87134973D01*
X92670000Y-86610000D01*
X91724146Y-86610000D01*
X91762630Y-86543343D01*
X91795000Y-86422535D01*
X91795000Y-86297465D01*
X91762630Y-86176657D01*
X91724146Y-86110000D01*
X92669999Y-86110000D01*
X92669999Y-85585028D01*
X92669998Y-85585013D01*
X92659505Y-85482302D01*
X92604358Y-85315880D01*
X92604356Y-85315875D01*
X92512315Y-85166654D01*
X92388345Y-85042684D01*
X92239124Y-84950643D01*
X92239119Y-84950641D01*
X92072697Y-84895494D01*
X92072690Y-84895493D01*
X91969986Y-84885000D01*
X91570000Y-84885000D01*
X91570000Y-85955854D01*
X91503343Y-85917370D01*
X91382535Y-85885000D01*
X91257465Y-85885000D01*
X91136657Y-85917370D01*
X91070000Y-85955854D01*
X91070000Y-84883298D01*
X91038562Y-84825724D01*
X91043546Y-84756032D01*
X91072044Y-84711689D01*
X93483354Y-82300381D01*
X93593722Y-82135203D01*
X93669744Y-81951668D01*
X93678606Y-81907119D01*
X93708500Y-81756829D01*
X93708500Y-79919633D01*
X93728185Y-79852594D01*
X93751971Y-79825341D01*
X93769959Y-79809978D01*
X93769962Y-79809975D01*
X93769969Y-79809969D01*
X93875711Y-79686160D01*
X93934216Y-79647968D01*
X94004084Y-79647469D01*
X94063131Y-79684823D01*
G37*
%TD.AperFunction*%
%TA.AperFunction,Conductor*%
G36*
X124414539Y-71008185D02*
G01*
X124460294Y-71060989D01*
X124471500Y-71112500D01*
X124471500Y-80707350D01*
X124451815Y-80774389D01*
X124435181Y-80795031D01*
X116355031Y-88875181D01*
X116293708Y-88908666D01*
X116267350Y-88911500D01*
X102457650Y-88911500D01*
X102390611Y-88891815D01*
X102344856Y-88839011D01*
X102334912Y-88769853D01*
X102363937Y-88706297D01*
X102369969Y-88699819D01*
X102588288Y-88481500D01*
X103244284Y-87825502D01*
X103293641Y-87795256D01*
X103451483Y-87743972D01*
X103642009Y-87646894D01*
X103815004Y-87521206D01*
X103966206Y-87370004D01*
X104043076Y-87264200D01*
X104079682Y-87213818D01*
X104135012Y-87171152D01*
X104204625Y-87165173D01*
X104266420Y-87197779D01*
X104280318Y-87213818D01*
X104378856Y-87349444D01*
X104393794Y-87370004D01*
X104544996Y-87521206D01*
X104717991Y-87646894D01*
X104811438Y-87694507D01*
X104908516Y-87743972D01*
X104908519Y-87743973D01*
X104986642Y-87769356D01*
X105111884Y-87810049D01*
X105323084Y-87843500D01*
X105323085Y-87843500D01*
X105536915Y-87843500D01*
X105536916Y-87843500D01*
X105748116Y-87810049D01*
X105951483Y-87743972D01*
X106142009Y-87646894D01*
X106315004Y-87521206D01*
X106466206Y-87370004D01*
X106543076Y-87264200D01*
X106579682Y-87213818D01*
X106635012Y-87171152D01*
X106704625Y-87165173D01*
X106766420Y-87197779D01*
X106780318Y-87213818D01*
X106878856Y-87349444D01*
X106893794Y-87370004D01*
X107044996Y-87521206D01*
X107217991Y-87646894D01*
X107311438Y-87694507D01*
X107408516Y-87743972D01*
X107408519Y-87743973D01*
X107486642Y-87769356D01*
X107611884Y-87810049D01*
X107823084Y-87843500D01*
X107823085Y-87843500D01*
X108036915Y-87843500D01*
X108036916Y-87843500D01*
X108248116Y-87810049D01*
X108451483Y-87743972D01*
X108642009Y-87646894D01*
X108815004Y-87521206D01*
X108953283Y-87382926D01*
X109014602Y-87349444D01*
X109084294Y-87354428D01*
X109140228Y-87396299D01*
X109146499Y-87405513D01*
X109237680Y-87553340D01*
X109237683Y-87553344D01*
X109361654Y-87677315D01*
X109510875Y-87769356D01*
X109510880Y-87769358D01*
X109677302Y-87824505D01*
X109677309Y-87824506D01*
X109780019Y-87834999D01*
X110179999Y-87834999D01*
X110180000Y-87834998D01*
X110180000Y-86764145D01*
X110246657Y-86802630D01*
X110367465Y-86835000D01*
X110492535Y-86835000D01*
X110613343Y-86802630D01*
X110680000Y-86764145D01*
X110680000Y-87834999D01*
X111079972Y-87834999D01*
X111079986Y-87834998D01*
X111182697Y-87824505D01*
X111349119Y-87769358D01*
X111349124Y-87769356D01*
X111498345Y-87677315D01*
X111622315Y-87553345D01*
X111714356Y-87404124D01*
X111714358Y-87404119D01*
X111769505Y-87237697D01*
X111769506Y-87237690D01*
X111779999Y-87134986D01*
X111780000Y-87134973D01*
X111780000Y-86610000D01*
X110834146Y-86610000D01*
X110872630Y-86543343D01*
X110905000Y-86422535D01*
X110905000Y-86297465D01*
X110872630Y-86176657D01*
X110834146Y-86110000D01*
X111779999Y-86110000D01*
X111779999Y-85585028D01*
X111779998Y-85585013D01*
X111769505Y-85482302D01*
X111714358Y-85315880D01*
X111714356Y-85315875D01*
X111622315Y-85166654D01*
X111498345Y-85042684D01*
X111349124Y-84950643D01*
X111349119Y-84950641D01*
X111182697Y-84895494D01*
X111182690Y-84895493D01*
X111079986Y-84885000D01*
X110680000Y-84885000D01*
X110680000Y-85955854D01*
X110613343Y-85917370D01*
X110492535Y-85885000D01*
X110367465Y-85885000D01*
X110246657Y-85917370D01*
X110180000Y-85955854D01*
X110180000Y-84885000D01*
X109780028Y-84885000D01*
X109780012Y-84885001D01*
X109677302Y-84895494D01*
X109510880Y-84950641D01*
X109510875Y-84950643D01*
X109361654Y-85042684D01*
X109237683Y-85166655D01*
X109237680Y-85166659D01*
X109146499Y-85314486D01*
X109094551Y-85361211D01*
X109025589Y-85372432D01*
X108961507Y-85344589D01*
X108953280Y-85337070D01*
X108815006Y-85198796D01*
X108815004Y-85198794D01*
X108642009Y-85073106D01*
X108451483Y-84976027D01*
X108451480Y-84976026D01*
X108248117Y-84909951D01*
X108142516Y-84893225D01*
X108036916Y-84876500D01*
X107823084Y-84876500D01*
X107769411Y-84885001D01*
X107611882Y-84909951D01*
X107408519Y-84976026D01*
X107408516Y-84976027D01*
X107217990Y-85073106D01*
X107044993Y-85198796D01*
X106893796Y-85349993D01*
X106893796Y-85349994D01*
X106893794Y-85349996D01*
X106830660Y-85436893D01*
X106780318Y-85506182D01*
X106724988Y-85548847D01*
X106655374Y-85554826D01*
X106593579Y-85522220D01*
X106579682Y-85506182D01*
X106529340Y-85436893D01*
X106466206Y-85349996D01*
X106466203Y-85349993D01*
X106463342Y-85346055D01*
X106464882Y-85344935D01*
X106439634Y-85288544D01*
X106438500Y-85271810D01*
X106438500Y-85010670D01*
X106438499Y-85010666D01*
X106426559Y-84950641D01*
X106399744Y-84815831D01*
X106323721Y-84632296D01*
X106323720Y-84632295D01*
X106323717Y-84632289D01*
X106213354Y-84467120D01*
X106213353Y-84467119D01*
X106072881Y-84326647D01*
X105665280Y-83919046D01*
X104782884Y-83036649D01*
X104782880Y-83036646D01*
X104617710Y-82926282D01*
X104617701Y-82926277D01*
X104434169Y-82850256D01*
X104434161Y-82850254D01*
X104239333Y-82811500D01*
X104239329Y-82811500D01*
X99529097Y-82811500D01*
X99462058Y-82791815D01*
X99441416Y-82775181D01*
X98204901Y-81538666D01*
X96955876Y-80289642D01*
X96922392Y-80228320D01*
X96927376Y-80158628D01*
X96969248Y-80102695D01*
X97034712Y-80078278D01*
X97091010Y-80087401D01*
X97312403Y-80179104D01*
X97312404Y-80179104D01*
X97312406Y-80179105D01*
X97543289Y-80234535D01*
X97780000Y-80253165D01*
X98016711Y-80234535D01*
X98247594Y-80179105D01*
X98247596Y-80179104D01*
X98247597Y-80179104D01*
X98466959Y-80088242D01*
X98466960Y-80088241D01*
X98466963Y-80088240D01*
X98669416Y-79964176D01*
X98849969Y-79809969D01*
X98955711Y-79686160D01*
X99014216Y-79647968D01*
X99084084Y-79647469D01*
X99143131Y-79684823D01*
X99144200Y-79686057D01*
X99221982Y-79777128D01*
X99250031Y-79809969D01*
X99430586Y-79964178D01*
X99430588Y-79964178D01*
X99489133Y-80000055D01*
X99633037Y-80088240D01*
X99633040Y-80088242D01*
X99852403Y-80179104D01*
X99852404Y-80179104D01*
X99852406Y-80179105D01*
X100083289Y-80234535D01*
X100320000Y-80253165D01*
X100556711Y-80234535D01*
X100787594Y-80179105D01*
X100787596Y-80179104D01*
X100787597Y-80179104D01*
X101006959Y-80088242D01*
X101006960Y-80088241D01*
X101006963Y-80088240D01*
X101209416Y-79964176D01*
X101389969Y-79809969D01*
X101495711Y-79686160D01*
X101554216Y-79647968D01*
X101624084Y-79647469D01*
X101683131Y-79684823D01*
X101684200Y-79686057D01*
X101761982Y-79777128D01*
X101790031Y-79809969D01*
X101970586Y-79964178D01*
X101970588Y-79964178D01*
X102029133Y-80000055D01*
X102173037Y-80088240D01*
X102173040Y-80088242D01*
X102392403Y-80179104D01*
X102392404Y-80179104D01*
X102392406Y-80179105D01*
X102623289Y-80234535D01*
X102860000Y-80253165D01*
X103096711Y-80234535D01*
X103327594Y-80179105D01*
X103327596Y-80179104D01*
X103327597Y-80179104D01*
X103546959Y-80088242D01*
X103546960Y-80088241D01*
X103546963Y-80088240D01*
X103749416Y-79964176D01*
X103929969Y-79809969D01*
X104035711Y-79686160D01*
X104094216Y-79647968D01*
X104164084Y-79647469D01*
X104223131Y-79684823D01*
X104224200Y-79686057D01*
X104301982Y-79777128D01*
X104330031Y-79809969D01*
X104510586Y-79964178D01*
X104510588Y-79964178D01*
X104569133Y-80000055D01*
X104713037Y-80088240D01*
X104713040Y-80088242D01*
X104932403Y-80179104D01*
X104932404Y-80179104D01*
X104932406Y-80179105D01*
X105163289Y-80234535D01*
X105400000Y-80253165D01*
X105636711Y-80234535D01*
X105867594Y-80179105D01*
X105867596Y-80179104D01*
X105867597Y-80179104D01*
X106086959Y-80088242D01*
X106086960Y-80088241D01*
X106086963Y-80088240D01*
X106289416Y-79964176D01*
X106469969Y-79809969D01*
X106604721Y-79652195D01*
X106663228Y-79614002D01*
X106711802Y-79609388D01*
X106716565Y-79609881D01*
X107448871Y-78877575D01*
X107464755Y-78936853D01*
X107531898Y-79053147D01*
X107626853Y-79148102D01*
X107743147Y-79215245D01*
X107802424Y-79231128D01*
X107069942Y-79963609D01*
X107116768Y-80000055D01*
X107116770Y-80000056D01*
X107335385Y-80118364D01*
X107335396Y-80118369D01*
X107570506Y-80199083D01*
X107815707Y-80240000D01*
X108064293Y-80240000D01*
X108309493Y-80199083D01*
X108544603Y-80118369D01*
X108544614Y-80118364D01*
X108763228Y-80000057D01*
X108763231Y-80000055D01*
X108810056Y-79963609D01*
X108077575Y-79231128D01*
X108136853Y-79215245D01*
X108253147Y-79148102D01*
X108348102Y-79053147D01*
X108415245Y-78936853D01*
X108431127Y-78877575D01*
X109163433Y-79609881D01*
X109168196Y-79609388D01*
X109236909Y-79622051D01*
X109275276Y-79652192D01*
X109410031Y-79809969D01*
X109549797Y-79929340D01*
X109590586Y-79964178D01*
X109590588Y-79964178D01*
X109649133Y-80000055D01*
X109793037Y-80088240D01*
X109793040Y-80088242D01*
X110012403Y-80179104D01*
X110012404Y-80179104D01*
X110012406Y-80179105D01*
X110243289Y-80234535D01*
X110480000Y-80253165D01*
X110716711Y-80234535D01*
X110947594Y-80179105D01*
X110947596Y-80179104D01*
X110947597Y-80179104D01*
X111166959Y-80088242D01*
X111166960Y-80088241D01*
X111166963Y-80088240D01*
X111369416Y-79964176D01*
X111549969Y-79809969D01*
X111704176Y-79629416D01*
X111828240Y-79426963D01*
X111919105Y-79207594D01*
X111951035Y-79074592D01*
X111983926Y-79015860D01*
X119974969Y-71024819D01*
X120036292Y-70991334D01*
X120062650Y-70988500D01*
X124347500Y-70988500D01*
X124414539Y-71008185D01*
G37*
%TD.AperFunction*%
%TA.AperFunction,Conductor*%
G36*
X64500425Y-59301874D02*
G01*
X64556359Y-59343746D01*
X64580776Y-59409210D01*
X64579565Y-59437453D01*
X64556500Y-59583083D01*
X64556500Y-59796915D01*
X64589951Y-60008117D01*
X64656026Y-60211480D01*
X64656027Y-60211483D01*
X64682098Y-60262649D01*
X64753106Y-60402009D01*
X64878794Y-60575004D01*
X65029996Y-60726206D01*
X65132344Y-60800566D01*
X65186182Y-60839682D01*
X65228847Y-60895012D01*
X65234826Y-60964626D01*
X65202220Y-61026421D01*
X65186182Y-61040318D01*
X65117297Y-61090365D01*
X65029996Y-61153794D01*
X65029994Y-61153796D01*
X65029993Y-61153796D01*
X64878796Y-61304993D01*
X64753106Y-61477990D01*
X64656027Y-61668516D01*
X64656026Y-61668519D01*
X64589951Y-61871882D01*
X64556500Y-62083084D01*
X64556500Y-62296915D01*
X64589951Y-62508117D01*
X64656026Y-62711480D01*
X64656027Y-62711483D01*
X64741878Y-62879973D01*
X64753106Y-62902009D01*
X64878794Y-63075004D01*
X64878796Y-63075006D01*
X65017070Y-63213280D01*
X65050555Y-63274603D01*
X65045571Y-63344295D01*
X65003699Y-63400228D01*
X64994486Y-63406499D01*
X64846659Y-63497680D01*
X64846655Y-63497683D01*
X64722684Y-63621654D01*
X64630643Y-63770875D01*
X64630641Y-63770880D01*
X64575494Y-63937302D01*
X64575493Y-63937309D01*
X64565000Y-64040013D01*
X64565000Y-64440000D01*
X65635854Y-64440000D01*
X65597370Y-64506657D01*
X65565000Y-64627465D01*
X65565000Y-64752535D01*
X65597370Y-64873343D01*
X65635854Y-64940000D01*
X64565001Y-64940000D01*
X64565001Y-65339986D01*
X64575494Y-65442697D01*
X64630641Y-65609119D01*
X64630643Y-65609124D01*
X64722684Y-65758345D01*
X64846654Y-65882315D01*
X64995875Y-65974356D01*
X64995880Y-65974358D01*
X65162302Y-66029505D01*
X65162309Y-66029506D01*
X65265019Y-66039999D01*
X65789999Y-66039999D01*
X65790000Y-66039998D01*
X65790000Y-65094145D01*
X65856657Y-65132630D01*
X65977465Y-65165000D01*
X66102535Y-65165000D01*
X66223343Y-65132630D01*
X66290000Y-65094145D01*
X66290000Y-66039999D01*
X66814972Y-66039999D01*
X66814986Y-66039998D01*
X66917697Y-66029505D01*
X67084119Y-65974358D01*
X67084124Y-65974356D01*
X67233345Y-65882315D01*
X67357315Y-65758345D01*
X67449356Y-65609124D01*
X67449358Y-65609119D01*
X67504505Y-65442697D01*
X67504506Y-65442690D01*
X67514999Y-65339986D01*
X67515000Y-65339973D01*
X67515000Y-64940000D01*
X66444146Y-64940000D01*
X66482630Y-64873343D01*
X66515000Y-64752535D01*
X66515000Y-64627465D01*
X66482630Y-64506657D01*
X66444146Y-64440000D01*
X67514999Y-64440000D01*
X67514999Y-64040028D01*
X67514998Y-64040013D01*
X67504505Y-63937302D01*
X67449358Y-63770880D01*
X67449356Y-63770875D01*
X67357315Y-63621654D01*
X67233345Y-63497684D01*
X67120432Y-63428039D01*
X67073708Y-63376091D01*
X67062485Y-63307128D01*
X67090329Y-63243046D01*
X67148397Y-63204190D01*
X67185529Y-63198500D01*
X73150904Y-63198500D01*
X73217943Y-63218185D01*
X73238585Y-63234819D01*
X84045181Y-74041415D01*
X84078666Y-74102738D01*
X84081500Y-74129096D01*
X84081500Y-74778185D01*
X84079117Y-74802377D01*
X84071500Y-74840669D01*
X84071500Y-77560366D01*
X84051815Y-77627405D01*
X84028032Y-77654656D01*
X84010037Y-77670025D01*
X84010031Y-77670031D01*
X83920383Y-77774996D01*
X83904290Y-77793838D01*
X83845783Y-77832031D01*
X83775915Y-77832529D01*
X83716869Y-77795176D01*
X83715710Y-77793838D01*
X83609969Y-77670031D01*
X83609966Y-77670029D01*
X83609965Y-77670027D01*
X83601964Y-77663193D01*
X83563774Y-77604685D01*
X83558500Y-77568907D01*
X83558500Y-77370668D01*
X83558499Y-77370666D01*
X83519746Y-77175839D01*
X83519743Y-77175830D01*
X83519108Y-77174298D01*
X83443722Y-76992297D01*
X83363348Y-76872009D01*
X83333357Y-76827123D01*
X83333351Y-76827115D01*
X81882884Y-75376649D01*
X81882880Y-75376646D01*
X81717710Y-75266282D01*
X81717701Y-75266277D01*
X81534169Y-75190256D01*
X81534161Y-75190254D01*
X81339333Y-75151500D01*
X81339329Y-75151500D01*
X67128189Y-75151500D01*
X67061150Y-75131815D01*
X67054038Y-75126530D01*
X67053946Y-75126658D01*
X66893818Y-75010318D01*
X66851152Y-74954988D01*
X66845173Y-74885375D01*
X66877779Y-74823580D01*
X66893818Y-74809682D01*
X66944200Y-74773076D01*
X67050004Y-74696206D01*
X67201206Y-74545004D01*
X67326894Y-74372009D01*
X67423972Y-74181483D01*
X67490049Y-73978116D01*
X67523500Y-73766916D01*
X67523500Y-73553084D01*
X67490049Y-73341884D01*
X67423972Y-73138517D01*
X67423972Y-73138516D01*
X67374507Y-73041438D01*
X67326894Y-72947991D01*
X67201206Y-72774996D01*
X67050004Y-72623794D01*
X66877009Y-72498106D01*
X66859783Y-72489329D01*
X66686483Y-72401027D01*
X66686480Y-72401026D01*
X66483117Y-72334951D01*
X66377516Y-72318225D01*
X66271916Y-72301500D01*
X66271915Y-72301500D01*
X66159097Y-72301500D01*
X66092058Y-72281815D01*
X66071416Y-72265181D01*
X63524819Y-69718584D01*
X63491334Y-69657261D01*
X63488500Y-69630903D01*
X63488500Y-60262649D01*
X63508185Y-60195610D01*
X63524814Y-60174973D01*
X64369413Y-59330373D01*
X64430734Y-59296890D01*
X64500425Y-59301874D01*
G37*
%TD.AperFunction*%
%TA.AperFunction,Conductor*%
G36*
X128833371Y-48999685D02*
G01*
X128879126Y-49052489D01*
X128889070Y-49121647D01*
X128860045Y-49185203D01*
X128801267Y-49222977D01*
X128797179Y-49224101D01*
X128796534Y-49224267D01*
X128794255Y-49224852D01*
X128512491Y-49336410D01*
X128512490Y-49336411D01*
X128246910Y-49482416D01*
X128246898Y-49482423D01*
X128001737Y-49660543D01*
X128001727Y-49660551D01*
X127780810Y-49868006D01*
X127587626Y-50101524D01*
X127425247Y-50357393D01*
X127425244Y-50357397D01*
X127425242Y-50357402D01*
X127296206Y-50631619D01*
X127296204Y-50631624D01*
X127296203Y-50631625D01*
X127241931Y-50798659D01*
X127202555Y-50919846D01*
X127145767Y-51217538D01*
X127145766Y-51217544D01*
X127145765Y-51217548D01*
X127126738Y-51519994D01*
X127126738Y-51520005D01*
X127145765Y-51822451D01*
X127145766Y-51822455D01*
X127145766Y-51822459D01*
X127145767Y-51822462D01*
X127202555Y-52120154D01*
X127214501Y-52156920D01*
X127296203Y-52408374D01*
X127296204Y-52408375D01*
X127296206Y-52408381D01*
X127425242Y-52682598D01*
X127425246Y-52682605D01*
X127425247Y-52682606D01*
X127587626Y-52938475D01*
X127587629Y-52938479D01*
X127587630Y-52938480D01*
X127780808Y-53171992D01*
X127959718Y-53339999D01*
X128001727Y-53379448D01*
X128001737Y-53379456D01*
X128246898Y-53557576D01*
X128246903Y-53557578D01*
X128246910Y-53557584D01*
X128512483Y-53703585D01*
X128512488Y-53703587D01*
X128512490Y-53703588D01*
X128512491Y-53703589D01*
X128794257Y-53815148D01*
X128794260Y-53815149D01*
X128892107Y-53840271D01*
X129087800Y-53890516D01*
X129235028Y-53909115D01*
X129388460Y-53928499D01*
X129388466Y-53928499D01*
X129388470Y-53928500D01*
X129388472Y-53928500D01*
X129691528Y-53928500D01*
X129691530Y-53928500D01*
X129691535Y-53928499D01*
X129691539Y-53928499D01*
X129771357Y-53918415D01*
X129992200Y-53890516D01*
X130285739Y-53815149D01*
X130285742Y-53815148D01*
X130567508Y-53703589D01*
X130567509Y-53703588D01*
X130567507Y-53703588D01*
X130567517Y-53703585D01*
X130833090Y-53557584D01*
X131078271Y-53379450D01*
X131299192Y-53171992D01*
X131492370Y-52938480D01*
X131654758Y-52682598D01*
X131783794Y-52408381D01*
X131877445Y-52120154D01*
X131904197Y-51979914D01*
X131936094Y-51917754D01*
X131996537Y-51882704D01*
X132066333Y-51885896D01*
X132123325Y-51926316D01*
X132149416Y-51991131D01*
X132150000Y-52003153D01*
X132150000Y-90406846D01*
X132130315Y-90473885D01*
X132077511Y-90519640D01*
X132008353Y-90529584D01*
X131944797Y-90500559D01*
X131907023Y-90441781D01*
X131904198Y-90430092D01*
X131877445Y-90289846D01*
X131783794Y-90001619D01*
X131654758Y-89727402D01*
X131492370Y-89471520D01*
X131299192Y-89238008D01*
X131078271Y-89030550D01*
X131078268Y-89030548D01*
X131078262Y-89030543D01*
X130833101Y-88852423D01*
X130833094Y-88852418D01*
X130833090Y-88852416D01*
X130567517Y-88706415D01*
X130567514Y-88706413D01*
X130567509Y-88706411D01*
X130567508Y-88706410D01*
X130285742Y-88594851D01*
X130285739Y-88594850D01*
X129992197Y-88519483D01*
X129691539Y-88481500D01*
X129691530Y-88481500D01*
X129388470Y-88481500D01*
X129388460Y-88481500D01*
X129087802Y-88519483D01*
X128794260Y-88594850D01*
X128794257Y-88594851D01*
X128512491Y-88706410D01*
X128512490Y-88706411D01*
X128246910Y-88852416D01*
X128246898Y-88852423D01*
X128001737Y-89030543D01*
X128001727Y-89030551D01*
X127780810Y-89238006D01*
X127587626Y-89471524D01*
X127425247Y-89727393D01*
X127425244Y-89727397D01*
X127425242Y-89727402D01*
X127296206Y-90001619D01*
X127296204Y-90001624D01*
X127296203Y-90001625D01*
X127241931Y-90168659D01*
X127202555Y-90289846D01*
X127145767Y-90587538D01*
X127145766Y-90587544D01*
X127145765Y-90587548D01*
X127126738Y-90889994D01*
X127126738Y-90890005D01*
X127145765Y-91192451D01*
X127145766Y-91192455D01*
X127145766Y-91192459D01*
X127145767Y-91192462D01*
X127202555Y-91490154D01*
X127202557Y-91490159D01*
X127296203Y-91778374D01*
X127296204Y-91778375D01*
X127296206Y-91778381D01*
X127425242Y-92052598D01*
X127425246Y-92052605D01*
X127425247Y-92052606D01*
X127587626Y-92308475D01*
X127587629Y-92308479D01*
X127587630Y-92308480D01*
X127780808Y-92541992D01*
X128001727Y-92749448D01*
X128001737Y-92749456D01*
X128246898Y-92927576D01*
X128246903Y-92927578D01*
X128246910Y-92927584D01*
X128512483Y-93073585D01*
X128512488Y-93073587D01*
X128512490Y-93073588D01*
X128512491Y-93073589D01*
X128794257Y-93185148D01*
X128794260Y-93185149D01*
X128892107Y-93210271D01*
X129087800Y-93260516D01*
X129235028Y-93279115D01*
X129388460Y-93298499D01*
X129388466Y-93298499D01*
X129388470Y-93298500D01*
X129388472Y-93298500D01*
X129691528Y-93298500D01*
X129691530Y-93298500D01*
X129691535Y-93298499D01*
X129691539Y-93298499D01*
X129771357Y-93288415D01*
X129992200Y-93260516D01*
X130285739Y-93185149D01*
X130285742Y-93185148D01*
X130567508Y-93073589D01*
X130567509Y-93073588D01*
X130567507Y-93073588D01*
X130567517Y-93073585D01*
X130833090Y-92927584D01*
X131078271Y-92749450D01*
X131299192Y-92541992D01*
X131492370Y-92308480D01*
X131654758Y-92052598D01*
X131783794Y-91778381D01*
X131877445Y-91490154D01*
X131904197Y-91349914D01*
X131936094Y-91287754D01*
X131996537Y-91252704D01*
X132066333Y-91255896D01*
X132123325Y-91296316D01*
X132149416Y-91361131D01*
X132150000Y-91373153D01*
X132150000Y-93856000D01*
X132130315Y-93923039D01*
X132077511Y-93968794D01*
X132026000Y-93980000D01*
X57274000Y-93980000D01*
X57206961Y-93960315D01*
X57161206Y-93907511D01*
X57150000Y-93856000D01*
X57150000Y-91649658D01*
X57169685Y-91582619D01*
X57222489Y-91536864D01*
X57291647Y-91526920D01*
X57355203Y-91555945D01*
X57391931Y-91611340D01*
X57446203Y-91778374D01*
X57446204Y-91778375D01*
X57446206Y-91778381D01*
X57575242Y-92052598D01*
X57575246Y-92052605D01*
X57575247Y-92052606D01*
X57737626Y-92308475D01*
X57737629Y-92308479D01*
X57737630Y-92308480D01*
X57930808Y-92541992D01*
X58151727Y-92749448D01*
X58151737Y-92749456D01*
X58396898Y-92927576D01*
X58396903Y-92927578D01*
X58396910Y-92927584D01*
X58662483Y-93073585D01*
X58662488Y-93073587D01*
X58662490Y-93073588D01*
X58662491Y-93073589D01*
X58944257Y-93185148D01*
X58944260Y-93185149D01*
X59042107Y-93210271D01*
X59237800Y-93260516D01*
X59385028Y-93279115D01*
X59538460Y-93298499D01*
X59538466Y-93298499D01*
X59538470Y-93298500D01*
X59538472Y-93298500D01*
X59841528Y-93298500D01*
X59841530Y-93298500D01*
X59841535Y-93298499D01*
X59841539Y-93298499D01*
X59921357Y-93288415D01*
X60142200Y-93260516D01*
X60435739Y-93185149D01*
X60435742Y-93185148D01*
X60717508Y-93073589D01*
X60717509Y-93073588D01*
X60717507Y-93073588D01*
X60717517Y-93073585D01*
X60983090Y-92927584D01*
X61228271Y-92749450D01*
X61449192Y-92541992D01*
X61642370Y-92308480D01*
X61804758Y-92052598D01*
X61933794Y-91778381D01*
X62027445Y-91490154D01*
X62084233Y-91192462D01*
X62088167Y-91129930D01*
X62103262Y-90890005D01*
X62103262Y-90889994D01*
X62084234Y-90587548D01*
X62084233Y-90587544D01*
X62084233Y-90587538D01*
X62027445Y-90289846D01*
X61933794Y-90001619D01*
X61804758Y-89727402D01*
X61642370Y-89471520D01*
X61449192Y-89238008D01*
X61228271Y-89030550D01*
X61228268Y-89030548D01*
X61228262Y-89030543D01*
X60983101Y-88852423D01*
X60983094Y-88852418D01*
X60983090Y-88852416D01*
X60717517Y-88706415D01*
X60717514Y-88706413D01*
X60717509Y-88706411D01*
X60717508Y-88706410D01*
X60435742Y-88594851D01*
X60435739Y-88594850D01*
X60142197Y-88519483D01*
X59841539Y-88481500D01*
X59841530Y-88481500D01*
X59538470Y-88481500D01*
X59538460Y-88481500D01*
X59237802Y-88519483D01*
X58944260Y-88594850D01*
X58944257Y-88594851D01*
X58662491Y-88706410D01*
X58662490Y-88706411D01*
X58396910Y-88852416D01*
X58396898Y-88852423D01*
X58151737Y-89030543D01*
X58151727Y-89030551D01*
X57930810Y-89238006D01*
X57737626Y-89471524D01*
X57575247Y-89727393D01*
X57575244Y-89727397D01*
X57575242Y-89727402D01*
X57446206Y-90001619D01*
X57446204Y-90001624D01*
X57446203Y-90001625D01*
X57391931Y-90168659D01*
X57352493Y-90226335D01*
X57288135Y-90253533D01*
X57219288Y-90241618D01*
X57167813Y-90194374D01*
X57150000Y-90130341D01*
X57150000Y-59590948D01*
X60971500Y-59590948D01*
X60971500Y-83919051D01*
X61002487Y-84114700D01*
X61063703Y-84303101D01*
X61085892Y-84346647D01*
X61153634Y-84479598D01*
X61270070Y-84639858D01*
X67620069Y-90989857D01*
X67620070Y-90989858D01*
X67760142Y-91129930D01*
X67920402Y-91246366D01*
X67939106Y-91255896D01*
X68096898Y-91336296D01*
X68096900Y-91336296D01*
X68096903Y-91336298D01*
X68173331Y-91361131D01*
X68285299Y-91397512D01*
X68480949Y-91428500D01*
X68480954Y-91428500D01*
X116939051Y-91428500D01*
X117134700Y-91397512D01*
X117323097Y-91336298D01*
X117499598Y-91246366D01*
X117659858Y-91129930D01*
X117799930Y-90989858D01*
X117799930Y-90989857D01*
X126542789Y-82246996D01*
X126542796Y-82246991D01*
X126549856Y-82239931D01*
X126549858Y-82239930D01*
X126689930Y-82099858D01*
X126806366Y-81939598D01*
X126894490Y-81766647D01*
X126896299Y-81763096D01*
X126937622Y-81635913D01*
X126957512Y-81574700D01*
X126971284Y-81487742D01*
X126988500Y-81379051D01*
X126988500Y-70521380D01*
X127008185Y-70454341D01*
X127012169Y-70448511D01*
X127016894Y-70442009D01*
X127113972Y-70251483D01*
X127180049Y-70048116D01*
X127213500Y-69836916D01*
X127213500Y-69623084D01*
X127180049Y-69411884D01*
X127113972Y-69208517D01*
X127113972Y-69208516D01*
X127016893Y-69017990D01*
X126891206Y-68844996D01*
X126740004Y-68693794D01*
X126740000Y-68693791D01*
X126583818Y-68580318D01*
X126541152Y-68524988D01*
X126535173Y-68455375D01*
X126567779Y-68393580D01*
X126583818Y-68379682D01*
X126668027Y-68318500D01*
X126740004Y-68266206D01*
X126891206Y-68115004D01*
X127016894Y-67942009D01*
X127113972Y-67751483D01*
X127180049Y-67548116D01*
X127213500Y-67336916D01*
X127213500Y-67123084D01*
X127180049Y-66911884D01*
X127113972Y-66708517D01*
X127113972Y-66708516D01*
X127016893Y-66517990D01*
X126891206Y-66344996D01*
X126740004Y-66193794D01*
X126728149Y-66185181D01*
X126583818Y-66080318D01*
X126541152Y-66024988D01*
X126535173Y-65955375D01*
X126567779Y-65893580D01*
X126583818Y-65879682D01*
X126634200Y-65843076D01*
X126740004Y-65766206D01*
X126891206Y-65615004D01*
X127016894Y-65442009D01*
X127113972Y-65251483D01*
X127180049Y-65048116D01*
X127213500Y-64836916D01*
X127213500Y-64623084D01*
X127180049Y-64411884D01*
X127126596Y-64247370D01*
X127113973Y-64208519D01*
X127113972Y-64208516D01*
X127028122Y-64040028D01*
X127016894Y-64017991D01*
X126891206Y-63844996D01*
X126752929Y-63706719D01*
X126719444Y-63645396D01*
X126724428Y-63575704D01*
X126766300Y-63519771D01*
X126775513Y-63513499D01*
X126923345Y-63422315D01*
X127047315Y-63298345D01*
X127139356Y-63149124D01*
X127139358Y-63149119D01*
X127194505Y-62982697D01*
X127194506Y-62982690D01*
X127204999Y-62879986D01*
X127205000Y-62879973D01*
X127205000Y-62480000D01*
X126134146Y-62480000D01*
X126172630Y-62413343D01*
X126205000Y-62292535D01*
X126205000Y-62167465D01*
X126172630Y-62046657D01*
X126134146Y-61980000D01*
X127204999Y-61980000D01*
X127204999Y-61580028D01*
X127204998Y-61580013D01*
X127194505Y-61477302D01*
X127139358Y-61310880D01*
X127139356Y-61310875D01*
X127047315Y-61161654D01*
X126923345Y-61037684D01*
X126774124Y-60945643D01*
X126774119Y-60945641D01*
X126607697Y-60890494D01*
X126607690Y-60890493D01*
X126504986Y-60880000D01*
X125980000Y-60880000D01*
X125980000Y-61825854D01*
X125913343Y-61787370D01*
X125792535Y-61755000D01*
X125667465Y-61755000D01*
X125546657Y-61787370D01*
X125480000Y-61825854D01*
X125480000Y-60880000D01*
X124955028Y-60880000D01*
X124955012Y-60880001D01*
X124852302Y-60890494D01*
X124685880Y-60945641D01*
X124685875Y-60945643D01*
X124536654Y-61037684D01*
X124412684Y-61161654D01*
X124320643Y-61310875D01*
X124320641Y-61310880D01*
X124265494Y-61477302D01*
X124265493Y-61477309D01*
X124255000Y-61580013D01*
X124255000Y-61980000D01*
X125325854Y-61980000D01*
X125287370Y-62046657D01*
X125255000Y-62167465D01*
X125255000Y-62292535D01*
X125287370Y-62413343D01*
X125325854Y-62480000D01*
X124255001Y-62480000D01*
X124255001Y-62879986D01*
X124265494Y-62982697D01*
X124320641Y-63149119D01*
X124320643Y-63149124D01*
X124412684Y-63298345D01*
X124536654Y-63422315D01*
X124649568Y-63491961D01*
X124696292Y-63543909D01*
X124707515Y-63612872D01*
X124679671Y-63676954D01*
X124621603Y-63715810D01*
X124584471Y-63721500D01*
X105839096Y-63721500D01*
X105772057Y-63701815D01*
X105751415Y-63685181D01*
X98824819Y-56758585D01*
X98791334Y-56697262D01*
X98788500Y-56670904D01*
X98788500Y-54519633D01*
X98808185Y-54452594D01*
X98831971Y-54425341D01*
X98849959Y-54409978D01*
X98849960Y-54409976D01*
X98849969Y-54409969D01*
X98955711Y-54286160D01*
X99014216Y-54247968D01*
X99084084Y-54247469D01*
X99143131Y-54284823D01*
X99144200Y-54286057D01*
X99231812Y-54388637D01*
X99250031Y-54409969D01*
X99430586Y-54564178D01*
X99430588Y-54564178D01*
X99466527Y-54586202D01*
X99633037Y-54688240D01*
X99633040Y-54688242D01*
X99852403Y-54779104D01*
X99852404Y-54779104D01*
X99852406Y-54779105D01*
X100083289Y-54834535D01*
X100320000Y-54853165D01*
X100556711Y-54834535D01*
X100787594Y-54779105D01*
X100787596Y-54779104D01*
X100787597Y-54779104D01*
X101006959Y-54688242D01*
X101006960Y-54688241D01*
X101006963Y-54688240D01*
X101209416Y-54564176D01*
X101389969Y-54409969D01*
X101495711Y-54286160D01*
X101554216Y-54247968D01*
X101624084Y-54247469D01*
X101683131Y-54284823D01*
X101684200Y-54286057D01*
X101771812Y-54388637D01*
X101790031Y-54409969D01*
X101970586Y-54564178D01*
X101970588Y-54564178D01*
X102006527Y-54586202D01*
X102173037Y-54688240D01*
X102173040Y-54688242D01*
X102392403Y-54779104D01*
X102392404Y-54779104D01*
X102392406Y-54779105D01*
X102623289Y-54834535D01*
X102860000Y-54853165D01*
X103096711Y-54834535D01*
X103327594Y-54779105D01*
X103327596Y-54779104D01*
X103327597Y-54779104D01*
X103546959Y-54688242D01*
X103546960Y-54688241D01*
X103546963Y-54688240D01*
X103749416Y-54564176D01*
X103929969Y-54409969D01*
X104035711Y-54286160D01*
X104094216Y-54247968D01*
X104164084Y-54247469D01*
X104223131Y-54284823D01*
X104224200Y-54286057D01*
X104311812Y-54388637D01*
X104330031Y-54409969D01*
X104510586Y-54564178D01*
X104510588Y-54564178D01*
X104546527Y-54586202D01*
X104713037Y-54688240D01*
X104713040Y-54688242D01*
X104932403Y-54779104D01*
X104932404Y-54779104D01*
X104932406Y-54779105D01*
X105163289Y-54834535D01*
X105400000Y-54853165D01*
X105636711Y-54834535D01*
X105867594Y-54779105D01*
X105867596Y-54779104D01*
X105867597Y-54779104D01*
X106086959Y-54688242D01*
X106086960Y-54688241D01*
X106086963Y-54688240D01*
X106289416Y-54564176D01*
X106469969Y-54409969D01*
X106604721Y-54252195D01*
X106663228Y-54214002D01*
X106711802Y-54209388D01*
X106716565Y-54209881D01*
X107448871Y-53477575D01*
X107464755Y-53536853D01*
X107531898Y-53653147D01*
X107626853Y-53748102D01*
X107743147Y-53815245D01*
X107802423Y-53831127D01*
X107069942Y-54563609D01*
X107116768Y-54600055D01*
X107116770Y-54600056D01*
X107335385Y-54718364D01*
X107335396Y-54718369D01*
X107570506Y-54799083D01*
X107815707Y-54840000D01*
X108064293Y-54840000D01*
X108309493Y-54799083D01*
X108544603Y-54718369D01*
X108544614Y-54718364D01*
X108763228Y-54600057D01*
X108763231Y-54600055D01*
X108840024Y-54540284D01*
X108905017Y-54514641D01*
X108973558Y-54528207D01*
X109023883Y-54576675D01*
X109025020Y-54578712D01*
X109029109Y-54586202D01*
X109039481Y-54600057D01*
X109116739Y-54703261D01*
X109233796Y-54790889D01*
X109370799Y-54841989D01*
X109398050Y-54844918D01*
X109431345Y-54848499D01*
X109431362Y-54848500D01*
X111528638Y-54848500D01*
X111528654Y-54848499D01*
X111555692Y-54845591D01*
X111589201Y-54841989D01*
X111726204Y-54790889D01*
X111843261Y-54703261D01*
X111930889Y-54586204D01*
X111977041Y-54462468D01*
X111981988Y-54449204D01*
X111981988Y-54449203D01*
X111981989Y-54449201D01*
X111986207Y-54409968D01*
X111988499Y-54388654D01*
X111988500Y-54388637D01*
X111988500Y-52291362D01*
X111988499Y-52291345D01*
X111983122Y-52241340D01*
X111981989Y-52230799D01*
X111930889Y-52093796D01*
X111843261Y-51976739D01*
X111726204Y-51889111D01*
X111717584Y-51885896D01*
X111589203Y-51838011D01*
X111528654Y-51831500D01*
X111528638Y-51831500D01*
X109431362Y-51831500D01*
X109431345Y-51831500D01*
X109370797Y-51838011D01*
X109370795Y-51838011D01*
X109233795Y-51889111D01*
X109116739Y-51976739D01*
X109029111Y-52093795D01*
X109025019Y-52101290D01*
X108975613Y-52150695D01*
X108907340Y-52165546D01*
X108841876Y-52141129D01*
X108840024Y-52139715D01*
X108763231Y-52079944D01*
X108763228Y-52079942D01*
X108544614Y-51961635D01*
X108544603Y-51961630D01*
X108309493Y-51880916D01*
X108064293Y-51840000D01*
X107815707Y-51840000D01*
X107570506Y-51880916D01*
X107335396Y-51961630D01*
X107335390Y-51961632D01*
X107116761Y-52079949D01*
X107069942Y-52116388D01*
X107069942Y-52116390D01*
X107802424Y-52848871D01*
X107743147Y-52864755D01*
X107626853Y-52931898D01*
X107531898Y-53026853D01*
X107464755Y-53143147D01*
X107448872Y-53202424D01*
X106716564Y-52470116D01*
X106711800Y-52470611D01*
X106643087Y-52457946D01*
X106604719Y-52427803D01*
X106469971Y-52270033D01*
X106424029Y-52230795D01*
X106330245Y-52150695D01*
X106289413Y-52115821D01*
X106289410Y-52115820D01*
X106086962Y-51991759D01*
X106086959Y-51991757D01*
X105867596Y-51900895D01*
X105636714Y-51845465D01*
X105400000Y-51826835D01*
X105163285Y-51845465D01*
X104932404Y-51900895D01*
X104932402Y-51900895D01*
X104713040Y-51991757D01*
X104713037Y-51991759D01*
X104510589Y-52115820D01*
X104510586Y-52115821D01*
X104330031Y-52270031D01*
X104224290Y-52393838D01*
X104165783Y-52432031D01*
X104095915Y-52432529D01*
X104036869Y-52395176D01*
X104035710Y-52393838D01*
X103948187Y-52291362D01*
X103929969Y-52270031D01*
X103790245Y-52150695D01*
X103749413Y-52115821D01*
X103749410Y-52115820D01*
X103546962Y-51991759D01*
X103546959Y-51991757D01*
X103327596Y-51900895D01*
X103096714Y-51845465D01*
X102860000Y-51826835D01*
X102623285Y-51845465D01*
X102392404Y-51900895D01*
X102392402Y-51900895D01*
X102173040Y-51991757D01*
X102173037Y-51991759D01*
X101970589Y-52115820D01*
X101970586Y-52115821D01*
X101790031Y-52270031D01*
X101684290Y-52393838D01*
X101625783Y-52432031D01*
X101555915Y-52432529D01*
X101496869Y-52395176D01*
X101495710Y-52393838D01*
X101408187Y-52291362D01*
X101389969Y-52270031D01*
X101250245Y-52150695D01*
X101209413Y-52115821D01*
X101209410Y-52115820D01*
X101006962Y-51991759D01*
X101006959Y-51991757D01*
X100787596Y-51900895D01*
X100556714Y-51845465D01*
X100320000Y-51826835D01*
X100083285Y-51845465D01*
X99852404Y-51900895D01*
X99852402Y-51900895D01*
X99633040Y-51991757D01*
X99633037Y-51991759D01*
X99430589Y-52115820D01*
X99430586Y-52115821D01*
X99250031Y-52270031D01*
X99144290Y-52393838D01*
X99085783Y-52432031D01*
X99015915Y-52432529D01*
X98956869Y-52395176D01*
X98955710Y-52393838D01*
X98868187Y-52291362D01*
X98849969Y-52270031D01*
X98710245Y-52150695D01*
X98669413Y-52115821D01*
X98669410Y-52115820D01*
X98466962Y-51991759D01*
X98466959Y-51991757D01*
X98247596Y-51900895D01*
X98016714Y-51845465D01*
X97780000Y-51826835D01*
X97543285Y-51845465D01*
X97312404Y-51900895D01*
X97312402Y-51900895D01*
X97093040Y-51991757D01*
X97093037Y-51991759D01*
X96890589Y-52115820D01*
X96890586Y-52115821D01*
X96710031Y-52270031D01*
X96604290Y-52393838D01*
X96545783Y-52432031D01*
X96475915Y-52432529D01*
X96416869Y-52395176D01*
X96415710Y-52393838D01*
X96328187Y-52291362D01*
X96309969Y-52270031D01*
X96170245Y-52150695D01*
X96129413Y-52115821D01*
X96129410Y-52115820D01*
X95926962Y-51991759D01*
X95926959Y-51991757D01*
X95707596Y-51900895D01*
X95476714Y-51845465D01*
X95240000Y-51826835D01*
X95003285Y-51845465D01*
X94772404Y-51900895D01*
X94772402Y-51900895D01*
X94553040Y-51991757D01*
X94553037Y-51991759D01*
X94350589Y-52115820D01*
X94350586Y-52115821D01*
X94170031Y-52270031D01*
X94064290Y-52393838D01*
X94005783Y-52432031D01*
X93935915Y-52432529D01*
X93876869Y-52395176D01*
X93875710Y-52393838D01*
X93788187Y-52291362D01*
X93769969Y-52270031D01*
X93630245Y-52150695D01*
X93589413Y-52115821D01*
X93589410Y-52115820D01*
X93386962Y-51991759D01*
X93386959Y-51991757D01*
X93167596Y-51900895D01*
X92936714Y-51845465D01*
X92700000Y-51826835D01*
X92463285Y-51845465D01*
X92232404Y-51900895D01*
X92232402Y-51900895D01*
X92013040Y-51991757D01*
X92013037Y-51991759D01*
X91810589Y-52115820D01*
X91810586Y-52115821D01*
X91630031Y-52270031D01*
X91524290Y-52393838D01*
X91465783Y-52432031D01*
X91395915Y-52432529D01*
X91336869Y-52395176D01*
X91335710Y-52393838D01*
X91248187Y-52291362D01*
X91229969Y-52270031D01*
X91090245Y-52150695D01*
X91049413Y-52115821D01*
X91049410Y-52115820D01*
X90846962Y-51991759D01*
X90846959Y-51991757D01*
X90627596Y-51900895D01*
X90396714Y-51845465D01*
X90160000Y-51826835D01*
X89923285Y-51845465D01*
X89692404Y-51900895D01*
X89692402Y-51900895D01*
X89473040Y-51991757D01*
X89473037Y-51991759D01*
X89270589Y-52115820D01*
X89270586Y-52115821D01*
X89090031Y-52270031D01*
X88984290Y-52393838D01*
X88925783Y-52432031D01*
X88855915Y-52432529D01*
X88796869Y-52395176D01*
X88795710Y-52393838D01*
X88708187Y-52291362D01*
X88689969Y-52270031D01*
X88550245Y-52150695D01*
X88509413Y-52115821D01*
X88509410Y-52115820D01*
X88306962Y-51991759D01*
X88306959Y-51991757D01*
X88087596Y-51900895D01*
X87856714Y-51845465D01*
X87620000Y-51826835D01*
X87383285Y-51845465D01*
X87152404Y-51900895D01*
X87152402Y-51900895D01*
X86933040Y-51991757D01*
X86933037Y-51991759D01*
X86730589Y-52115820D01*
X86730586Y-52115821D01*
X86550031Y-52270031D01*
X86444290Y-52393838D01*
X86385783Y-52432031D01*
X86315915Y-52432529D01*
X86256869Y-52395176D01*
X86255710Y-52393838D01*
X86168187Y-52291362D01*
X86149969Y-52270031D01*
X86010245Y-52150695D01*
X85969413Y-52115821D01*
X85969410Y-52115820D01*
X85766962Y-51991759D01*
X85766959Y-51991757D01*
X85547596Y-51900895D01*
X85316714Y-51845465D01*
X85080000Y-51826835D01*
X84843285Y-51845465D01*
X84612404Y-51900895D01*
X84612402Y-51900895D01*
X84393040Y-51991757D01*
X84393037Y-51991759D01*
X84190589Y-52115820D01*
X84190586Y-52115821D01*
X84010031Y-52270031D01*
X83904290Y-52393838D01*
X83845783Y-52432031D01*
X83775915Y-52432529D01*
X83716869Y-52395176D01*
X83715710Y-52393838D01*
X83628187Y-52291362D01*
X83609969Y-52270031D01*
X83470245Y-52150695D01*
X83429413Y-52115821D01*
X83429410Y-52115820D01*
X83226962Y-51991759D01*
X83226959Y-51991757D01*
X83007596Y-51900895D01*
X82776714Y-51845465D01*
X82540000Y-51826835D01*
X82303285Y-51845465D01*
X82072404Y-51900895D01*
X82072402Y-51900895D01*
X81853040Y-51991757D01*
X81853037Y-51991759D01*
X81650589Y-52115820D01*
X81650586Y-52115821D01*
X81470031Y-52270031D01*
X81364290Y-52393838D01*
X81305783Y-52432031D01*
X81235915Y-52432529D01*
X81176869Y-52395176D01*
X81175710Y-52393838D01*
X81088187Y-52291362D01*
X81069969Y-52270031D01*
X80930245Y-52150695D01*
X80889413Y-52115821D01*
X80889410Y-52115820D01*
X80686962Y-51991759D01*
X80686959Y-51991757D01*
X80467596Y-51900895D01*
X80236714Y-51845465D01*
X80000000Y-51826835D01*
X79763285Y-51845465D01*
X79532404Y-51900895D01*
X79532402Y-51900895D01*
X79313040Y-51991757D01*
X79313037Y-51991759D01*
X79110589Y-52115820D01*
X79110586Y-52115821D01*
X78930031Y-52270031D01*
X78824290Y-52393838D01*
X78765783Y-52432031D01*
X78695915Y-52432529D01*
X78636869Y-52395176D01*
X78635710Y-52393838D01*
X78548187Y-52291362D01*
X78529969Y-52270031D01*
X78390245Y-52150695D01*
X78349413Y-52115821D01*
X78349410Y-52115820D01*
X78146962Y-51991759D01*
X78146959Y-51991757D01*
X77927596Y-51900895D01*
X77696714Y-51845465D01*
X77460000Y-51826835D01*
X77223285Y-51845465D01*
X76992404Y-51900895D01*
X76992402Y-51900895D01*
X76773040Y-51991757D01*
X76773037Y-51991759D01*
X76570589Y-52115820D01*
X76570586Y-52115821D01*
X76390031Y-52270031D01*
X76284290Y-52393838D01*
X76225783Y-52432031D01*
X76155915Y-52432529D01*
X76096869Y-52395176D01*
X76095710Y-52393838D01*
X76008187Y-52291362D01*
X75989969Y-52270031D01*
X75850245Y-52150695D01*
X75809413Y-52115821D01*
X75809410Y-52115820D01*
X75606962Y-51991759D01*
X75606959Y-51991757D01*
X75387596Y-51900895D01*
X75156714Y-51845465D01*
X74920000Y-51826835D01*
X74683285Y-51845465D01*
X74452404Y-51900895D01*
X74452402Y-51900895D01*
X74233040Y-51991757D01*
X74233037Y-51991759D01*
X74030589Y-52115820D01*
X74030586Y-52115821D01*
X73850031Y-52270031D01*
X73695821Y-52450586D01*
X73695820Y-52450589D01*
X73571759Y-52653037D01*
X73571757Y-52653040D01*
X73480895Y-52872402D01*
X73480895Y-52872404D01*
X73425465Y-53103285D01*
X73406835Y-53340000D01*
X73425465Y-53576714D01*
X73480895Y-53807595D01*
X73480895Y-53807597D01*
X73571757Y-54026959D01*
X73571759Y-54026962D01*
X73695820Y-54229410D01*
X73695821Y-54229413D01*
X73711669Y-54247968D01*
X73850031Y-54409969D01*
X73936531Y-54483847D01*
X74030586Y-54564178D01*
X74030588Y-54564178D01*
X74066527Y-54586202D01*
X74233037Y-54688240D01*
X74233040Y-54688242D01*
X74452403Y-54779104D01*
X74452404Y-54779104D01*
X74452406Y-54779105D01*
X74683289Y-54834535D01*
X74920000Y-54853165D01*
X75156711Y-54834535D01*
X75387594Y-54779105D01*
X75387596Y-54779104D01*
X75387597Y-54779104D01*
X75606959Y-54688242D01*
X75606960Y-54688241D01*
X75606963Y-54688240D01*
X75809416Y-54564176D01*
X75989969Y-54409969D01*
X76095711Y-54286160D01*
X76154216Y-54247968D01*
X76224084Y-54247469D01*
X76283131Y-54284823D01*
X76284200Y-54286057D01*
X76371812Y-54388637D01*
X76390031Y-54409969D01*
X76570586Y-54564178D01*
X76570588Y-54564178D01*
X76606527Y-54586202D01*
X76773037Y-54688240D01*
X76773040Y-54688242D01*
X76992403Y-54779104D01*
X76992404Y-54779104D01*
X76992406Y-54779105D01*
X77223289Y-54834535D01*
X77460000Y-54853165D01*
X77696711Y-54834535D01*
X77927594Y-54779105D01*
X77927596Y-54779104D01*
X77927597Y-54779104D01*
X78146959Y-54688242D01*
X78146960Y-54688241D01*
X78146963Y-54688240D01*
X78349416Y-54564176D01*
X78529969Y-54409969D01*
X78635711Y-54286160D01*
X78694216Y-54247968D01*
X78764084Y-54247469D01*
X78823131Y-54284823D01*
X78824200Y-54286057D01*
X78911812Y-54388637D01*
X78930031Y-54409969D01*
X79110586Y-54564178D01*
X79110588Y-54564178D01*
X79146527Y-54586202D01*
X79313037Y-54688240D01*
X79313040Y-54688242D01*
X79532403Y-54779104D01*
X79532404Y-54779104D01*
X79532406Y-54779105D01*
X79763289Y-54834535D01*
X80000000Y-54853165D01*
X80236711Y-54834535D01*
X80467594Y-54779105D01*
X80467596Y-54779104D01*
X80467597Y-54779104D01*
X80686959Y-54688242D01*
X80686960Y-54688241D01*
X80686963Y-54688240D01*
X80889416Y-54564176D01*
X81069969Y-54409969D01*
X81175711Y-54286160D01*
X81234216Y-54247968D01*
X81304084Y-54247469D01*
X81363131Y-54284823D01*
X81364200Y-54286057D01*
X81451812Y-54388637D01*
X81470031Y-54409969D01*
X81650586Y-54564178D01*
X81650588Y-54564178D01*
X81686527Y-54586202D01*
X81853037Y-54688240D01*
X81853040Y-54688242D01*
X82072403Y-54779104D01*
X82072404Y-54779104D01*
X82072406Y-54779105D01*
X82303289Y-54834535D01*
X82540000Y-54853165D01*
X82776711Y-54834535D01*
X83007594Y-54779105D01*
X83007596Y-54779104D01*
X83007597Y-54779104D01*
X83226959Y-54688242D01*
X83226960Y-54688241D01*
X83226963Y-54688240D01*
X83429416Y-54564176D01*
X83609969Y-54409969D01*
X83715711Y-54286160D01*
X83774216Y-54247968D01*
X83844084Y-54247469D01*
X83903131Y-54284823D01*
X83904200Y-54286057D01*
X83991812Y-54388637D01*
X84010031Y-54409969D01*
X84190586Y-54564178D01*
X84190588Y-54564178D01*
X84226527Y-54586202D01*
X84393037Y-54688240D01*
X84393040Y-54688242D01*
X84612403Y-54779104D01*
X84612404Y-54779104D01*
X84612406Y-54779105D01*
X84843289Y-54834535D01*
X85080000Y-54853165D01*
X85316711Y-54834535D01*
X85547594Y-54779105D01*
X85547596Y-54779104D01*
X85547597Y-54779104D01*
X85766959Y-54688242D01*
X85766960Y-54688241D01*
X85766963Y-54688240D01*
X85969416Y-54564176D01*
X86149969Y-54409969D01*
X86255711Y-54286160D01*
X86314216Y-54247968D01*
X86384084Y-54247469D01*
X86443131Y-54284823D01*
X86444200Y-54286057D01*
X86531812Y-54388637D01*
X86550031Y-54409969D01*
X86730586Y-54564178D01*
X86730588Y-54564178D01*
X86766527Y-54586202D01*
X86933037Y-54688240D01*
X86933040Y-54688242D01*
X87152403Y-54779104D01*
X87152404Y-54779104D01*
X87152406Y-54779105D01*
X87383289Y-54834535D01*
X87620000Y-54853165D01*
X87856711Y-54834535D01*
X88087594Y-54779105D01*
X88087596Y-54779104D01*
X88087597Y-54779104D01*
X88306959Y-54688242D01*
X88306960Y-54688241D01*
X88306963Y-54688240D01*
X88509416Y-54564176D01*
X88689969Y-54409969D01*
X88795711Y-54286160D01*
X88854216Y-54247968D01*
X88924084Y-54247469D01*
X88983131Y-54284823D01*
X88984200Y-54286057D01*
X89071812Y-54388637D01*
X89090031Y-54409969D01*
X89270586Y-54564178D01*
X89270588Y-54564178D01*
X89306527Y-54586202D01*
X89473037Y-54688240D01*
X89473040Y-54688242D01*
X89692403Y-54779104D01*
X89692404Y-54779104D01*
X89692406Y-54779105D01*
X89923289Y-54834535D01*
X90160000Y-54853165D01*
X90396711Y-54834535D01*
X90627594Y-54779105D01*
X90627596Y-54779104D01*
X90627597Y-54779104D01*
X90846959Y-54688242D01*
X90846960Y-54688241D01*
X90846963Y-54688240D01*
X91049416Y-54564176D01*
X91229969Y-54409969D01*
X91335711Y-54286160D01*
X91394216Y-54247968D01*
X91464084Y-54247469D01*
X91523131Y-54284823D01*
X91524200Y-54286057D01*
X91611812Y-54388637D01*
X91630031Y-54409969D01*
X91810586Y-54564178D01*
X91810588Y-54564178D01*
X91846527Y-54586202D01*
X92013037Y-54688240D01*
X92013040Y-54688242D01*
X92232403Y-54779104D01*
X92232404Y-54779104D01*
X92232406Y-54779105D01*
X92463289Y-54834535D01*
X92700000Y-54853165D01*
X92936711Y-54834535D01*
X93167594Y-54779105D01*
X93167596Y-54779104D01*
X93167597Y-54779104D01*
X93386959Y-54688242D01*
X93386960Y-54688241D01*
X93386963Y-54688240D01*
X93589416Y-54564176D01*
X93769969Y-54409969D01*
X93875711Y-54286160D01*
X93934216Y-54247968D01*
X94004084Y-54247469D01*
X94063131Y-54284823D01*
X94064200Y-54286057D01*
X94170031Y-54409969D01*
X94170035Y-54409972D01*
X94170040Y-54409978D01*
X94188029Y-54425341D01*
X94226224Y-54483847D01*
X94231500Y-54519633D01*
X94231500Y-58509333D01*
X94270254Y-58704161D01*
X94270256Y-58704169D01*
X94312020Y-58804996D01*
X94346277Y-58887701D01*
X94346282Y-58887710D01*
X94456646Y-59052880D01*
X94456649Y-59052884D01*
X103497115Y-68093351D01*
X103497123Y-68093357D01*
X103662286Y-68203715D01*
X103662289Y-68203716D01*
X103662297Y-68203722D01*
X103813148Y-68266206D01*
X103845832Y-68279744D01*
X103845834Y-68279744D01*
X103845839Y-68279746D01*
X104040666Y-68318499D01*
X104040669Y-68318500D01*
X104040671Y-68318500D01*
X104239330Y-68318500D01*
X104239331Y-68318499D01*
X104304275Y-68305581D01*
X104434161Y-68279746D01*
X104434164Y-68279744D01*
X104434169Y-68279744D01*
X104510954Y-68247939D01*
X104558406Y-68238500D01*
X119286486Y-68238500D01*
X119353525Y-68258185D01*
X119399280Y-68310989D01*
X119409224Y-68380147D01*
X119380199Y-68443703D01*
X119321421Y-68481477D01*
X119305884Y-68484973D01*
X119195299Y-68502487D01*
X119006898Y-68563703D01*
X118830401Y-68653634D01*
X118738967Y-68720065D01*
X118670142Y-68770070D01*
X118670140Y-68770072D01*
X118670139Y-68770072D01*
X110204140Y-77236070D01*
X110145408Y-77268962D01*
X110012406Y-77300894D01*
X110012399Y-77300897D01*
X109793036Y-77391759D01*
X109590589Y-77515820D01*
X109590586Y-77515821D01*
X109410031Y-77670031D01*
X109275280Y-77827804D01*
X109216773Y-77865997D01*
X109168199Y-77870611D01*
X109163434Y-77870116D01*
X108431127Y-78602423D01*
X108415245Y-78543147D01*
X108348102Y-78426853D01*
X108253147Y-78331898D01*
X108136853Y-78264755D01*
X108077575Y-78248872D01*
X108810057Y-77516390D01*
X108810056Y-77516389D01*
X108763229Y-77479943D01*
X108544614Y-77361635D01*
X108544603Y-77361630D01*
X108309493Y-77280916D01*
X108064293Y-77240000D01*
X107815707Y-77240000D01*
X107570506Y-77280916D01*
X107335396Y-77361630D01*
X107335390Y-77361632D01*
X107116761Y-77479949D01*
X107069942Y-77516388D01*
X107069942Y-77516390D01*
X107802424Y-78248871D01*
X107743147Y-78264755D01*
X107626853Y-78331898D01*
X107531898Y-78426853D01*
X107464755Y-78543147D01*
X107448872Y-78602424D01*
X106716564Y-77870116D01*
X106711800Y-77870611D01*
X106643087Y-77857946D01*
X106604719Y-77827803D01*
X106469971Y-77670033D01*
X106461962Y-77663193D01*
X106290078Y-77516389D01*
X106289413Y-77515821D01*
X106289410Y-77515820D01*
X106086962Y-77391759D01*
X106086959Y-77391757D01*
X105867596Y-77300895D01*
X105636714Y-77245465D01*
X105400000Y-77226835D01*
X105163285Y-77245465D01*
X104932404Y-77300895D01*
X104932402Y-77300895D01*
X104713040Y-77391757D01*
X104713037Y-77391759D01*
X104510589Y-77515820D01*
X104510586Y-77515821D01*
X104374776Y-77631815D01*
X104330031Y-77670031D01*
X104240383Y-77774996D01*
X104224290Y-77793838D01*
X104165783Y-77832031D01*
X104095915Y-77832529D01*
X104036869Y-77795176D01*
X104035710Y-77793838D01*
X103929969Y-77670031D01*
X103750078Y-77516389D01*
X103749413Y-77515821D01*
X103749410Y-77515820D01*
X103546962Y-77391759D01*
X103546959Y-77391757D01*
X103327596Y-77300895D01*
X103096714Y-77245465D01*
X102860000Y-77226835D01*
X102623285Y-77245465D01*
X102392404Y-77300895D01*
X102392402Y-77300895D01*
X102173040Y-77391757D01*
X102173037Y-77391759D01*
X101970589Y-77515820D01*
X101970586Y-77515821D01*
X101834776Y-77631815D01*
X101790031Y-77670031D01*
X101700383Y-77774996D01*
X101684290Y-77793838D01*
X101625783Y-77832031D01*
X101555915Y-77832529D01*
X101496869Y-77795176D01*
X101495710Y-77793838D01*
X101389969Y-77670031D01*
X101210078Y-77516389D01*
X101209413Y-77515821D01*
X101209410Y-77515820D01*
X101006962Y-77391759D01*
X101006959Y-77391757D01*
X100787596Y-77300895D01*
X100556714Y-77245465D01*
X100320000Y-77226835D01*
X100083285Y-77245465D01*
X99852404Y-77300895D01*
X99852402Y-77300895D01*
X99633040Y-77391757D01*
X99633037Y-77391759D01*
X99430589Y-77515820D01*
X99430586Y-77515821D01*
X99294776Y-77631815D01*
X99250031Y-77670031D01*
X99160383Y-77774996D01*
X99144290Y-77793838D01*
X99085783Y-77832031D01*
X99015915Y-77832529D01*
X98956869Y-77795176D01*
X98955710Y-77793838D01*
X98849969Y-77670031D01*
X98670078Y-77516389D01*
X98669413Y-77515821D01*
X98669410Y-77515820D01*
X98466962Y-77391759D01*
X98466959Y-77391757D01*
X98247596Y-77300895D01*
X98016714Y-77245465D01*
X97780000Y-77226835D01*
X97543285Y-77245465D01*
X97312404Y-77300895D01*
X97312402Y-77300895D01*
X97093040Y-77391757D01*
X97093037Y-77391759D01*
X96890589Y-77515820D01*
X96890586Y-77515821D01*
X96754776Y-77631815D01*
X96710031Y-77670031D01*
X96620383Y-77774996D01*
X96604290Y-77793838D01*
X96545783Y-77832031D01*
X96475915Y-77832529D01*
X96416869Y-77795176D01*
X96415710Y-77793838D01*
X96309969Y-77670031D01*
X96130078Y-77516389D01*
X96129413Y-77515821D01*
X96129410Y-77515820D01*
X95926962Y-77391759D01*
X95926959Y-77391757D01*
X95707596Y-77300895D01*
X95476714Y-77245465D01*
X95240000Y-77226835D01*
X95003285Y-77245465D01*
X94772404Y-77300895D01*
X94772402Y-77300895D01*
X94553040Y-77391757D01*
X94553037Y-77391759D01*
X94350589Y-77515820D01*
X94350586Y-77515821D01*
X94214776Y-77631815D01*
X94170031Y-77670031D01*
X94080383Y-77774996D01*
X94064290Y-77793838D01*
X94005783Y-77832031D01*
X93935915Y-77832529D01*
X93876869Y-77795176D01*
X93875710Y-77793838D01*
X93769969Y-77670031D01*
X93590078Y-77516389D01*
X93589413Y-77515821D01*
X93589410Y-77515820D01*
X93386962Y-77391759D01*
X93386959Y-77391757D01*
X93167596Y-77300895D01*
X92936714Y-77245465D01*
X92700000Y-77226835D01*
X92463285Y-77245465D01*
X92232404Y-77300895D01*
X92232402Y-77300895D01*
X92013040Y-77391757D01*
X92013037Y-77391759D01*
X91810589Y-77515820D01*
X91810586Y-77515821D01*
X91674776Y-77631815D01*
X91630031Y-77670031D01*
X91540383Y-77774996D01*
X91524290Y-77793838D01*
X91465783Y-77832031D01*
X91395915Y-77832529D01*
X91336869Y-77795176D01*
X91335710Y-77793838D01*
X91229969Y-77670031D01*
X91050078Y-77516389D01*
X91049413Y-77515821D01*
X91049410Y-77515820D01*
X90846962Y-77391759D01*
X90846959Y-77391757D01*
X90627596Y-77300895D01*
X90396714Y-77245465D01*
X90160000Y-77226835D01*
X89923285Y-77245465D01*
X89692404Y-77300895D01*
X89692402Y-77300895D01*
X89473040Y-77391757D01*
X89473037Y-77391759D01*
X89270589Y-77515820D01*
X89270586Y-77515821D01*
X89134776Y-77631815D01*
X89090031Y-77670031D01*
X89000383Y-77774996D01*
X88984290Y-77793838D01*
X88925783Y-77832031D01*
X88855915Y-77832529D01*
X88796869Y-77795176D01*
X88795710Y-77793838D01*
X88689969Y-77670031D01*
X88681963Y-77663193D01*
X88671968Y-77654656D01*
X88633775Y-77596148D01*
X88628500Y-77560366D01*
X88628500Y-72551813D01*
X88630883Y-72527620D01*
X88638500Y-72489330D01*
X88638500Y-71020670D01*
X88638499Y-71020666D01*
X88636016Y-71008185D01*
X88599744Y-70825831D01*
X88523721Y-70642296D01*
X88523720Y-70642295D01*
X88523717Y-70642289D01*
X88413354Y-70477120D01*
X88378240Y-70442006D01*
X88272881Y-70336647D01*
X82559318Y-64623084D01*
X76842884Y-58906649D01*
X76842880Y-58906646D01*
X76677710Y-58796282D01*
X76677701Y-58796277D01*
X76494169Y-58720256D01*
X76494161Y-58720254D01*
X76299333Y-58681500D01*
X76299329Y-58681500D01*
X67128189Y-58681500D01*
X67061150Y-58661815D01*
X67054038Y-58656530D01*
X67053946Y-58656658D01*
X66893818Y-58540318D01*
X66851152Y-58484988D01*
X66845173Y-58415375D01*
X66877779Y-58353580D01*
X66893818Y-58339682D01*
X66944200Y-58303076D01*
X67050004Y-58226206D01*
X67201206Y-58075004D01*
X67326894Y-57902009D01*
X67423972Y-57711483D01*
X67490049Y-57508116D01*
X67523500Y-57296916D01*
X67523500Y-57083084D01*
X67490049Y-56871884D01*
X67423972Y-56668517D01*
X67423972Y-56668516D01*
X67326893Y-56477990D01*
X67201206Y-56304996D01*
X67050004Y-56153794D01*
X66877009Y-56028106D01*
X66868366Y-56023702D01*
X66686483Y-55931027D01*
X66686480Y-55931026D01*
X66483117Y-55864951D01*
X66377516Y-55848225D01*
X66271916Y-55831500D01*
X65808084Y-55831500D01*
X65737684Y-55842650D01*
X65596882Y-55864951D01*
X65410743Y-55925431D01*
X65372425Y-55931500D01*
X64630949Y-55931500D01*
X64435299Y-55962487D01*
X64246898Y-56023703D01*
X64070401Y-56113634D01*
X63978967Y-56180065D01*
X63910142Y-56230070D01*
X63910140Y-56230072D01*
X63910139Y-56230072D01*
X61270072Y-58870139D01*
X61270072Y-58870140D01*
X61270070Y-58870142D01*
X61243546Y-58906649D01*
X61153634Y-59030401D01*
X61063703Y-59206898D01*
X61002487Y-59395299D01*
X60971500Y-59590948D01*
X57150000Y-59590948D01*
X57150000Y-52279658D01*
X57169685Y-52212619D01*
X57222489Y-52166864D01*
X57291647Y-52156920D01*
X57355203Y-52185945D01*
X57391931Y-52241340D01*
X57446203Y-52408374D01*
X57446204Y-52408375D01*
X57446206Y-52408381D01*
X57575242Y-52682598D01*
X57575246Y-52682605D01*
X57575247Y-52682606D01*
X57737626Y-52938475D01*
X57737629Y-52938479D01*
X57737630Y-52938480D01*
X57930808Y-53171992D01*
X58109718Y-53339999D01*
X58151727Y-53379448D01*
X58151737Y-53379456D01*
X58396898Y-53557576D01*
X58396903Y-53557578D01*
X58396910Y-53557584D01*
X58662483Y-53703585D01*
X58662488Y-53703587D01*
X58662490Y-53703588D01*
X58662491Y-53703589D01*
X58944257Y-53815148D01*
X58944260Y-53815149D01*
X59042107Y-53840271D01*
X59237800Y-53890516D01*
X59385028Y-53909115D01*
X59538460Y-53928499D01*
X59538466Y-53928499D01*
X59538470Y-53928500D01*
X59538472Y-53928500D01*
X59841528Y-53928500D01*
X59841530Y-53928500D01*
X59841535Y-53928499D01*
X59841539Y-53928499D01*
X59921357Y-53918415D01*
X60142200Y-53890516D01*
X60435739Y-53815149D01*
X60435742Y-53815148D01*
X60717508Y-53703589D01*
X60717509Y-53703588D01*
X60717507Y-53703588D01*
X60717517Y-53703585D01*
X60983090Y-53557584D01*
X61228271Y-53379450D01*
X61449192Y-53171992D01*
X61642370Y-52938480D01*
X61804758Y-52682598D01*
X61933794Y-52408381D01*
X62027445Y-52120154D01*
X62084233Y-51822462D01*
X62103262Y-51520000D01*
X62084233Y-51217538D01*
X62027445Y-50919846D01*
X61933794Y-50631619D01*
X61804758Y-50357402D01*
X61642370Y-50101520D01*
X61449192Y-49868008D01*
X61228271Y-49660550D01*
X61228268Y-49660548D01*
X61228262Y-49660543D01*
X60983101Y-49482423D01*
X60983094Y-49482418D01*
X60983090Y-49482416D01*
X60717517Y-49336415D01*
X60717514Y-49336413D01*
X60717509Y-49336411D01*
X60717508Y-49336410D01*
X60435744Y-49224852D01*
X60433841Y-49224363D01*
X60432828Y-49224103D01*
X60432094Y-49223666D01*
X60432037Y-49223648D01*
X60432041Y-49223635D01*
X60372791Y-49188365D01*
X60341607Y-49125841D01*
X60349175Y-49056382D01*
X60393095Y-49002042D01*
X60459421Y-48980073D01*
X60463668Y-48980000D01*
X128766332Y-48980000D01*
X128833371Y-48999685D01*
G37*
%TD.AperFunction*%
%TD*%
M02*
