M48
; DRILL file {KiCad 8.0.6} date 2025-01-09T18:28:25-0500
; FORMAT={-:-/ absolute / inch / decimal}
; #@! TF.CreationDate,2025-01-09T18:28:25-05:00
; #@! TF.GenerationSoftware,Kicad,Pcbnew,8.0.6
; #@! TF.FileFunction,Plated,1,2,PTH
FMAT,2
INCH
; #@! TA.AperFunction,Plated,PTH,ComponentDrill
T1C0.0374
; #@! TA.AperFunction,Plated,PTH,ComponentDrill
T2C0.0402
; #@! TA.AperFunction,Plated,PTH,ComponentDrill
T3C0.0866
%
G90
G05
T1
X2.6Y-2.2516
X2.6Y-2.35
X2.6Y-2.4484
X2.6Y-2.5469
X2.6Y-2.9
X2.6Y-2.9984
X2.6Y-3.0969
X2.6Y-3.1953
X3.3Y-3.4
X3.3984Y-3.4
X3.4969Y-3.4
X3.5953Y-3.4
X4.0524Y-3.4
X4.1508Y-3.4
X4.2492Y-3.4
X4.3476Y-3.4
X4.95Y-2.45
X4.95Y-2.5484
X4.95Y-2.6469
X4.95Y-2.7453
T2
X2.9496Y-2.1
X2.9496Y-3.1
X3.0496Y-2.1
X3.0496Y-3.1
X3.1496Y-2.1
X3.1496Y-3.1
X3.2496Y-2.1
X3.2496Y-3.1
X3.3496Y-2.1
X3.3496Y-3.1
X3.4496Y-2.1
X3.4496Y-3.1
X3.5496Y-2.1
X3.5496Y-3.1
X3.6496Y-2.1
X3.6496Y-3.1
X3.7496Y-2.1
X3.7496Y-3.1
X3.8496Y-2.1
X3.8496Y-3.1
X3.9496Y-2.1
X3.9496Y-3.1
X4.0496Y-2.1
X4.0496Y-3.1
X4.1496Y-2.1
X4.1496Y-3.1
X4.2496Y-2.1
X4.2496Y-3.1
X4.3496Y-2.1
X4.3496Y-3.1
T3
X2.35Y-2.0283
X2.35Y-3.5783
X5.1Y-2.0283
X5.1Y-3.5783
M30
